<?xml version="1.0" encoding="utf-8"?>
<!-- Generator: Adobe Illustrator 24.0.2, SVG Export Plug-In . SVG Version: 6.00 Build 0)  -->
<svg version="1.1" id="Capa_1" xmlns="http://www.w3.org/2000/svg" xmlns:xlink="http://www.w3.org/1999/xlink" x="0px" y="0px"
	 viewBox="0 0 450 450" style="enable-background:new 0 0 450 450;" xml:space="preserve">
<style type="text/css">
	.st0{fill:none;stroke:#000000;stroke-miterlimit:10;}
	.st1{fill:#FEFEFE;}
	.st2{fill:#F95357;}
	.st3{fill:#6F3919;}
	.st4{fill:#CECEBA;}
	.st5{fill:#2B2B2A;}
	.st6{fill:#9C4D1A;}
	.st7{fill:#464645;}
	.st8{fill:#CDCCB8;}
	.st9{fill:#9F5B20;}
	.st10{fill:#FADDC4;}
	.st11{fill:#94979B;}
	.st12{fill:#9D5823;}
	.st13{fill:#383838;}
	.st14{fill:#666666;}
	.st15{fill:#3F3A43;}
	.st16{fill:#BA9C35;}
	.st17{fill:#5E371F;}
	.st18{fill:#424342;}
	.st19{fill:#965928;}
	.st20{fill:#474646;}
	.st21{fill:#474747;}
	.st22{fill:#774621;}
	.st23{fill:#77340B;}
	.st24{fill:#723819;}
	.st25{fill:#3F3936;}
	.st26{fill:#FBC3C3;}
	.st27{fill:#3E3E3E;}
	.st28{fill:#522316;}
	.st29{fill:#333333;}
	.st30{fill:#CBD3D0;}
	.st31{fill:#454543;}
	.st32{fill:#DFD7D5;}
	.st33{fill:#AF7145;}
	.st34{fill:#8C5D39;}
	.st35{fill:#EDE0DD;}
	.st36{fill:#E66819;}
	.st37{fill:#D2B09C;}
	.st38{fill:#EFF2F0;}
	.st39{fill:#484847;}
	.st40{fill:#353635;}
	.st41{fill:#494949;}
	.st42{fill:#363636;}
	.st43{fill:#D6A994;}
	.st44{fill:#424244;}
	.st45{fill:#875433;}
	.st46{fill:#323130;}
	.st47{fill:#C7532C;}
	.st48{fill:#452719;}
	.st49{fill:#B58C34;}
	.st50{fill:#2D2B31;}
	.st51{fill:#696969;}
	.st52{fill:#D9A78E;}
	.st53{fill:#D6796B;}
	.st54{fill:#353535;}
	.st55{fill:#433229;}
	.st56{fill:#C49CA0;}
	.st57{fill:#D6C0B3;}
	.st58{fill:#AF6C36;}
	.st59{fill:#29272A;}
	.st60{fill:#955D3A;}
	.st61{fill:#761D2C;}
	.st62{fill:#49474E;}
	.st63{fill:#714A32;}
	.st64{fill:#646465;}
	.st65{fill:#3B3B3B;}
	.st66{fill:#D8BEB1;}
	.st67{fill:#492215;}
	.st68{fill:#2E2E2E;}
	.st69{fill:#C46826;}
	.st70{fill:#2A2A2A;}
	.st71{fill:#352F2A;}
	.st72{fill:#3B352F;}
	.st73{fill:#5E6061;}
	.st74{fill:#666665;}
	.st75{fill:#363637;}
	.st76{fill:#313131;}
	.st77{fill:#D8C1B1;}
	.st78{fill:#986D4E;}
	.st79{fill:#F3D8C1;}
	.st80{fill:#18191B;}
	.st81{fill:#D66066;}
	.st82{fill:#C1B5AE;}
	.st83{fill:#B38E08;}
	.st84{fill:#E3B9A5;}
	.st85{fill:#492917;}
	.st86{fill:#373737;}
	.st87{fill:#C0A99C;}
	.st88{fill:#FD6767;}
	.st89{fill:#FA7071;}
	.st90{fill:#FBFBFB;}
	.st91{fill:#FC6A6C;}
	.st92{fill:#59363F;}
	.st93{fill:#DB574D;}
	.st94{fill:#9C572A;}
	.st95{fill:#8C410D;}
	.st96{fill:#A2653B;}
	.st97{fill:#EFE5D3;}
	.st98{fill:#484848;}
	.st99{fill:#21211C;}
	.st100{fill:#100F11;}
	.st101{fill:#B26220;}
	.st102{fill:#666565;}
	.st103{fill:#303030;}
	.st104{fill:#2F2F2F;}
	.st105{fill:#6B6D70;}
	.st106{fill:#9C9C9A;}
	.st107{fill:#FBD0AE;}
	.st108{fill:#E4AFA4;}
	.st109{fill:#D98C69;}
	.st110{fill:#DDD5C8;}
	.st111{fill:#213649;}
	.st112{fill:#474647;}
	.st113{fill:#454340;}
	.st114{fill:#743716;}
	.st115{fill:#8B8C8D;}
	.st116{fill:#4A4269;}
	.st117{fill:#5A3631;}
	.st118{fill:#A31625;}
	.st119{fill:#FDD902;}
	.st120{fill:#FCBC04;}
	.st121{fill:#F6A00C;}
	.st122{fill:#514D4A;}
	.st123{fill:#626262;}
	.st124{fill:#353130;}
	.st125{fill:#FCA8A7;}
	.st126{fill:#959595;}
	.st127{fill:#656565;}
	.st128{fill:#6A6A6A;}
	.st129{fill:#E7D2CC;}
	.st130{fill:#FAFAF8;}
	.st131{fill:#FAFAFA;}
	.st132{fill:#E5CAC6;}
	.st133{fill:#F20809;}
	.st134{fill:#B71A1F;}
	.st135{fill:#CE3736;}
	.st136{fill:#EA0A0C;}
	.st137{fill:#4F3451;}
	.st138{fill:#671429;}
	.st139{fill:#FCD5B4;}
	.st140{fill:#D06314;}
	.st141{fill:#F4B58B;}
	.st142{fill:#C99180;}
	.st143{fill:#F5CBAE;}
	.st144{fill:#FAC29C;}
	.st145{fill:#FAB48A;}
	.st146{fill:#FBC29C;}
	.st147{fill:#DB976E;}
	.st148{fill:#B05C1E;}
	.st149{fill:#974A1C;}
	.st150{fill:#4B2D3B;}
	.st151{fill:#A9684D;}
	.st152{fill:#F85F05;}
	.st153{fill:#F74A06;}
	.st154{fill:#F99807;}
	.st155{fill:#939393;}
	.st156{fill:#FC8082;}
	.st157{fill:#FC9693;}
	.st158{fill:#F29878;}
	.st159{fill:#C98074;}
	.st160{fill:#41312F;}
	.st161{fill:#452C17;}
	.st162{fill:#68452B;}
	.st163{fill:#49362D;}
	.st164{fill:#F98006;}
	.st165{fill:#949594;}
	.st166{fill:#A9A9A9;}
	.st167{fill:#CC8563;}
	.st168{fill:#4E4972;}
	.st169{fill:#FC8282;}
	.st170{fill:#6B5D7B;}
	.st171{fill:#3B3050;}
	.st172{fill:#FBAC90;}
	.st173{fill:#8D5328;}
	.st174{fill:#703513;}
	.st175{fill:#C17E50;}
	.st176{fill:#CB9379;}
	.st177{fill:#F38E90;}
	.st178{fill:#9C85A2;}
	.st179{fill:#FAC8AA;}
	.st180{fill:#2D5069;}
	.st181{fill:#ACBCC9;}
	.st182{fill:#362D53;}
	.st183{fill:#FB9B05;}
	.st184{fill:#FDFDFD;}
	.st185{fill:#8683A8;}
	.st186{fill:#53250B;}
	.st187{fill:#494269;}
	.st188{fill:#59537B;}
	.st189{fill:#E0CDD1;}
	.st190{fill:#E48B8F;}
	.st191{fill:#FDE8CF;}
	.st192{fill:#FBC79B;}
	.st193{fill:#CCC3B9;}
	.st194{fill:#C67E32;}
	.st195{fill:#BE8142;}
	.st196{fill:#CDC3BC;}
	.st197{fill:#D5AE8D;}
	.st198{fill:#D8B699;}
	.st199{fill:#CCACA0;}
	.st200{fill:#907C73;}
	.st201{fill:#887765;}
	.st202{fill:#A55321;}
	.st203{fill:#988373;}
	.st204{fill:#A2703F;}
	.st205{fill:#E9B295;}
	.st206{fill:#C54C1B;}
	.st207{fill:#F19C30;}
	.st208{fill:#B93205;}
	.st209{fill:#CA7C56;}
	.st210{fill:#99512F;}
	.st211{fill:#6A6389;}
	.st212{fill:#77739B;}
	.st213{fill:#102E49;}
	.st214{fill:#EEEAEA;}
	.st215{fill:#F5F1F1;}
	.st216{fill:#141829;}
	.st217{fill:#EE984A;}
	.st218{fill:#171E2C;}
	.st219{fill:#3F4551;}
	.st220{fill:#C7CDD8;}
</style>
<rect x="-0.31" y="1.31" class="st0" width="450" height="448"/>
<g>
	<path class="st1" d="M52.1,194.4c0-39.77,0.05-79.54-0.1-119.31C51.99,71.68,52.69,71,56.1,71c119.27,0.11,238.54,0.11,357.81,0
		c3.41,0,4.1,0.68,4.1,4.09c-0.11,104.27-0.11,208.55,0,312.82c0,3.4-0.68,4.09-4.09,4.09c-119.27-0.11-238.54-0.11-357.81,0
		c-3.41,0-4.11-0.68-4.1-4.09c0.14-47.38,0.1-94.76,0.1-142.14c8.27-6.54,16.9-12.56,25.53-18.6c1.71-1.2,3.61-2.07,5.83-1.64
		c6.48,4.87,13.62,6.21,21.41,3.97c2.07,0.01,4.06-0.28,5.78-1.55c1.63-1.19,3.25-2.4,4.93-3.53c0.65-0.49,1.33-0.9,2.09-1.2
		c0.8-0.29,1.63-0.44,2.48-0.52c0.87-0.1,1.74-0.12,2.62-0.14c3.58-0.03,7.15-0.02,10.72-0.03c1.47-0.04,2.94-0.13,4.42-0.11
		c0.95,0.21,1.55,0.8,1.83,1.72c-0.68,6.24-6.48,7.75-10.28,11.1c-4.67,1.18-9.44,0.28-14.15,0.69c-1.7,0.15-4.16-0.63-3.91,2.57
		c0.05,0.79,0.02,1.58-0.08,2.36c-0.51,1.97,0.02,3.18,2.25,3.48c1.62,0.22,3.38,0.28,4.47,1.87c0.32,0.58,0.52,1.18,0.64,1.83
		c0.5,33.56,0.04,67.11,0.2,100.64c-0.7,7.03,1.45,14.3-1.74,21.12c-0.51,1.73-1.86,3.45-0.08,5.22c1.22,0.81,2.59,0.67,3.95,0.62
		c2.41-0.89,6.29,0.47,6.21-4.13c-0.97-2.22-2.54-4.15-3.05-6.57c-0.38-1.5-0.43-3.03-0.46-4.57c0.04-2.72-0.15-5.44,0.53-8.12
		c0.83-2.6,0.54-5.29,0.54-7.94c0.04-30.04-0.03-60.09,0.04-90.13c0.01-2.81-0.5-5.73,1.08-8.36c1.62-1.69,3.77-1.62,5.84-1.63
		c11.57-0.07,23.14-0.11,34.71,0.01c6.33,0.06,8.06,1.19,8.57,7.34c0.52,6.35,4.13,12.29,2.43,18.88c-2.51,2.95-5.98,1.68-9.07,2.06
		c-1.08,0.13-2.34-0.01-2.59,1.54c-0.24,1.52,0.41,2.53,1.87,3.05c4.27,0.43,8.54,0.08,12.8,0.24c2.2,0.08,4.51-0.11,6.11,1.93
		c1.19,2.32,0.87,4.83,0.88,7.27c0.01,25.43,0.05,50.87,0,76.29c-0.01,0.95-0.04,1.9-0.16,2.83c-0.15,1.11-0.62,2.13-0.97,3.19
		c-0.66,1.98-2.86,4.18-0.22,5.98c2.34,1.6,5.18,1.04,7.49-0.31c3.41-2-0.02-4.59,0.23-6.91c-0.21-1.46-0.12-2.9,0.38-4.3
		c2.2-4.68,5.32-2.63,8.37-1.16c7.8,5.07,15.9,9.5,24.92,12.08c3.58,1.02,6.95,1.46,10.31-0.84c2.11-1.45,4.69-1.3,7.17-1.08
		c4.97,1.63,10.5-0.44,15.29,2.31c0.76,0.87,0.89,2.01,1.24,3.06c0.64,1.92,2.13,2.46,3.96,2.34c1.96-0.13,2.97-1.33,3.34-3.18
		c0.36-1.81,0.15-3.74,1.04-5.45c4.64-3.19,7.32-7.51,7.59-13.21c1.49-1.52,2.75-3.16,2.83-5.42c-2.68-8.56,0.02-16.76,1.6-25.05
		c3.55-3.23,3.73-3.16,6.06,2.19c1.6,6.04,2.32,12.27,4.04,18.27c0.58,2.14,0.47,4.35,0.62,6.54c0.15,2.38,0.85,4.34,3.6,4.76
		c1.76,0,3.81,0.85,5.07-0.83c0.75-1.01-0.68-1.84-1.34-2.65c-1.5-1.42-2.16-3.21-2.34-5.22c-0.58-4.3-1.79-8.42-3.51-12.41
		c-1.08-3.33-2.5-6.6-1.72-10.25c0.66-1.85,2.2-2.81,3.94-2.69c8.89,0.6,17.63-2.19,26.53-1.03c0.94,0.24,1.79,0.67,2.5,1.34
		c1.42,1.51,2.08,3.47,3.07,5.24c0.62,1.22,1.15,2.47,1.64,3.75c1.26,3.5,3.05,6.79,4.37,10.26c4.22,7.6,6.73,16.03,11.8,23.24
		c2.04,2.89,2.92,6.52,3.61,10.1c0.51,2.61,2.51,3.36,4.77,2.43c2.79-1.16,1.37-3.05,0.3-4.61c-1.19-1.73-2.2-3.53-2.95-5.48
		c-0.69-1.73-1.52-3.39-2.42-5.02c-2.59-6.2-5.47-12.25-9.07-17.94c-1.35-3.84-3.96-7.01-5.66-10.67c-1-3.96-4-7.1-4.66-11.22
		c-0.11-2.26,0.92-3.87,2.86-4.95c0.54-0.23,1.1-0.3,1.68-0.24c2.19,0.53,3.64,1.98,4.69,3.87c3.77,6.8,8.86,12.8,12.05,19.95
		c1.75,2.74,3.08,5.7,4.64,8.55c0.79,6.15,3.51,9.9,9.99,7.99c-0.94-0.75-2.03-2.19-2.95-3.78c-7.27-13.32-13.86-27.02-22.69-39.45
		c-0.97-1.85-1.53-3.8-1.63-5.89c-0.07-1.47-0.06-2.95-0.01-4.42c0.16-3.28,2.14-6.02,2.75-9.17c3.54-6.91,5.51-14.31,6.79-21.92
		c0.16-0.56,0.4-1.08,0.69-1.57c3.16-7.54,5.54-15.31,6.93-23.37c0.11-1.45,0.5-2.81,1.26-4.05c3.17-6.23,4.28-13.11,6.17-19.74
		c1.03-3.61-2.72-4.49-4.2-6.67c-0.44-0.74-0.68-1.55-0.81-2.39c-0.2-1.64-0.21-3.32-1.04-4.83c-1.62-4.71-5.22-7.2-9.9-7.06
		c-4.58,0.14-7.91,2.88-10.19,7.1c-3.13,5.8-2.16,12.21-3.22,18.3c-0.85,4.89-1.9,9.61-3.86,14.16c-0.73,1.3-1.33,2.73-2.96,3.18
		c-2.77-1.47-2.71-4.34-3.11-6.82c-0.78-4.82-1.86-9.55-3.36-14.18c-0.34-4.56-3.53-7.75-5.6-11.47c-2.16-2.92-3.84-6.08-4.82-9.59
		c-0.33-4.38-5.29-6.4-5.58-10.8c-0.19-3.09,1.54-4.95,4.07-6.28c3.2-1.68,6.36-3.48,9.76-4.74c3.41-1.26,6.42-3.54,7.73-6.44
		c2.98-6.6,8.59-9.84,14.29-13.22c8.35-5.38,9.91-13.9,4.49-24.57c0.33-7.48-0.39-14.95-0.48-22.41c-0.93-3.95-4.43-5.96-6.74-8.86
		c-1.38-1.73-3.44-3.12-2.63-5.83c1.28-1.87,3.34-2.71,5.46-3.99c-1.54-0.49-2.77,0.13-4.01,0.34c-4.06,1-5.81-1.67-7.4-4.84
		c-0.89,1.55-0.24,3.95-2.57,4.33c-1.91,0.31-3.21-0.97-4.37-2.19c-4.5-4.73-9.9-8.07-15.93-10.46c-2.6-0.94-5.07-2.24-7.8-2.82
		c-17.3-3.58-33.87-2.21-49.33,7.07c-1.13,0.68-2.37,1.16-3.31,2.14c-7.41,7.71-13.42,16.28-16.82,26.54
		c-1.6,4.85-1.87,9.6-0.02,14.4c0.61,6.46,3.93,11.78,7.22,17.12c1.9,3.31,2.84,6.86,2.54,10.68c0.03,1.06,0.19,2.1,0.58,3.09
		c0.92,3.15,3.21,5.18,5.72,7.04c7,13.35,18.15,20.22,33.06,21.62c4.23,0.4,9.01,0.78,10,6.51c0.05,0.56-0.01,1.12-0.2,1.65
		c-6.27,6.33-11.46,13.67-17.93,19.8c-4.2,3.98-3.29,8.38-2.4,13.03c-4.96,8.93-18.37,13.94-28.94,10.85
		c-4.77-2.91-8.34-0.65-11.64,2.74c-0.75,0.29-1.53,0.44-2.33,0.52c-3.56,0.2-7.29-0.12-9.85,3.16c-2.05,3.19-0.84,6.39-0.07,9.6
		c-0.82,2.2-3.09,2.03-4.72,2.91c-3.61,2.91-8.51,3.42-12.03,6.5c-1.23,0.44-2.4,0.34-3.52-0.34c-1.09-0.89-1.86-2.09-1.65-3.44
		c0.88-5.67,0.16-11.25-0.47-16.87c-0.45-4.04,1.39-6.45,5.71-6.74c1.84-0.12,3.84-0.15,5.05-1.98c0.71-2.17,1.26-4.31-1.14-5.89
		c-9.05-0.82-18.1-0.16-27.14-0.37c-2.07-0.05-4.15,0.11-6.2-0.38c-5.06-4.1-11.85-6.63-13.03-14.28
		c-0.63-5.1-3.07-10.33,1.13-15.07c2.29-0.93,4.48-0.93,6.49,0.7c1.56,1.91,1.97,4.33,2.86,6.53c0.76,2.12,1.18,4.36,2.21,6.38
		c1.53,3,4.03,2.32,6.35,1.38c2.54-1.03,1.77-2.95,0.83-4.7c-3.57-6.68-5.85-13.84-7.88-21.1c-1.29-4.86-3.61-9.36-5.06-14.17
		c-1.68-5.05-3.31-10.12-5.09-15.14c-2.4-6.3-3.68-13.03-7.26-18.89c-1.23-2.01-2.21-4.03-5.18-2.94c-3.49,1.29-2.16,3.74-1.65,6.09
		c1.03,4.77,3.98,8.98,4.1,14.01c-1.66,3.75-6.7,6.33-3.98,11.59c0.33,2.17,1.4,4.12,1.89,6.25c0.07,2.09-1.07,3.3-2.93,3.98
		c-0.89,0.23-1.79,0.25-2.69,0.13c-3.16-0.71-6.04-1.98-8.66-3.94c-7.98-5.95-16.65-6.18-25.7-2.88c-2.2,0.68-4.13,2.34-6.66,1.83
		c-3.59-1.39-7.14-1.64-10.78-0.03c-1.9,0.84-3.96,0.9-5.98,0.25c-5.75-3.78-13.52-0.61-16.98,6.02c-1.59,3.05-1.47,7.18-5.22,9
		C56.82,197.31,54.18,196.84,52.1,194.4z"/>
	<path class="st2" d="M321.77,227.48c3.19,6.96,2.89,14.77,5.31,21.92c0.13,4.67-2.12,9.4,0.4,14c0.41,4.05-0.67,7.6-3.54,10.55
		c-3.59,1.4-6.1,5.43-10.7,4.42c-2-2.39-2.62-4.75-0.09-7.26c1.79-1.78,2.43-4.11,2.65-6.57c0.38-9.83,1.28-19.69-2.33-29.21
		c-0.34-0.89-0.43-1.84-0.58-2.78c-0.27-1.72,1.07-4.32-1.37-4.89c-1.72-0.41-2.51,2-3.56,3.28c-3.74,4.55-7.2,9.33-11.68,13.24
		c-3.14,1.66-5.21,5.73-9.72,4.32c-1.88-2.99-7.17-2.81-7.12-7.6c4.18-5.31,11.35-5.37,16.41-9.57c5.08-4.21,10.25-7.47,10.02-15.14
		c-0.1-3.4,2.75-6.09,4.18-9.15c0.51-0.46,1.01-0.45,1.5,0.03c1.52,3.03,3.03,6.06,4.55,9.09
		C317.23,220.31,318.94,224.18,321.77,227.48z"/>
	<path class="st3" d="M205.03,242.2c0.19,3.46-2.22,3.52-4.5,3.13c-5.48-0.92-6.92,1.58-6.25,6.54c0.85,6.29-0.72,12.7,0.84,18.97
		c0.14,1.2,0.9,2.05,1.68,2.9c1.95,1.75,4.44,0.39,6.55,1.14c1.24,0.44,2.92,0.78,2.94,2.23c0.02,1.63-1.76,1.61-3.01,1.96
		c-2.54,0.71-5.89-1.19-7.55,2.34c-0.62,21.66-0.11,43.3-0.25,64.94c-0.04,6.44,0.2,12.89-1.09,19.26
		c-0.01,0.82-0.42,1.31-1.23,1.47c-1.49-0.52-2.18-1.73-2.69-3.1c-0.41-1.27-0.56-2.58-0.57-3.91c-0.14-35.94,0.09-71.89,0-107.58
		c-0.39,1.12-0.18,2.69-0.98,3.99c-2.63,2.26-2.63-0.54-3.13-1.78c-0.83-2.05,0.31-4.56-1.4-6.43c-1.51-1.08-3.24-0.82-4.94-0.79
		c-16.94-4.43-34.21-1.42-51.3-2.28c-0.96-0.05-1.89,0.06-2.3,1.16c-0.09,4.88,0,9.75-0.05,14.63c-0.01,1.09,0.36,2.66-0.86,2.99
		c-1.45,0.4-2.31-0.87-2.71-2.24c0.16-4.01,0.67-8.02,0.14-12.04c-0.42-1.38-1.16-2.46-2.75-2.65c-0.46-0.07-0.91-0.19-1.35-0.34
		c-0.4-0.25-0.8-0.48-1.22-0.68l0.09-0.13c-0.61-0.97-0.57-1.9,0.15-2.79c4.77-1.57,9.67-2.15,14.68-1.93
		c5.73,1.33,11.49,0.79,17.25,0.34c11.12-1.99,22.25,0.76,33.45-0.03c6.04-0.43,12-0.38,17.8-2.28
		C203.59,237.77,204.87,239.13,205.03,242.2z"/>
	<path class="st4" d="M60.06,198.79c0.38-1.05,0.35-2.07-0.22-3.05c1.65-3.55,3.04-7.26,5.02-10.63c4.05-6.88,11.79-8.72,16.96-4.33
		c0.15,1.1-0.44,1.93-1.28,2.33c-6.76,3.22-8.1,8.87-7.52,15.68c0.34,3.96,0.29,7.99,0.01,11.97c-0.38,5.34,0.3,9.79,6.61,11.03
		c-0.01,0.82,1.92,1.51-0.04,2.52c-2.42,1.24-4.66,2.82-6.97,4.26c-9.83-4.59-11.28-13.75-12.47-22.99
		C59.87,203.34,60.08,201.05,60.06,198.79z"/>
	<path class="st5" d="M163.02,208.1c-1.52-1.85-3.75-0.73-5.57-1.32c-2.51-0.04-3.29-1.89-4.37-3.74c-2.62-4.49-5.1-9.15-9.64-12.11
		c-0.51-0.02-1.01-0.07-1.51-0.13c-1.07-0.22-1.96-0.64-2.2-1.85c0.13-1.77,1.18-2.84,2.72-3.54c0.72-1.12,1.43-2.24,2.15-3.36
		c-0.72-2.81,0.31-3.18,2.56-1.83c1.65,2.04,0.84,4.73,1.8,6.95c0.58,1.36,1.17,3.14,3.09,2.47c1.79-0.63,1.4-2.41,1.15-3.89
		c-0.33-1.97-1.84-3.2-3.07-4.59c-1.65-3.13-1.88-6.86-4.02-9.91c-1.19,1.81-0.28,4.97-3.68,4.87c-3.74-5.8,1.17-8.31,4.37-11.47
		c0.92-1.12,1.37-4.06,3.42-0.89c2.1,6.85,4.84,13.46,7.72,20.02c0.92,2.09,1.66,4.23,2.1,6.46c0.66,3,2.24,5.83,1.75,9.05
		c-0.47,1.66-0.62,3.37-0.69,5.06c0.88-0.54,0.05-1.7,0.71-2.36c3.95-0.42,4.03-4.99,6.98-6.48c3.25,7.25,4.59,15.25,8.87,22.1
		c1.4,2.25,1.46,4.87-1.72,4.92c-2.75,0.04-6.42,4.81-8.44-1c-0.86-2.47-1.54-5.01-2.3-7.52c-1.36-2.29,0.27-4.1,1.18-6.06
		C165.21,209.69,164.17,209.96,163.02,208.1z"/>
	<path class="st6" d="M326.67,263.18c-3.45-4.7-2.3-9.27,0.41-13.78c0.6-1.19,1.21-2.38,1.81-3.57c5.08-1.75,1.72-6.81,3.79-9.79
		c0.53-0.77-0.26-2.6,1.11-2.77c1.45-0.19,1.95,1.47,2.7,2.5c1.07,1.77,2.08,3.59,3.62,5c2.24,2.03,6.03,5.03,7.57,3.29
		c2.18-2.47,6.96-3.41,6.43-8.07c-0.25-2.25,1.33-3.83,2.18-5.68c0.86-2.37,0.28-4.87,0.68-7.26c0.3-1.83-0.42-4.39,2.65-4.72
		c0.01,0.72,0.03,1.44,0.04,2.16c1.94,3.23,1.73,6.72,1.25,10.23c-2,8.26-3.76,16.57-9.63,23.31c-4.52,5.19-9.77,8.52-16.73,9.63
		c-2.6,0.41-4.21-2.61-6.65-0.97C327.59,263.11,327.18,263.27,326.67,263.18z"/>
	<path class="st7" d="M79.63,221.79c-8.02,0-8.02,0-8.07-8.24c-0.04-5.1,0.4-10.26-0.26-15.27c-1.16-8.86,2.54-14.34,10.52-17.48
		c2.8-0.34,5.48-0.96,8.2-1.86c2.98-0.98,6.39-1.01,8.9,1.79c0.01,0.26,0.01,0.53,0.02,0.79c-1.85,2.69-1.85,2.69-7.48,3.82
		c4.99-2.45,4.54,2.27,5.94,4.58c0.86,3.81-1.68,5.3-4.52,6.57c-2.49,1.11-5.47,1.67-5.83,5.17c-1.55,3.58-4.73,6.22-5.82,10.07
		c-2.1,2.39-1.3,4.71,0.16,7.02c0.29,1.13,0.19,2.18-0.7,3.04l-0.54,0.11L79.63,221.79z"/>
	<path class="st8" d="M143.4,189.84c1.71-1.66,2.37,0.28,2.9,1.1c2.82,4.37,7.42,7.63,8.45,13.12c0.3,1.59,1.9,1.72,2.7,2.72
		c-3.31,4.99-0.06,10.12-0.31,15.17c-8.01,5.28-10.65,5.38-16.53,0.63c-0.96-2.91,1.27-5.31,1.3-8.07
		c0.11-6.06-0.01-12.11,0.06-18.16C141.99,194.08,141.78,191.75,143.4,189.84z"/>
	<path class="st9" d="M205.03,242.2c-1.26-0.39-0.47-4.01-3.23-2.05c-13.86,2.21-27.82,1.05-41.74,1.38
		c-14.86,0.34-29.81-1.16-44.58,1.65c-2.15,0.41-4.12,0.36-5.07-2.11c-0.02-0.66-0.05-1.32-0.07-1.98c1.79-4.66,6.11-3.25,9.34-3.41
		c27.67-1.39,55.36-0.02,83.04,0c0.57,0,1.13-0.13,1.69-0.22C206,237.56,205.34,239.9,205.03,242.2z"/>
	<path class="st10" d="M227.01,247.91c3.04-3.75,6.41-6.34,11.41-3.31c-0.13,0.14-0.26,0.38-0.4,0.39
		c-0.54,0.06-0.81,0.57-0.47,0.68c4.88,1.56,9.69,1.03,14.55-0.36c3.75-1.08,7.49-3.1,11.55-0.99c1.56,4-1.73,4.99-4.13,6.12
		c-6.15,2.91-11.94,6.61-18.51,8.61c-1.3,0.52-2.67,0.65-4.04,0.72c-2.3-0.48-3.3,1.96-5.23,2.33c-0.8-0.2-1.37-0.69-1.78-1.39
		c-0.72-1.07,1.25-3.69-1.94-3.34c-0.51-0.6-0.65-1.3-0.6-2.05C226.74,252.88,224.52,250.52,227.01,247.91z"/>
	<path class="st11" d="M80.53,211.41c0.09-4.52,3.2-7.17,6.13-9.93c0.32-0.56,0.78-0.96,1.38-1.2c7.93-2.06,13.77,1.54,18.95,6.96
		c2.65,3.59,3.92,7.61,3.78,12.06c0.03,2.7-0.23,5.36-1.26,7.9c-0.58,1.84-2.06,2.77-3.62,3.65c-8.48,2.72-16.34,2.26-22.94-4.52
		c0.5-2.12-1.01-3.27-2.23-4.55c-0.08-1.08-0.16-2.17-0.25-3.25C79.24,216.14,79.18,213.77,80.53,211.41z"/>
	<path class="st12" d="M115.29,370.97c3.71-6.83,0.54-14.28,1.95-21.32c0.73-0.38,1.27-0.2,1.61,0.54c0.18,2.27,0.11,4.54,0.14,6.81
		c-1.15-21.91-0.37-43.83-0.56-65.75c-0.02-2.24-0.42-4.56,0.63-6.73c3.87-2.61,4.06,0.55,4.21,2.91c0.37,5.64,0.11,11.3,0.15,16.96
		c0.02,2.64-0.1,5.28,0.82,7.82c0.76,16.81,0.3,33.62-0.18,50.42C122.61,366.94,121.22,371.34,115.29,370.97z"/>
	<path class="st13" d="M149.31,163.62c-1.5-1.28-1.39,1.38-2.52,1.03c-1.92-5.73-3.58-11.58-5.88-17.16
		c-1.29-3.14,0.5-4.06,2.49-4.32c2.18-0.28,4.63-3.85,6.79,0.24c3.7,7.01,6.37,14.4,8.39,22.04c0.31,1.24,0.94,2.65-0.25,3.6
		c-1.12,0.9-2.15-0.18-2.84-0.92C153.72,166.2,150.56,166.22,149.31,163.62z"/>
	<path class="st14" d="M137.92,223c-0.99,1.06-2.21,1.28-3.57,0.98c-4.16-0.78-8.32-0.79-12.47,0.01c-0.78,0-1.56,0-2.35,0
		c-0.4-2.92,2.13-3.87,3.79-5.15c5.25-4.05,7.18-8.99,5.37-15.5c-0.58-2.09-1.38-4.41-0.19-6.65c1.25-1.35,3.4-1.75,4-3.8
		c0.46-1.55,1.2-2.87,3.11-2.54c1.95,0.34,2.82,1.69,2.86,3.62c-0.44,8.29-0.21,16.58-0.13,24.86
		C138.6,220.25,138.46,221.64,137.92,223z"/>
	<path class="st15" d="M281.72,354.19c-0.21,2.09-1.3,3.48-3.3,4.15c-2.21,0.2-3.43,2.67-5.8,2.5c-2.61-0.08-3.33-1.88-3.55-4.02
		c-0.2-1.99-0.18-4.02-1.44-5.74c-0.32-0.84-0.38-1.7-0.24-2.58c1.36-5.71,3.96-11.01,5.52-16.67c0.84-3.04-2.37-6.44,1.1-9.03
		c3.81-0.69,6.11,1.25,7.71,4.42c-1.79,7.69-2.35,15.64-4.84,23.19c-0.54,0.53,1.05,0.55,0.36,0.25c-0.19-0.08,0-0.19,0.19-0.54
		c0.91-1.64,1.91-2.68,3.05-0.27C281.12,351.21,281.04,352.82,281.72,354.19z"/>
	<path class="st16" d="M227.98,135.17c-3.81-7.21-1.28-14.3,1.6-20.69c2.92-6.46,7.16-12.45,11.53-18.09
		C246.67,89.23,255,86,263.39,83.75c11.78-3.16,23.79-3.94,35.7-0.15c-1.81,2-4.27,1.43-6.53,1.66c-11.5-0.11-23-0.36-33.9,4.46
		c-3.29,1.45-6.55,2.87-9.5,4.91c-3.18,1.55-5.17,3.99-6.74,7.24c-2.53,5.25-7.54,8.94-9.78,14.47c-1.72,5.22-3.87,10.35-2.67,16.06
		c0.2,0.96-0.42,1.82-1.19,2.46C228.52,134.98,228.25,135.07,227.98,135.17z"/>
	<path class="st17" d="M204.4,235.44c-0.31,1.15-0.69,2.01-2.26,1.93c-24.23-1.34-48.49-0.67-72.73-0.49
		c-6.31,0.05-13.08-1.53-19.08,2.19c-1.39-4.1-1.3-4.28,2.68-4.43c5.44-0.2,10.9,0.48,16.31-0.49c6.37-2.65,13.05-1.02,19.58-1.38
		c3.95-0.22,7.92-0.04,11.88-0.03c1.06,0,2.12,0.02,3.18,0.16c1.37,0.26,2.64,0.84,3.97,1.25c9.95,1.04,19.94,0.16,29.9,0.52
		C200.02,234.76,202.35,233.98,204.4,235.44z"/>
	<path class="st18" d="M137.77,193.34c-2.7-2.56-2.84-2.59-3.43,0.42c-0.7,3.51-3.34,2.82-5.68,2.91c-0.24-0.1-0.48-0.2-0.73-0.3
		c-0.46-0.31-1.19-0.68-1.18-1.1c0.05-3.53-2.58-5.58-4.33-8.12c0.14-0.57,0.46-0.99,0.97-1.29c5.75,0.14,11.4,0.82,16.8,2.94
		c0.48,0.87,1.3,1.02,2.19,1.03c1.22,6.49,0.22,13.04,0.58,19.56c0.12,2.22-0.49,4.5,0.49,6.66c0.53,2.62-3.31,3.95-2,6.8
		c-0.4,1.03-1.08,1.55-2.22,1.22c-0.44-0.35-0.87-0.71-1.31-1.06c-1.44-0.72-0.16-1.63-0.16-2.44
		C136.99,211.48,136.96,202.41,137.77,193.34z"/>
	<path class="st19" d="M119.63,245.82c1.67-0.06,3.28-0.02,3.38,2.26c0.79,4.18,0.85,8.36-0.04,12.54c0.08,0.94,0.05,2.18,1.11,2.38
		c1.57,0.29,1.06-1.15,1.07-1.9c0.09-5.11,0.1-10.23,0.14-15.34c0.3-0.35,0.6-0.34,0.92-0.02c-0.11,33.76-0.2,67.52-0.34,101.28
		c-0.01,2.05,0.47,4.17-0.51,6.16c-2-2.07-1.22-4.67-1.21-7.04c0.15-23.88-0.66-47.74-0.66-71.6c0.2-3.6-4.1-3.83-5.01-6.62
		c-0.18-5.61-0.07-11.2-0.07-16.79C118.42,249.26,118.14,247.33,119.63,245.82z"/>
	<path class="st20" d="M342.87,298.53c-0.92,3.01-1.83,6.01-2.75,9.02c-1.16,0.86,0.27,3.51-1.86,3.35
		c-2.38-0.18-3.53-2.29-4.42-4.36c-0.87-3.15,0.7-5.85,1.67-8.64c1.53-4.42,3.08-8.82,3.71-13.49c0.89-2.63,1.02-5.81,4.68-6.46
		c0.12-0.02,0.89,0.59,0.59-0.49c-1.36-4.91,1.31-9.23,2.26-13.81c1.05-2.6,1.76-5.51,5.36-5.73c2.15,1.28,1.44,3.01,1,4.91
		c-1,4.37-2.22,8.67-3.52,12.96l0.11-0.28c-2.14,6.44-4.01,12.97-6.84,19.16C342.27,295.96,342.5,297.25,342.87,298.53z"/>
	<path class="st21" d="M149.31,163.62c2.27,1.78,6.54-0.12,7.54,4.24c0.21,0.92,0.84,0.77,1.73-2.41
		c1.78,5.09,3.56,10.18,5.34,15.27c-1.63,1.9,0.38,3.43,0.52,5.15c0.15,1.78,1.2,3.75-0.45,5.23c-1.77,1.6-3.73,1.16-5.55-0.17
		c-1.35-7.21-5.02-13.55-7.85-20.19C149.57,168.35,149.27,166.08,149.31,163.62z"/>
	<path class="st22" d="M185.96,364.49c-0.08-15.19-0.18-30.38-0.24-45.57c-0.05-13.3-0.06-26.6-0.09-39.9
		c-0.23-1.89-0.4-3.8,0.47-5.55c0.58-1.18,1.35-2.58,2.82-0.72c0.96,1.75,0.92,3.66,0.92,5.57c0.01,27.02,0.01,54.03,0,81.05
		c0,1.71,0.07,3.43-0.65,5.05C188.15,366.23,187.07,366.31,185.96,364.49z"/>
	<path class="st23" d="M124.02,271.91c1.95,1.89,1.08,4.33,1.09,6.5c0.04,22.64-0.03,45.28-0.04,67.92c0,2.27,0.2,4.55,0.31,6.82
		c0.33,2.68,0.42,5.36-0.18,8.02c-1.42,0.6,0.84,3.73-2.21,3.21c-0.04-17.49-0.07-34.97-0.11-52.46
		c-1.01-12.33,0.14-24.71-1.01-37.04C122.1,273.55,122.15,272.07,124.02,271.91z"/>
	<path class="st24" d="M126.22,245.72l-0.46-0.03c0,0-0.46,0.05-0.46,0.05c0.83-0.37,1.67-1.06,2.5-1.06
		c15.94-0.02,31.89,0.08,47.83,0.03c1.69-0.01,2.64,2.53,4.55,1.07c1.96,2.72,1.9,5.88,2.02,9.01c-0.78,3.94-0.61,7.89-0.24,11.86
		c0.45,4.77-0.34,5.33-5.42,4.16c1.21-5.46-2.22-10.07-2.83-15.27c-1.19-10.19-1.67-10.19-12.22-10.15
		C149.74,245.45,137.98,245.61,126.22,245.72z"/>
	<path class="st25" d="M139.23,224.06c0.74-0.41,1.48-0.82,2.22-1.22c4.92,1.8,9.83,3.59,13.86-1.79c0.07-0.1,1.19,0.58,1.82,0.9
		c0.33,4.12,4,5.56,6.43,7.99c1.43,1.43,2.9,2.83,4.35,4.24c-1.28,0.03-2.57,0.06-3.85,0.09c-6.66-7.02-14.83-4.68-23.93-4.04
		c4.57,1.94,7.91,1.19,11.46,0.53c3.8-0.71,8.36-2,10.25,3.51c-10.84-0.03-21.69-0.07-32.53-0.1
		C132.05,230.22,137.71,229.17,139.23,224.06z"/>
	<path class="st26" d="M287.57,201.9l-0.19-0.31c0.19-0.91,0.64-1.64,1.44-2.14c1.1-0.54,2.26-0.67,3.46-0.53
		c4.35,1.2,3.26,3.97,1.74,6.6c-4.48,7.8-10.24,14.52-17.58,19.78c-2.76,1.97-5.5,3.97-8.26,5.94c-3.42-1.22-1.81-3.27-1-5.35
		c1.67-4.28,5.91-6.23,8.5-9.71C279.37,211.22,283.37,206.47,287.57,201.9z"/>
	<path class="st27" d="M128.66,196.67c4.82,11.73,1.54,20.76-9.13,27.32c-0.74,0.11-1.48,0.22-2.22,0.34
		c-0.69-4.29,3.43-7.34,3.01-11.56c0.44-5.67-1.95-10.26-5.54-14.39c-0.3-0.48-0.51-1-0.67-1.54c-1.39-4.18,0.81-5.27,4.31-4.56
		c3.18,0.65,6.24,1.84,7.18,5.55c-1.44,4.04,1.04,7.7,1.03,11.78c2.21-4.2-1.62-7.74-0.81-11.66c-0.03-0.59,0.13-1.1,0.51-1.55
		c0.85-0.41,1.65-0.38,2.37,0.29L128.66,196.67z"/>
	<path class="st28" d="M351.61,258.29c-1.45,1.73-3.25,3.25-3.42,5.74c-0.89,0.67-1.91,0.42-2.9,0.41c-2.17-0.07-3.9,1.13-5.73,2.03
		c-6.94,2.13-9.33,1.5-12.15-3.18c-0.24-1.73-1.88-3.38-0.09-5.59c2.47,3.1,4.95,5.63,9.63,4.19c4.97-1.54,9.09-4.13,12.52-7.79
		c5.84-6.23,7.73-14.34,10.06-22.21c3.62,3.4,0.57,7.19,0.42,10.75c-0.07,1.7-0.67,3.67-1.48,5.38c-1.38,0.86-0.67,2.3-0.96,3.47
		C354.64,252.97,355.42,257.61,351.61,258.29z"/>
	<path class="st29" d="M352.84,370.18c1.29,2.06,2.74,4.04,3.83,6.21c0.87,1.74,3.76,4.07,0.09,5.44c-2.77,1.04-7.64,2.56-8.31-1.46
		c-2.17-12.95-11.5-22.6-15-34.83c-0.05-0.18-0.06-0.37-0.08-0.56c-0.84-0.99-0.97-2.27-0.08-3c1.24-1.02,2,0.34,2.63,1.18
		c1.25,1.67,2.25,3.54,2.82,5.51c2.08,7.15,7.67,12.52,9.89,19.52C349.46,370.86,352.41,367.56,352.84,370.18z"/>
	<path class="st30" d="M193.68,366.82c0.11-27.17,0.2-54.34,0.36-81.52c0.01-2.2-0.76-4.59,0.95-6.58c0.81-0.27,1.34,0,1.59,0.82
		c0.14,20.13-0.2,40.26,0.18,60.38c-1.19,7.34,2.96,11.12,8.89,14.27c3.48,1.85,7.66,3.32,9.17,7.69c-0.21,0.87-0.75,1.47-1.54,1.84
		c-7.21-0.56-10.91-7.16-16.99-9.48c1.89,3.09,0.73,6.14-1.14,9.09c-0.04,1.51-0.08,3.03-0.12,4.54
		C193.96,368.27,193.62,367.79,193.68,366.82z"/>
	<path class="st31" d="M350.44,345.16c-4.22-6.81-8.53-13.56-12.57-20.47c-0.93-1.59-2.15-2.43-3.58-3.26
		c1.67-2.37,3.98-2.75,6.6-2.11c5.8,5.66,8.79,13.14,12.7,19.99c1.95,3.41,4.2,6.7,5.69,10.38c0.67,1.66,2.05,3.46-0.33,4.96
		c-1.77,0.3-2.47-0.97-3.24-2.16C353.96,350.04,353.68,346.53,350.44,345.16z"/>
	<path class="st32" d="M244.12,373.6c-2.63,0.09-5.27-0.13-7.35,2.14c-1.76,1.92-4.01,1.46-6.33,0.88
		c-10.4-2.57-19.76-7.31-28.56-13.27c-0.19-2.34,1.7-2.03,2.53-1.38c3.31,2.6,8.04,1.74,11.13,4.85c1.45,1.46,3.11,0.71,4.54-0.42
		c0.74-0.37,1.51-0.45,2.32-0.33c1.04,0.21,2.05,0.54,3.07,0.84c5.38,1.35,10.25,4.79,16.17,3.89
		C242.94,371.3,244.45,371.64,244.12,373.6z"/>
	<path class="st33" d="M124.02,271.91c-0.84,0.57-0.95,1.43-0.92,2.35c0.37,1.57-0.93,2.84-0.78,4.39c0.08,0.84-0.45,1.56-1.33,1.37
		c-1.12-0.24-2.04-0.88-1.88-1.41c0.37,1.19,1.13,3.31,0.19,5.41c-0.79,19.85-0.1,39.7-0.38,59.54c-0.03,2.02,0.67,4.16-0.65,6.06
		l-0.51,0.03c0,0-0.52-0.01-0.52-0.01c-0.07-24.1-0.16-48.2-0.21-72.3c-0.02-10.44,0.02-20.88,0.03-31.32
		c0.38-0.06,0.76-0.11,1.15-0.17c1.61,5.47,0.32,11.07,0.76,16.59c0.19,2.39-0.54,4.86,0.51,7.19
		C123.46,265.48,122.76,270.65,124.02,271.91z"/>
	<path class="st34" d="M335.59,236.63c-0.52-0.74-1.05-1.48-2.16-3.05c0.39,3.39-1.36,5.68-0.38,8.56c1.41,4.11-1.21,4.19-4.15,3.69
		c3.07-7.86,4.39-16.03,4.68-24.45c0.19-5.49,2.04-10.55,6.63-13.95c6.66-4.94,14.96-2.11,18.39,6.04c0.34,1.24,1.1,2.85-0.26,3.55
		c-1.61,0.83-2.05-1.06-2.67-2.07c-0.98-1.59-1.72-3.34-3.57-4.16c-6.09-3.1-12.2,0.15-13.49,7.32c-0.83,4.58-2.09,9.11-1.67,13.87
		C337.09,233.6,337.08,235.38,335.59,236.63z"/>
	<path class="st35" d="M244.12,373.6c-0.81-0.84-1.61-1.68-2.42-2.52c-1.17-2.43-0.18-4.58,0.9-6.71c2.13-1.69,4.67-2.3,7.28-2.71
		c0.57,0.05,1.07,0.26,1.5,0.65c0.65,3.89,2.78,5.77,6.89,5.37c1.83-0.18,3.76-0.13,5.41,1.04c0.61,0.68,0.83,1.49,0.82,2.38
		c-0.61,2.34-1.37,4.57-4.27,4.94C255.16,373.22,249.21,376.25,244.12,373.6z"/>
	<path class="st36" d="M234.84,152.21c-3.29-5.28-7.21-10.31-6.86-17.04c0.22,0,0.43-0.05,0.63-0.17c1.85-1.1,2.32,0.4,2.82,1.58
		c0.8,1.87,0.66,4.1,2.27,5.93c3.67-1.93,2.6-7.63,7-8.85c1.02,0.61,1.57,1.56,2.01,2.61c0.5,3.31,2.36,6.23,2.73,9.58
		c0.52,4.44-3.45,5.65-5.79,8.04c-0.37,0.37-0.8,0.67-1.28,0.9C236.44,154.98,236.03,153.07,234.84,152.21z"/>
	<path class="st3" d="M176.55,270.83c3.21-0.21,5.23-0.57,3.91-5.07c-0.97-3.29-1.25-7.34,0.62-10.86
		c3.75,3.48,1.53,8.87,4.08,12.67c1.33-0.4,1.33-4.47,3.88-1.42c0.63,2.13,0.81,4.17-0.98,5.88c-2.3,1.81,0.28,5.32-2.43,6.99
		c-5.05-0.09-10.1-0.12-15.14-0.31c-1.75-0.07-3.8,0.83-5.16-1.13c-0.05-2.94,2.18-2.61,3.98-2.6c3.49,0.02,6.97,0.13,11.22,0.03
		c-4.67-0.6-8.66,0.15-12.54-0.6c-1.83-0.35-4.17-0.82-1.65-3.42C169.73,270.93,173.14,270.88,176.55,270.83z"/>
	<path class="st37" d="M288.79,200.27c-0.47,0.44-0.95,0.88-1.42,1.32c-1.46-5.71-6.26-5.48-10.67-6.04
		c-14.85-1.9-26.56-8.3-32.58-22.8c-0.41-0.56-0.35-1.07,0.17-1.52c0.87-0.38,1.7-0.31,2.49,0.21
		c7.54,13.18,19.06,19.79,34.09,20.64c0.95,0.05,1.81,0.49,2.62,1c2.01,1.51,4.69,2.2,5.81,4.79
		C289.54,198.75,289.37,199.56,288.79,200.27z"/>
	<path class="st38" d="M220.12,367.02c-1.34,2.5-4.2,2.47-6.5,0.91c-3.5-2.36-7.35-4.31-11.75-4.58c-2.25-0.77-4.5-3.6-6.75,0
		c1.83-3.77-0.84-7.67,0.14-11.4c6.6,3.02,11.33,8.72,18.01,11.39c2.4-0.88,3.45,1.58,5.28,2.12
		C219.22,365.83,219.84,366.26,220.12,367.02z"/>
	<path class="st39" d="M352.84,370.18c-4.38-1.74-0.14,2.89-3.02,2.88c-3.21-7.73-8.9-14.59-12-22.91
		c-0.85-2.28-2.01-4.44-3.07-6.64c-0.29-0.6-0.7-1.6-1.28-0.2c-0.2,0.49-0.08,1.11-0.11,1.67c-1.91-3.22-3.68-6.5-4.61-10.16
		c3.46-2.9,5.5-1.9,6.37,2.32c2.24,3.58,3.54,7.63,5.76,11.21c3.29,5.45,6.14,11.13,8.53,17.04c0.66,1.63,0.79-0.55,1.27-0.16
		C351.89,366.67,352.52,368.36,352.84,370.18z"/>
	<path class="st40" d="M358.44,354.27c1.93-3.38-1.02-5.56-2.28-7.9c-4.76-8.87-9.91-17.53-14.91-26.27
		c-0.66-0.9-0.61-1.76,0.13-2.59c3.9,2.98,5.6,7.47,7.84,11.56c5.02,9.12,9.92,18.31,14.87,27.48c-0.49,1.91,0.86,5.53-2.82,4.74
		C357.95,360.56,356.51,357.77,358.44,354.27z"/>
	<path class="st41" d="M104.78,178.64c8.35-4.89,16.79-3.71,24.55,0.81c3.54,2.06,7.04,4.15,10.76,5.89
		c0.13,2.27-1.74,2.02-2.69,1.56c-4.53-2.24-9.24-1.01-13.88-1.11c-1.22-1.29,0.01-4.55-3.34-4.15c-3.49-0.72-7.03-0.21-10.52-0.56
		C107.81,180.88,105.37,181.5,104.78,178.64z"/>
	<path class="st42" d="M158.44,190.93c5.54,1.08,5.84-2.1,4.59-5.98c-0.58-1.81-2.39-3.41,0.89-4.23c1.62,4.93,3.24,9.85,4.86,14.78
		c-2.56,1.76-0.31,4.03-0.65,6.51c-2.15-0.61-4.21-0.19-6.26,0.36c-0.88-0.54-1.13-1.38-1.15-2.34
		C160.96,196.75,159.61,193.86,158.44,190.93z"/>
	<path class="st43" d="M341.18,166.81c-6.21,3.63-11.23,8.28-15.05,14.59c-3.42,5.66-10.43,6.58-15.87,9.55
		c-2.37,1.29-4.99,2.22-4.4,5.71c-2.89-0.2-2.17-2.37-2.26-4.1c0.66-2.89,3.03-4.19,5.27-5.6c7.23-2.16,13.78-5.31,17.66-12.28
		c1.23-1.59,1.95-3.57,3.6-4.85c1.01-0.66,2-1.36,2.81-2.29c0.73-0.72,1.56-1.26,2.52-1.62c1.48-0.51,2.93-1.15,4.56-0.84
		C340.82,165.39,341.45,165.8,341.18,166.81z"/>
	<path class="st44" d="M292.96,329.02c0.81,3.08,1.63,6.17,2.44,9.25c-1.13,3.28,0.41,6.27,1.14,9.32c0.39,1.62,1.44,3.09,0.75,4.86
		c-2.74,2.55-4.01,0.54-4.89-1.74c-0.57-1.5-0.29-3.26-1.06-5.06c0.4,1.36,0.54,2.41-0.51,3.24c-1.46-6.23-2.92-12.45-4.38-18.68
		c1.6-1.13,2.64-4.36,5.34-1.47C292.22,328.66,292.61,328.77,292.96,329.02z"/>
	<path class="st45" d="M334.57,306.31c1.89,0.22,2.38,6.71,5.55,1.24c0.07,1.43,0.14,2.85,0.21,4.28c-2.23,1.53-0.44,6.1-4.65,6.13
		c-1.72-4.62-3.12-9.58-9.58-9.4c-6.03-3.03-12.56-1.26-18.83-2c-0.95-0.14-1.82-0.48-2.54-1.14c1.86-4.87,6.64-3.12,10.07-4.46
		c6.1,0.13,12.16,1.57,18.29,0.49C334.6,302.76,333.45,304.88,334.57,306.31z"/>
	<path class="st46" d="M260.22,376.04c1.16-1.57,2.31-3.13,3.47-4.7c1.51-1.57,3.16-2.85,3.66-5.35c0.46-2.26,2.25-3.03,4.01-0.6
		c0.83,2.19,0.37,4.23-0.68,6.2c-0.09,2.04-0.02,4.09-0.31,6.1c-0.65,4.53-4.07,3.95-7.28,3.79
		C258.99,381.27,259.41,378.79,260.22,376.04z"/>
	<path class="st47" d="M345.72,117.89c1.43,7.99,0.96,16,0.21,24c-0.13,0.28-0.26,0.56-0.39,0.84c-1.85,1.69-3.75,1.95-5.72,0.18
		c-0.27-3.49,1.77-6.74,1.09-10.28c0.67-4.76-1.58-9.62,0.48-14.33C342.7,116.84,344.02,115.3,345.72,117.89z"/>
	<path class="st48" d="M292.15,328.93c-0.02,0.19-0.04,0.37-0.06,0.56c-2.11-1.57-3.61,1.61-5.63,0.72
		c-0.49-1.38-0.13-3.3-1.73-3.96c-1.01-0.42-1.33,1.08-1.95,1.74c-0.69,0.67-1.37,0.65-2.05-0.01c-1.3-2.98-3.84-4.12-6.83-4.6
		c-2.43-0.33-3.94-1.71-4.64-4.03c-0.18-2.86-0.61-5.89,3.77-5.77c3.45,6.53,9.55,8.33,16.26,9.06
		C292.44,323.74,293.98,325.58,292.15,328.93z"/>
	<path class="st49" d="M306.94,86.15c7.61,2.68,13.81,7.41,19.06,13.56c2.61-2.62,0.23-5.28,0.77-7.82
		c2.91,0.28,3.94,2.48,4.43,4.55c0.75,3.22,2.77,3.61,5.43,3.37c0.38,1.75-1.02,2.03-2.12,2.56c-1.25,0.2-2.41-0.37-3.63-0.42
		c-2.34,0.56-4.58,2.52-7.1,0.53c-4.67-3.92-8.88-8.43-14.48-11.13c-1.79-1.03-4.03-1.48-4.84-3.76
		C304.71,86.13,306.18,86.76,306.94,86.15z"/>
	<path class="st50" d="M280.74,327.97c0.68,0,1.36,0.01,2.05,0.01c-1.98,5.33,1.21,11.56-3.04,16.58c-0.81,0.96,0.49,2.41,1.38,3.39
		c1.75,1.93,1.6,4.04,0.6,6.23c-0.95-1.55-1.9-3.09-2.96-4.82c-0.13,0.73-0.24,1.26-0.31,1.79c-0.17,1.42,0.18,3.59-1.93,3.32
		c-1.85-0.24-1.87-2.44-1.25-3.75c3.25-6.87,2.06-14.79,5.27-21.64C280.7,328.75,280.68,328.34,280.74,327.97z"/>
	<path class="st51" d="M104.78,178.64c3.53,1.86,7.34,0.61,11.01,0.91c2.06,0.16,4.13,0.03,5.99,1.15c0.28,3.64-2.72,3.92-5.04,4.72
		c-1.91,0.66-3.9,1.21-5.97,1.13c-1.54-0.07-2.94-0.62-4.32-1.25c-2.58-1.57-6.84-0.02-7.97-4.28l0.45-0.3
		C101.22,180.98,102.39,178.1,104.78,178.64z"/>
	<path class="st52" d="M227.01,247.91c0.37,2-1.46,5.05,2.59,5.39c0.18,0.01-0.47,1.25-1.13,1.66c-2.82,2.13-3.32-2.62-5.56-1.84
		c-0.76-0.43-0.55,1.02-0.21,0.34c0.16-0.32,0.3-0.27,0.5-0.24c1.06,0.17,1.89,1.56,1.24,1.61c-4.91,0.35-3.88,5.87-7.01,7.6
		c-1.21,0.41-2.33,0.35-3.33-0.53c-4.05-3.19-1.31-6.86-0.73-10.38c3.65-1.65,8.22-0.24,11.41-3.41
		C225.51,248.05,226.26,247.98,227.01,247.91z"/>
	<path class="st53" d="M304.71,192.21c0.06,1.57-0.62,3.33,1.16,4.45c0.45,4.25,5.78,5.85,5.68,10.4c0,0-0.56-0.01-0.56-0.01
		l-0.55,0.03c-1.81,0.4-2.61-1.09-3.74-1.98c-1.06-1.23-1.52-2.97-3.16-3.7c-1.37-0.61-2.8-0.92-4.29-0.95
		c-2.39,0.57-4.63-1.68-7.05-0.34c-1.13,0.05-2.27,0.11-3.4,0.16c-0.04-0.82-0.08-1.63-0.12-2.45c0.33-0.42,0.74-0.73,1.22-0.95
		c2.82-0.91,6.55-0.32,7.42-4.48C299.76,191.25,302.2,189.98,304.71,192.21z"/>
	<path class="st54" d="M290.83,348.88c0.12-1.66,0.25-3.32,0.37-4.98c0.19-0.03,0.38-0.05,0.56-0.08c0.54,2.14,0.99,4.31,1.65,6.41
		c0.49,1.57,0.9,3.75,3.34,1.71c0.61-0.61,0.93-1.77,2.19-1.13c0.44,1.76,0.6,3.66,2.35,4.78c1.44,4.28-3.17,3.67-4.58,5.65
		c-4,1.12-5.54-1-5.77-4.55C290.77,354.1,290.86,351.49,290.83,348.88z"/>
	<path class="st55" d="M358.47,248.02c0.25-5.38,2.4-10.64,1.06-16.13c0.05-3.81,0.1-7.61,0.14-11.41c7.09,1.7,6.09,6.14,4.08,11.27
		C361.67,237.06,361.14,242.89,358.47,248.02z"/>
	<path class="st56" d="M287.57,201.9c-4.5,7.39-10.04,13.94-16.09,20.11c-2.37,2.42-5.54,4.75-3.34,8.95
		c0.64,0.5,0.86,1.18,0.88,1.96c-0.06,0.5-0.23,0.96-0.51,1.39c-0.44,0.33-0.87,0.32-1.3-0.02c-3.51-4.08-2.62-7.79,0.74-11.51
		c5.54-6.17,10.96-12.46,16.4-18.72C285.23,203.02,286.2,202.19,287.57,201.9z"/>
	<path class="st57" d="M267.2,234.29c0.3,0.03,0.6,0.07,0.89,0.11c0.68,0.53,0.91,1.25,0.91,2.08c-1.34,3.07-2.86,6.03-5.49,8.25
		c-5.45-1.19-10.37,1.45-15.49,2.39c-4.74,0.87-8.83-0.1-13.14-1.7c1.01-1.41,2.41-0.5,3.54-0.81
		C248.28,247.77,260.49,243.39,267.2,234.29z"/>
	<path class="st58" d="M352.69,209.31c2.98,1.3,3.93,4.1,4.92,6.94c1.45-0.7,0.6-1.95,0.98-2.79c1.28,1.43,1.25,3.13,1.03,4.87
		c-2.97,4.21,0.52,9.53-2.35,13.76c-2.42,1.22-3.21-0.58-3.42-2.23c-0.82-6.29,0.02-12.78-2.45-18.88
		C351.14,210.34,352.05,209.73,352.69,209.31z"/>
	<path class="st59" d="M193.68,366.82c0.44,0.36,0.88,0.72,1.32,1.08c0.97,2.64,3.95,5.95,0.45,7.87
		c-3.33,1.83-8.04,3.38-11.48,0.13c-3.66-3.46,0.76-6.14,1.94-9.09c3.66,0.21,1.46,5.17,4.7,5.76c3.08-1.04-2.25-5.2,2.11-5.78
		C193.03,366.79,193.35,366.81,193.68,366.82z"/>
	<path class="st60" d="M166.32,270.98c-0.94,2.6,0.9,2.23,2.39,2.23c4.33-0.01,8.66-0.04,12.99-0.01c1.11,0.01,2.51-0.01,2.63,1.46
		c0.16,1.95-1.49,1.85-2.77,1.85c-4.33,0-8.66,0.1-12.97-0.21c-1.53-0.11-2.53-0.06-3.28,1.27
		C164.64,275.22,162.8,272.69,166.32,270.98z"/>
	<path class="st61" d="M270.69,371.59c-0.09-2.37-0.18-4.74-0.27-7.11c-1.72-3.63,2.5-2.87,3.38-4.58c1.34-1.11,2.52-2.7,4.62-1.55
		c-0.27,0.48-0.85,1.03-0.77,1.44C278.92,365.86,276.27,369.57,270.69,371.59z"/>
	<path class="st62" d="M198.28,270.73c0.17-0.73,0.25-2.04,0.54-2.09c4.08-0.66,7.23-3.4,10.98-4.76c2.99-1.37,5.43,1.38,8.28,1.11
		c1.62,1.77,3.87,3.2,3.25,6.15c-0.68,0.53-1.47,0.71-2.32,0.66c-3.77-1.35-7.72-1.49-11.66-1.74c-1.31-0.01-2.63,0.03-3.93,0.18
		C201.7,270.23,200.18,272.58,198.28,270.73z"/>
	<path class="st63" d="M292.15,328.93c0.6-2.87-1.11-4.33-3.36-5.45c2.08-2.09,4.55-1.63,7.04-1.08c3.75,2.31,7.72,0.56,11.61,0.6
		c4.09-0.04,8.18-0.21,12.25,0.08c1.79,0.13,4.39-0.43,4.43,2.76c-9.21,0.24-18.42,0.51-27.64,0.7c-1.83,0.04-3.43,0.11-3.51,2.49
		c0,0-0.42,0.01-0.42,0.01L292.15,328.93z"/>
	<path class="st64" d="M122.99,185.29c5.71-3.07,11.4,0.05,17.09,0.05c0.79,0.02,1.58,0.05,2.36,0.07c-0.75,1.13-1.5,2.26-2.25,3.4
		c-5.95,0.68-11.52-1.27-17.2-2.44c-0.98,0.74-2.02,0.96-3.05,0.15c-0.5-0.39-0.48-0.99,0.01-1.37
		C120.97,184.34,122.01,184.52,122.99,185.29z"/>
	<path class="st55" d="M351.61,258.29c1.83-2.38,2.23-6,5.89-6.8c-2.2,8.25-3.18,16.89-7.92,24.32c-0.79-4.79,1.72-9,2.44-13.52
		C352.26,260.83,353.22,259.49,351.61,258.29z"/>
	<path class="st65" d="M142.42,176.12c0.38-0.39,0.77-0.78,1.14-1.19c1.64-1.83-0.63-6.13,3.05-6.01c1.09,0.04,2.17,4.39,3,6.85
		c0.52,1.54,0.57,3.25,0.83,4.88c-1.16,1.05-2.33,0.93-3.52,0.04c-1.53-0.86-2.24-0.3-2.33,1.34
		C143.06,180.37,142.43,178.36,142.42,176.12z"/>
	<path class="st66" d="M341.18,166.81c-0.35-0.32-0.69-0.64-1.04-0.97c-0.59-1.52,0.33-2.55,1.29-3.41
		c5.53-4.92,5.89-10.83,3.43-17.32c-0.12-1.23,0.39-2.28,0.89-3.34c0,0,0.17,0.13,0.17,0.13
		C352.88,149.21,350.34,162.52,341.18,166.81z"/>
	<path class="st67" d="M324.11,325.83c-5.91-2.7-12.19-0.53-18.24-1.39c-0.34-0.59-0.24-1.11,0.29-1.54
		c1.51-0.97,3.23-0.95,4.93-0.94c5.85,0.04,11.69,0.21,17.27-2.12c1.36-0.57,2.95-0.68,4.38,0.18c0.5,0.37,0.79,0.86,0.9,1.47
		c-0.41,1.64-2.62,2.23-2.45,4.2c-0.62,0.58-1.3,1.06-2.12,1.31c-1.36,0.37-2.73,0.69-4.1,0.04
		C324.68,326.64,324.4,326.24,324.11,325.83z"/>
	<path class="st68" d="M342.87,298.53c-1.85-1.09-1.78-2.69-1.13-4.4c2.39-6.31,4.64-12.68,7.95-18.61
		C348.98,283.66,346.74,291.34,342.87,298.53z"/>
	<path class="st69" d="M330.99,100.85c1.2,0.34,2.39,0.69,3.59,1.03c2,0.1,1.68,1.38,1.36,2.66c0.79,4.62,5.33,6.27,7.73,9.65
		c0.85,1.2,2.04,2.08,2.06,3.7c-1.11-0.79-2.21-0.6-3.31,0.01c-2.1-1-3.45-2.9-5.19-4.33c-3.2-2.87-4.88-6.71-6.69-10.47
		C330.31,102.28,330.39,101.51,330.99,100.85z"/>
	<path class="st70" d="M358.44,354.27c0.04,0.55-0.01,1.13,0.13,1.66c0.46,1.79,0.85,4.14,2.75,4.5c2.83,0.53,0.85-3.24,2.77-3.89
		c1.36,1.68,2.72,3.37,4.32,5.35c-3.02,0.36-5.83,0.31-8.38,1.1c-3.02,0.93-4.01-0.49-3.85-2.84c0.17-2.51-0.85-4.67-1.17-7.01
		c-0.45-1.23,0.13-1.45,1.18-1.21C356.94,352.71,357.69,353.49,358.44,354.27z"/>
	<path class="st21" d="M121.66,212.36c0.35,4.64-2.21,8.22-4.35,11.96c-0.4,0.31-0.79,0.61-1.19,0.92c-2.4-2.16,0.08-5.02-1.1-7.36
		c-0.35-0.71-0.7-1.42-1.01-2.14c-0.81-2.04-1.38-4.13-1.69-6.3c-0.14-1.9-1.19-3.8-0.03-5.7c0.79-0.71,1.5-0.37,2.18,0.19
		c2.46,2.37,1.72,6.24,4.06,8.65C119.56,212.24,120.57,211.65,121.66,212.36z"/>
	<path class="st71" d="M192.71,366.78c-1.92,1.57,0.05,2.53,0.58,3.73c0.65,1.45,1.02,3.15-0.63,3.9c-1.72,0.78-3.5,0.62-4.83-1.39
		c-1.29-1.95,0.06-4.58-1.92-6.22c0.02-0.77,0.03-1.55,0.05-2.32c0.75,0.36,1.49,0.72,2.24,1.08c0.93-0.93,2.05-1.28,3.35-1.04
		C192.49,364.99,192.67,365.85,192.71,366.78z"/>
	<path class="st54" d="M350.68,365.24c-0.3,1.96-0.98,2.45-2.02,0.42c-2.89-5.66-5.73-11.35-8.58-17.03
		c-0.34-1.16,0.2-1.45,1.24-1.24C345.93,352.55,347.98,359.07,350.68,365.24z"/>
	<path class="st72" d="M122.97,364.39c0.74-1.07,1.48-2.14,2.21-3.21c0.08,1.43,0.15,2.85,0.23,4.28c0.48,1.06,0.85,2.58,0.13,3.16
		c-3.17,2.57-5.31,6.51-9.69,7.51c-2.65-1.45-0.98-3.37-0.56-5.15C119.23,370.38,120.11,366.23,122.97,364.39z"/>
	<path class="st73" d="M115.85,376.13c2.23-4.42,7.94-5.72,9.57-10.67c0.18,2.48,3.73,3.07,3.31,5.88
		c-3.38,0.94-4.89,4.51-8.05,5.75C118.88,377.67,117.32,377.14,115.85,376.13z"/>
	<path class="st74" d="M114.81,216.09c0.43,0.38,0.86,0.76,1.3,1.13c0.38,4.57-1.71,8.15-4.61,11.4c-1.51,1.66-3.46,2.21-5.62,2.22
		c0.69-1.02,1.38-2.05,2.07-3.07c2.16-2.5,2.32-5.61,2.64-8.68c0.16-0.52,0.4-1,0.71-1.45C112.25,216.62,113.2,215.61,114.81,216.09
		z"/>
	<path class="st75" d="M298.94,350.82c-0.73,0.38-1.46,0.75-2.19,1.13c-1.06-3.29-2.18-6.56-3.16-9.87
		c-0.5-1.69-0.63-3.41,1.81-3.81C297.95,342.06,298.24,346.5,298.94,350.82z"/>
	<path class="st67" d="M335.6,317.52c3.36-0.42,0.86-5.7,4.73-5.7c0.35,1.89,0.69,3.78,1.04,5.67c-0.04,0.86-0.08,1.73-0.12,2.59
		c-2.32,0.44-4.65,0.89-6.97,1.33c0,0-0.31,0.14-0.31,0.14s-0.33-0.07-0.34-0.07c0,0-0.31-0.36-0.31-0.36
		C331.95,318.59,333.64,317.97,335.6,317.52z"/>
	<path class="st76" d="M328.71,325.72c0.83-0.01,1.65-0.01,2.48-0.02c1.91,3.63,4.44,7.01,4.56,11.36
		c-0.41,0.49-0.83,0.51-1.26,0.04c-0.6-4.05-3.71-1.79-5.73-2.27c-0.79-0.88-1.53-1.77-1.37-3.07
		C328.59,329.91,328.71,327.83,328.71,325.72z"/>
	<path class="st77" d="M224.77,248.12c-2.32,6.08-7.2,3.66-11.41,3.41C216.45,248.04,220.47,247.61,224.77,248.12z"/>
	<path class="st78" d="M335.94,104.54c-0.45-0.89-0.91-1.77-1.36-2.66c0.68-0.69,1.36-1.38,2.04-2.07c2.29-2.19,4.84-0.9,8.42-0.6
		C341.46,101.3,338.7,102.92,335.94,104.54z"/>
	<path class="st79" d="M238.28,165.93c-0.81-0.61-1.02-1.45-0.95-2.4c1.5-2.88-0.46-6.2,1.13-9.07l0.04-0.06
		c4.86-0.42,4.26,3.21,4.59,6.16c-0.2,1.52-0.76,2.89-1.7,4.12C240.57,165.59,239.51,165.98,238.28,165.93z"/>
	<path class="st80" d="M120.67,377.09c2.62-2,3.07-7.05,8.05-5.75C130.33,379.25,123.32,375.13,120.67,377.09z"/>
	<path class="st81" d="M321.77,227.48c-5.48-1.98-5.64-6.62-5.67-11.32C318.1,219.88,322.03,222.63,321.77,227.48z"/>
	<path class="st54" d="M334.49,337.1c0.42-0.01,0.84-0.02,1.26-0.04c2.9,2.88,4.43,6.5,5.56,10.32c-0.41,0.41-0.82,0.82-1.24,1.24
		C336.72,345.5,336.42,340.9,334.49,337.1z"/>
	<path class="st82" d="M217.68,264.92c-1,1.43-1.78,4.68-3.68,0.74c-1-2.06-2.83-1.16-4.21-1.78c1.08-1.43,3.42-0.1,4.29-1.98
		c1.32-0.11,2.64-0.23,3.96-0.34c0.77-0.5,1.5-0.37,2.19,0.16c0.53,0.7,0.61,1.45,0.3,2.25
		C219.79,264.93,218.82,265.17,217.68,264.92z"/>
	<path class="st17" d="M110.41,241.06c1.41,0.84,2.87,1.49,4.58,1.17c1.25-0.43,1.88,0.23,2.26,1.3c-0.03,0.79-0.07,1.58-0.1,2.38
		C109.52,245.58,109.52,245.58,110.41,241.06z"/>
	<path class="st39" d="M328.71,325.72c1.06,1.94,2.12,3.89,3.11,5.7c-1.58,2.24-3.06-2.07-4.44,0.33c-0.8-1.57-1.61-3.13-2.41-4.7
		C326.22,326.61,327.46,326.16,328.71,325.72z"/>
	<path class="st83" d="M306.94,86.15c-0.79,0.31-1.59,0.62-2.38,0.93c-4.64,0.89-8.97,0.63-12.33-3.29c2.29-0.07,4.58-0.13,6.87-0.2
		C301.93,83.76,304.39,85.1,306.94,86.15z"/>
	<path class="st84" d="M238.28,165.93c0.5-0.99,1.41-1.2,2.4-1.23c1.78,0.4,2.7,1.58,2.96,3.33c-1.95,1.47,0.92,2.25,0.51,3.5
		c-0.01,0.41-0.02,0.81-0.03,1.22C240.44,171.96,239.17,169.11,238.28,165.93z"/>
	<path class="st42" d="M163.02,208.1c5.48,1.15-0.67-3.73,2.47-3.93c4.94,3.19-0.68,6.54-0.3,9.83
		C163.75,212.29,163.51,210.15,163.02,208.1z"/>
	<path class="st40" d="M356.19,351.93c-0.39,0.4-0.79,0.81-1.18,1.21c-2.06-2.35-3.47-5.08-4.57-7.97c0.23-1.32,0.83-2.49,1.89-0.73
		C353.79,346.82,355.99,348.88,356.19,351.93z"/>
	<path class="st27" d="M111.5,228.62c1.54-3.8,3.07-7.6,4.61-11.4c2.54,2.67-1.14,5.34,0.01,8.01
		C114.58,226.37,113.04,227.5,111.5,228.62z"/>
	<path class="st85" d="M198.28,270.73c2.08,0.61,2.55-2.45,4.55-2.01c1.48,1.65,0.34,2.87-0.67,4.12c-2.25,1.74-4.58,2.19-7.05,0.44
		c-1.3-0.81-1.29-1.62,0-2.43C196.17,270.81,197.23,270.77,198.28,270.73z"/>
	<path class="st86" d="M296.71,361.25c0.54-2.68,4.13-2.9,4.58-5.65c1.08,1.4,3.11,2.95,1.66,4.66
		C301.49,361.97,298.92,361.58,296.71,361.25z"/>
	<path class="st87" d="M238.46,154.46c-0.53,3.01,1.11,6.28-1.13,9.07c0.09-3.97-0.03-7.9-2.49-11.31
		C236.05,152.96,237.26,153.71,238.46,154.46z"/>
	<path class="st27" d="M121.88,223.99c4.16-1.62,8.32-1.62,12.47-0.01C130.19,224.71,126.03,224.25,121.88,223.99z"/>
	<path class="st88" d="M295.58,243.48c4.56-5.51,9.08-11.06,13.73-16.5c0.82-0.97,1.2-3.36,3.29-2.08c1.49,0.91,2.21,2.66,2.25,4.39
		c0.23,9.09,3.25,17.84,3.03,27.07c-0.07,2.97-1.22,5.86-0.59,8.83c-3.73,2.35-8.11,3.03-12.16,4.55c-4.53,1.69-8.44-1.8-6.83-6.36
		C300.88,256.05,299.42,249.71,295.58,243.48z"/>
	<path class="st89" d="M295.58,243.48c5.6,4.49,7.41,10.91,4.86,17.61c-0.86,2.27-2.53,4.49-0.22,6.76c2.55,2.51,4.87,0.5,7.22-0.57
		c3.13-1.42,6.35-2.45,9.86-2.09c-0.66,2.74-0.94,5.78-3.63,7.4c-2.45,1.47,1.35,3.82-0.97,5.13c-0.88,1.66-2.35,2.58-4.05,3.22
		c-0.59,0.17-1.2,0.25-1.82,0.27c-5.83,0.14-11.64,0.71-17.47,0.39c-2.2-0.12-4.59,0.34-6.31-1.65c5.87-3.71,5.49-9.25,4.47-15.02
		c-0.2-1.11-0.06-2.35,0.43-3.35c2.28-4.67,0.94-8.79-1.74-12.75c0.07-0.27,0.14-0.54,0.21-0.8
		C290.53,248.64,292.15,244.23,295.58,243.48z"/>
	<path class="st90" d="M333.19,301.88c-1.04,0.63-1.12,2.45-2.96,2.16c-4.98-0.78-9.98-1.46-14.98-2.18
		c-0.03-0.92,0.41-1.61,1.08-2.19c7.01-3.86,7.94-10.34,7.49-17.41c0.65-3.06-1.62-5.92-0.61-9c1.99-3.08,3.09-6.46,3.45-10.09
		c0.24,0.04,0.49,0.08,0.73,0.11c3.77,3.64,8.15,3,12.61,1.81c1.69-0.9,2.98-0.27,4.07,1.08c1.47,3.79-1.33,6.71-2.06,10.05
		c-0.48,2.16-2.03,3.98-1.99,6.31C337.71,288.97,337.44,296.13,333.19,301.88z"/>
	<path class="st91" d="M307.04,204.66c1.82-0.15,2.25,1.65,3.41,2.42c-2.44,15.07-8.69,27.04-25.05,30.86
		c-2.23,0.52-3.21,3.37-5.82,3.28c-2.13,0.69-3.39-0.35-4.27-2.15c-0.86-4.69,2.57-6.38,5.86-7.79
		c10.68-4.59,16.81-13.48,22.33-23.01C304.37,206.76,304.36,204.4,307.04,204.66z"/>
	<path class="st92" d="M323.22,273.27c1.01,2.88,2.47,5.67,1.85,8.9c-3.07-3.34-6.49-1.83-9.9-0.72c-2.12,0.06-4.28,0.3-5.96-1.43
		c0.73-1.41,1.97-2.07,3.48-2.31C317.15,278.46,319.02,273.11,323.22,273.27z"/>
	<path class="st93" d="M276.16,238.89c1.14,0.78,2.27,1.56,3.41,2.33c1.21,3.34,6.7,2.37,6.84,6.78c0,0,0.05,0.12,0.05,0.12
		c-2.39,1.8-4.1,0.14-5.9-1.12c-1.2-1.01-2.59-1.75-3.9-2.61c-1.46-1.16-2.57-2.61-3.37-4.29c-0.22-0.81-0.16-1.58,0.31-2.29
		C274.94,237.02,275.49,238.1,276.16,238.89z"/>
	<path class="st94" d="M191.54,364.52c-0.84,1.23-2.04,1.3-3.35,1.05c-0.04-31.18-0.09-62.36-0.13-93.54
		c0.02-2.28,0.04-4.56,0.06-6.84c-1.31-2.67-2.1-5.34,0-8c0.01-2.66-0.02-5.32,0.04-7.98c0.03-1.28-0.22-3.02,1.63-3.09
		c1.9-0.07,1.69,1.67,1.75,2.95c0.38,8.51,0.77,17.11,0.48,25.52C190.98,304.58,192.01,334.55,191.54,364.52z"/>
	<path class="st95" d="M117.24,243.52c-0.75-0.43-1.51-0.86-2.26-1.3c11.84-2.12,23.81-2.53,35.77-1.99
		c7.36,0.34,14.68,0.32,22.04,0.01c9.65-0.4,19.34-0.1,29.01-0.11c-10.92,4.46-22.27,3.46-33.58,2.55
		c-4.35-0.35-8.72-0.89-12.97,0.21c-2.2,0.57-4.07,0.47-6-0.53c-5.7,0.86-11.41,0.85-17.11,0
		C127.13,242.19,122.29,244.19,117.24,243.52z"/>
	<path class="st96" d="M195.12,273.28c2.3-0.1,4.64,0,6.73-1.23c1.92-1.4,3.64-0.42,5.38,0.43c1.98,3.44,3.84,2.17,5.67-0.16
		c3.05-1.24,6.37,0.18,9.44-0.94c2.76,0.12,4.26,2.19,6.04,3.84c4.35,1.88,8.91,0.6,13.36,0.92c5.41,0.39,10.89-0.7,16.27,0.73
		c0.71,0.35,1.08,0.91,1.12,1.7c-1.58,2.16-3.98,2.12-6.22,2.09c-17.13-0.27-34.25-0.06-51.38-0.14c-1.88-0.01-3.85,0.03-5.39-1.4
		c-0.38-0.13-0.77-0.26-1.15-0.38c3.12-2.34,6.87-0.25,10.25-1.31C202.74,273.57,196.42,279.7,195.12,273.28z"/>
	<path class="st97" d="M185.49,270.78c-2.82-0.18-2.33-2.51-2.63-4.21c-0.67-3.88-1.2-7.78-1.78-11.67c-0.3-3.04-0.6-6.07-0.89-9.11
		c1.9-0.62,3.79-0.57,5.69,0C186.25,254.13,188.28,262.49,185.49,270.78z"/>
	<path class="st22" d="M185.49,270.78c0.13-8.33,0.26-16.66,0.39-24.99c2.95,3.36-0.65,8.01,2.24,11.39c-0.51,2.67,1.13,5.34,0,8
		C185.9,266.42,188.28,269.81,185.49,270.78z"/>
	<path class="st24" d="M119.47,269.63c-2.43-4.96-0.56-10.24-1.08-15.35c-0.28-2.79-0.14-5.62-0.19-8.43
		c0.48-0.01,0.95-0.03,1.43-0.04C119.58,253.76,119.53,261.7,119.47,269.63z"/>
	<path class="st24" d="M132.14,242.38c5.7,0,11.41,0,17.11,0C143.55,244.19,137.84,244.18,132.14,242.38z"/>
	<path class="st24" d="M122.98,260.61c0.01-4.18,0.03-8.36,0.04-12.54C124.77,252.26,124.84,256.44,122.98,260.61z"/>
	<path class="st98" d="M146.93,180.7c1.17-0.01,2.34-0.03,3.52-0.04c0.19,0.03,0.39,0.02,0.56,0.09c4.28,1.77,4.26,5.42,3.72,9.08
		c-0.25,1.71-1.97,2.7-3.49,2.12c-3.48-1.32-4.41-4.35-4.29-7.82C146.98,182.98,146.93,181.84,146.93,180.7z"/>
	<path class="st99" d="M143.46,216.04c-2.27-6.18-0.54-12.59-1.02-18.87c-0.19-2.43-0.04-4.89-0.04-7.34c0.33,0.01,0.67,0.01,1,0.01
		C143.86,198.58,144.09,207.31,143.46,216.04z"/>
	<path class="st100" d="M160.72,200.03c0.9,0.53,1.09,1.4,1.15,2.34c0.16,0.99,1.42,1.95,0.32,2.94c-0.45,0.4-1.49,0.62-2.02,0.38
		c-2.12-0.96,1.24-1.67,0.2-2.86C159.63,202,159.5,200.83,160.72,200.03z"/>
	<path class="st101" d="M352.69,209.31c3.37,6.76,1.92,14.08,2.51,21.17c0.09,1.06,1.11,1.42,2.08,1.61
		c-0.72,1.21-2.76,1.81-1.98,3.7c1.23,3.03,0.23,4.62-2.91,5.15c-0.51,0.09-1,0.54-1.39,0.93c-1.34,1.34,0.63,5.21-2.59,4.64
		c-3.18-0.56-6.52-1.71-9.01-4.31c-1.6-1.67-2.86-3.49-3.8-5.57c-0.11-6.37,0.13-12.71,0.85-19.04
		C337.25,210.51,346.5,205.75,352.69,209.31z"/>
	<path class="st102" d="M84.13,197.89c0.34,2.28-0.34,4.49-2.38,6.29c-4.03,3.56-5.12,8.13-4.52,13.3c0.12,1.06,1.34,2.84-1.04,3.01
		c-2.1,0.15-2.38-1.4-2.38-3.05c0-1.7,0.04-3.41-0.02-5.11c-0.17-4.7,0.09-9.38-0.78-14.12c-0.48-2.61-2.51-7.21,3.7-7.31
		C83.36,190.81,84.17,191.33,84.13,197.89z"/>
	<path class="st103" d="M122.99,185.29c-0.83,0.09-1.65,0.18-2.48,0.27c0,0.17,0,0.34,0,0.51c0.83,0.1,1.66,0.2,2.49,0.3
		c0,0.43-0.01,0.87-0.01,1.3c-1.18,1.34-2.75,0.94-3.85,1c3.59,1.26,6.41,3.68,7.32,7.93c-0.04,0.48-0.07,0.95-0.11,1.43
		c-0.4,0.39-0.73,0.32-1.01-0.15c-1.89-2.15-4.24-3.59-6.95-4.46c-3.16-1.01-3.73,0.68-3.45,3.28c-4.14,0.32-7.28-3.88-11.79-2.51
		c-0.05,1.81,4.27,1.43,2.29,4.2c-4.62,1.55-9.36-1.5-13.96,0.42c-1.44,0.6-2.88,1.19-3.96,2.39c-0.28,0.11-0.57,0.2-0.86,0.28
		c-0.72-3.35-0.23-4.1,4.59-5.86c2.87-1.05,5.79-1.84,5.45-5.81c-0.3-0.31-0.4-0.61-0.29-0.91c0.11-0.3,0.22-0.44,0.32-0.45
		c3.24-0.64,6.44-0.1,9.55,0.64c3.59,0.85,4.37-0.8,4.08-3.83c4.1-0.8,8.65-0.49,11.44-4.56
		C126.52,181.08,124.09,183.36,122.99,185.29z"/>
	<path class="st104" d="M96.67,188.71c0,0.36,0.01,0.73,0.02,1.09c-0.17-0.08-0.45-0.11-0.5-0.23c-1.73-4.41-3.94-6.05-7.63-0.45
		c0.75-3.53,1.98-5.33,5.05-4.99c2.49,0.27,3.78-1.24,4.87-3.11c2.07,3.15,6.18,0.76,8.54,3.15
		C103.9,186.45,99.17,185.06,96.67,188.71z"/>
	<path class="st105" d="M80.53,211.41c-0.02,2.37-0.04,4.74-0.07,7.12C77.36,216.12,77.28,213.75,80.53,211.41z"/>
	<path class="st106" d="M78.84,187.21c2.32-1.61,3.87-2.8,5.79-1.26c0.2,0.16,0.28,0.86,0.12,1
		C83.06,188.57,81.21,187.43,78.84,187.21z"/>
	<path class="st107" d="M273.95,239.95c1.12,1.18,2.23,2.35,3.35,3.53c1.98,3.23-0.24,4.83-2.57,6.2c-3.05,1.79-6.31,3.27-8.51,6.21
		c-2.14,2.33-4.92,2.88-7.9,2.86c-3.95,0.29-7.92-0.17-11.85,0.81c-1.99,0.49-4.17,0.51-5.78-1.31c5.43-2.7,10.92-5.3,16.27-8.16
		c2.49-1.33,6.19-1.39,6.56-5.36c-0.58-3.98,3.49-5.32,4.72-8.28C271.44,235.49,272.81,237.54,273.95,239.95z"/>
	<path class="st108" d="M240.68,258.24c6.16,0.28,12.18-1.9,18.37-1.03c3.09,2.23,5.7-1.63,8.69-0.69c0.51,0.27,0.9,0.66,1.19,1.15
		c1.86,4.08-1.63,9.11,2.47,12.98c0.91,0.86,0.21,3.24-1.64,4.15c-1.73,0.13-3.51,0.45-4.83-1.15c-1.4-2.27-1.13-4.67-0.75-7.16
		c0.74-4.93,0-5.84-5.02-5.11c-6.62,0.97-13.24,0.91-19.87,0.66c-1.15-0.04-2.24-0.37-3.18-1.11c-0.62-0.88-0.69-1.75,0.04-2.61
		C237.67,258.3,239.17,258.27,240.68,258.24z"/>
	<path class="st52" d="M220.13,263.96c0.01-0.74,0.01-1.48,0.02-2.22c0.14-0.21,0.27-0.43,0.41-0.65c1.38-1.12,3.67-1.52,3.17-4.11
		c1.62-1.26,3.18-0.95,4.7,0.17c1.15-0.56,2.3-1.13,3.59-1.76c0.72,2.23-2.25,3.25-1.26,5.26c-0.63,3.13-4.54,1.84-5.72,4.24
		C223.23,265.42,221.52,265.52,220.13,263.96z"/>
	<path class="st109" d="M228.42,257.15c-1.63,0.28-3.5-0.44-4.84,1.12c-0.39,1.85-2.41,2.08-3.34,3.39c0,0-0.1,0.08-0.1,0.07
		c-0.7-0.06-1.4-0.12-2.1-0.18c-0.27-4.05,0.93-6.95,6.24-6.98c-1.35-0.59-2.12-0.93-2.92-1.28c3.07-2.38,4.6,1.72,7.1,1.66
		C228.45,255.69,228.43,256.42,228.42,257.15z"/>
	<path class="st110" d="M225.68,264.18c-0.83-4.78,4.43-0.85,5.06-3.53c0.28,0.34,0.55,0.67,0.83,1.01c0.43,0.49,0.61,1.05,0.54,1.7
		c-0.62,2.39-1.37,4.91-4.5,4.5C225.79,267.63,224.78,266.22,225.68,264.18z"/>
	<path class="st52" d="M231.57,262.9c0-0.41,0-0.82,0-1.24c1.49-1.16,1.48-4.39,4.59-3.34c-0.01,0.74-0.02,1.48-0.03,2.21
		c0.17,1.4,2.75,2.5,0.54,4.21C234.52,265.38,232.63,265.27,231.57,262.9z"/>
	<path class="st111" d="M106.16,218.03c-0.17,6.57-3.69,9.66-10.79,9.48c-7.05-0.18-12.62-5.98-12.38-12.89
		c0.22-6.43,4.01-10.5,9.52-10.63C98.05,203.85,107.75,211.8,106.16,218.03z"/>
	<path class="st112" d="M87.52,201.2c0.04-1.64,0.75-2.8,2.35-3.35c6.27-0.5,11.48,1.89,16.13,5.85c0.82,0.82,1.43,1.75,1.53,2.94
		c-0.16,0.88-0.43,1.62-1.58,1.33C100.89,202.78,94.92,200.05,87.52,201.2z"/>
	<path class="st74" d="M105.96,207.97c0.35-0.35,0.7-0.71,1.06-1.06c4.54,2.65,5.93,5.9,4.77,11.15l-0.27,0.35
		c-0.57,0.59-0.9,1.63-2.07,1.17C109.41,215.37,108.24,211.5,105.96,207.97z"/>
	<path class="st113" d="M109.44,219.58c0.69-0.39,1.38-0.78,2.07-1.17c-0.12,3.52-0.22,7.05-3.55,9.36
		C108.45,225.04,108.94,222.31,109.44,219.58z"/>
	<path class="st114" d="M118.27,349.63c0.05-22.45,0.1-44.9,0.15-67.34c1.92-0.02,1.86,0.97,1.18,2.29c0,25.83,0,51.65,0,77.48
		c-0.44,0.01-0.89,0.02-1.33,0.02C118.27,357.93,118.27,353.78,118.27,349.63z"/>
	<path class="st19" d="M119.6,284.58c-0.09-0.92-0.22-1.82-1.18-2.29c0-1.87,0-3.74,0-5.65c1.81,0.04,0.93,2.51,2.76,2.49
		c0.62-1.56,1.27-3.21,1.92-4.86c-0.08,12.56-0.15,25.11-0.23,37.67c-2.28-7.89-0.37-15.96-1.12-23.9
		C121.63,286.81,123.56,283.65,119.6,284.58z"/>
	<path class="st115" d="M137.77,193.34c0,9.07-0.01,18.14-0.01,27.21C136,211.48,135.98,202.41,137.77,193.34z"/>
	<path class="st116" d="M270.41,320.03c1.17,1.11,2.34,2.23,3.51,3.34c1.99,9.36-1.93,17.35-5.91,25.32c-1.32,1.1-2.8,1.1-4.35,0.65
		c-8.16-4.4-9.29-8.22-4.3-15.89c2.69-4.14,4.41-8.87,7.79-12.58C268.11,320.12,269.09,319.4,270.41,320.03z"/>
	<path class="st117" d="M273.8,359.9c0.43,2.67-3.73,1.97-3.38,4.58c-2.05,0.21-2.49,1.69-2.21,3.28c0.76,4.18-1.6,4.17-4.52,3.58
		c-0.1-0.83-0.2-1.66-0.3-2.49c-1.21-0.56-3.47-0.88-1.39-2.75c2.08-1.88,2.41-4.42,3.42-6.72c2.19-2.45,0.17-6.27,2.79-8.58
		c3.41,0.68,2.13,3.43,2.18,5.38C270.45,358.62,271.01,360.17,273.8,359.9z"/>
	<path class="st118" d="M268.21,350.8c-0.88,3.04,1.99,6.97-2.21,9.21c-2.66-2.46-0.96-6.34-2.94-9.03
		c-0.22-0.93-0.12-1.79,0.58-2.5c1.45,0.07,2.91,0.14,4.36,0.21C268.07,349.4,268.14,350.1,268.21,350.8z"/>
	<path class="st119" d="M292.22,83.8c4.11,1.1,8.22,2.19,12.33,3.29c1.65,1.11,3.3,2.23,4.95,3.34c3.3,2.84,3,5.82,0.33,8.87
		c-2.14,2.45-4.37,5.05-7.64,5.66c-12.76,2.39-25.15,6.67-38.21,7.55c-1.71,0.12-3.68-0.06-4.97,0.97
		c-5.88,4.71-12.33,1.86-18.51,1.51c-3.76-0.21-5.12-4.17-2.64-7.05c3.63-4.22,6.38-9.56,12.74-9.93c0.04-2.67-3.4-1.64-2.98-3.99
		c9.08-7.13,19.75-9.6,30.94-10.28C283.1,83.48,287.67,83.77,292.22,83.8z"/>
	<path class="st120" d="M247.62,94.03c0.49,0.73,1.17,0.74,1.98,0.68c1.89-0.15,4.26-0.29,4.5,2.09c0.21,2.04-2.14,2.67-3.72,2.78
		c-6.22,0.43-8.3,5.97-12.09,9.38c-1.28,1.15-1.03,2.36-0.05,3.49c0.85,0.97,1.99,2.53,3.26,1.39c2.41-2.16,4.04-0.73,5.98,0.55
		c1.44,0.95,3.02,1.57,4.81,0.59c9.44-5.17,19.93-5.36,30.26-6.19c2.6-0.21,4.68-1.55,6.85-2.67c2.42-1.24,4.85-2.28,7.62-1.9
		c6.04,0.82,9.32-3.22,12.89-7c2.43-2.57-0.78-4.51-0.41-6.79c6.09,2.29,10.84,6.28,14.67,11.45c1.59,2.2-0.38,3.76-1,5.56
		c-0.85,1.7-2.34,2.46-4.12,2.79c-2.34,0.24-4.04,1.9-6.08,2.8c-1.55,0.68-3.31,1.87-4.8,1.08c-4.92-2.64-8.61,0.63-12.69,2.18
		c-0.57,0.11-1.14,0.1-1.71-0.03c-3.34-2.96-7-3.27-10.9-1.26c-3.83,1.98-7.94,2.48-12.12,2.07c-3.8-0.37-6.85,2-10.41,2.34
		c-7.02,2.8-14.23,5.26-19.88,10.58c-1.57,1.47-2.94,3.12-5.37,2.41c-2.55-0.75-2.51-3.09-2.85-5.11
		c-0.64-3.85-0.33-7.76-0.69-11.63C236.54,108.17,240.37,99.83,247.62,94.03z"/>
	<path class="st121" d="M231.57,115.65c3.27,3.76,1.17,8.49,2.25,12.65c0.33,1.25,0.02,2.74,1.73,3.13c1.5,0.34,2.4-0.44,3.22-1.66
		c2.72-4.05,6.94-5.96,11.38-7.3c3.56-1.07,5.66-5.23,9.99-4.53c0.61,1.6-0.89,2.12-1.55,3.08c-1.18,1.31-2.33,2.65-3.66,3.82
		c-5.18,2.34-9.32,6.32-14.22,9.1c-1.14,2.3-2.57,4.52-3.34,6.94c-0.61,1.91-2.02,3.13-3.42,3.36c-2.06,0.34-1.92-2.25-2.89-3.44
		c-1.38-1.7,0.6-4.8-2.44-5.79C228.04,128.32,228.08,121.72,231.57,115.65z"/>
	<path class="st122" d="M161.85,234.26c-2.01-3.57-6.63-3.35-8.52-2.55c-5.44,2.3-10.35,1.03-15.5,0.05
		c1.72-2.81,3.88-3.92,8.58-3.81c6.55,0.16,13.99-1.96,17.66,6.31C163.33,234.26,162.59,234.26,161.85,234.26z"/>
	<path class="st123" d="M126.45,196.6c-2.78-4.44-6.64-7.27-12.16-7.93c2.9-1.53,5.84-0.92,8.69-1.01c1.11,1.42,2.76,0.8,4.16,1.14
		c1.31,0.32,3.14,1.31,1.39,2.44c-3.51,2.26,0.42,3.67,0.16,5.45C127.95,196.67,127.2,196.63,126.45,196.6z"/>
	<path class="st124" d="M339,282.3c0.34-5.66,3.89-10.4,4.6-15.96c0.05-1.43,1.05-2.28,1.93-3.22c0.89,0.3,1.77,0.6,2.66,0.91
		c-1.73,7.24-3.3,14.53-7.97,20.64C339.23,284.18,339.71,282.93,339,282.3z"/>
	<path class="st76" d="M339,282.3c0.96,0.5,1.14,1.41,1.22,2.37c0.34,5.72-2.42,10.66-4.17,15.82c-0.66,1.94-0.98,3.89-1.48,5.82
		c-1.86-1.04-1.13-2.89-1.38-4.43C335.13,295.35,337.07,288.83,339,282.3z"/>
	<path class="st125" d="M268.21,233.04c-0.02-0.69-0.05-1.38-0.07-2.07c0.83-4.48,5.31-5.07,8.15-7.24
		c7.03-5.4,12.45-12.02,16.97-19.52c1.11-1.84,2.11-3.45-1.06-4.09c2.39-2.23,5.29-0.74,7.93-1.08c1.71,2.65-0.28,4.88-1.27,6.84
		c-4.49,8.9-10.26,16.96-19.06,22.04c-3.4,1.96-5.85,5.61-10.17,5.97C269.02,233.82,268.55,233.53,268.21,233.04z"/>
	<path class="st126" d="M121.66,212.36c-1.04,0.55-2.08,1.11-3.12,1.66c-2.55-2.59-1.31-7.01-4.5-9.29
		c-0.46-0.44-0.91-0.88-1.37-1.32c-2-0.41-3.21-1.65-3.76-3.58c1.31-2.74,4.04-1.39,6.06-2.09
		C120.54,201.1,121.77,206.43,121.66,212.36z"/>
	<path class="st127" d="M114.98,197.76c-0.75,3.66-4.35,0.34-5.77,2.35c-1.93,0.53-2.71-0.61-3.19-2.19
		c-1.71-2.08-4.8-1.57-7.19-3.6c6.5-4.01,11.3-0.79,16.1,2.39C114.96,197.05,114.98,197.4,114.98,197.76z"/>
	<path class="st128" d="M125.34,197.88c0.34,0,0.68,0.05,1.01,0.15c1.51,3.59,3.01,7.14,2.38,11.23c-0.27,1.76-0.24,3.46-3.5,3.88
		C126.72,207.91,121.66,203.14,125.34,197.88z"/>
	<path class="st129" d="M345.53,263.12c-0.11,1.39-0.24,2.77-1.93,3.22c-1.19-0.41-2.39-0.82-3.58-1.24
		C341.53,263.55,343.55,263.37,345.53,263.12z"/>
	<path class="st130" d="M237.07,264.11c-0.26-1.2-3.57-1.61-0.93-3.57c8.48,0.23,16.94,0.11,25.38-1.02c4.09-0.55,6.9,0.11,4.7,5.4
		c-1.23,2.96-1.01,6.21-0.37,9.37c-1.35,3.81-4.95,5.71-7.33,8.65c-1.39,1.29-2.62,2.77-4.22,3.83c-1.13,0.65-2.27,0.71-3.46,0.17
		c-8.43-5.67-17.38-6-27.22-4.14c-6.77,1.28-13.98,1.33-20.99,0.81c-3.56-0.26-4.87,1.02-4.82,4.4c0.26,16.69-0.61,33.39,0.52,50.08
		c-0.16,1.56,0.32,3.52-2.22,3.62c-1.38-1.15-1.04-2.76-1.04-4.23c0-17.81,0.04-35.63,0.04-53.44c0-1.73,0.03-3.41,1.03-4.91
		c18.92-0.05,37.85-0.07,56.77-0.21c1.92-0.01,4.22,1.01,5.75-1.19c-1.46-1.42-0.36-4.15-2.68-5.12c-2.48-0.44-5.13,0.17-7.44-1.25
		c-1.61-2.35-4.12-2.24-6.56-2.49C239.18,268.58,236.71,267.76,237.07,264.11z"/>
	<path class="st131" d="M196.1,341.7c1.37-0.82,1.14-2.18,1.18-3.45c2.43-2.17,5.6-1.87,8.48-2.33c2.81-0.44,5.46-1.12,7.93-2.5
		c2.7,0.57,1.84,3.93,3.93,4.98c2.96,2.51,6.89,3.19,10.04,5.35c1.86,1.28,4.13,2.09,4.7,4.65c0.03,0.76,0,1.94-0.6,2.02
		c-3.03,0.41-6.11,0.54-9.15,0.53c-1.22,0-1.46-1.9-1.58-2.42c-1.44,4.39-0.88,10.31-6.44,13.55c-4.03-4.06-9.11-6.66-13.97-9.41
		C195.89,350,194,346.85,196.1,341.7z"/>
	<path class="st132" d="M214.58,362.08c2.98-5.29,5.16-10.84,5.86-17c1.8,1.62,1.04,8.72,6.36,2.94c1.23-1.34,2.7,5.18,4.81,0.41
		c1.65-0.1,1.9,1.1,2.15,2.3c0.04,0.89-0.15,1.72-0.6,2.48c-1.9,1.98-4.28,2.59-6.66,1.38c-3.6-1.84-4.94-0.09-6.3,2.93
		c-1.34,2.96-1.34,6.12-2.17,9.14c-2.15-0.3-2.9-2.61-4.78-3.31C213.7,362.93,214.14,362.5,214.58,362.08z"/>
	<path class="st133" d="M232.63,352.92c0.21-0.71,0.43-1.43,0.64-2.14c3.86-0.88,4.89,2.16,6.39,4.58c0.55,1.43,1.06,2.88,1.29,4.41
		c0.13,0.94,0.16,1.88,0.16,2.82c0,7.66-2.23,9.26-9.25,6.51c-2.33-0.91-4.64-1.5-7.14-1.25c-0.93,0.2-1.83,0.31-2.47-0.62
		c-3.07-2.1-4.56-4.59-2.83-8.43c1.66-3.69,4.01-5.31,8.12-4.12C229.47,355.23,231.3,354.6,232.63,352.92z"/>
	<path class="st134" d="M224.72,367.85c1.97-1.93,4.3-1.27,6.37-0.52c8.29,3.02,8.57,2.88,8.48-5.71c-0.01-0.95,0.04-1.9,0.06-2.84
		c3.75,0.18,3.7,2.78,3.5,5.48c0.49,2.47-0.52,4.63-1.42,6.82c-1.81,1.63-3.72,2.09-6.11,1.04
		C232.03,370.55,228.35,369.26,224.72,367.85z"/>
	<path class="st135" d="M232.63,352.92c-0.04,2.45-1.8,2.4-3.56,2.52c-9.27,0.63-10.99,3.64-6.83,11.79
		c-0.71-0.07-1.41-0.14-2.12-0.21c-0.69-0.12-1.39-0.24-2.08-0.36c-3.01-5.2,1.07-9.16,2.65-13.42c0.66-1.77,3.52-1.55,5.08-0.44
		C228.18,354.53,230.33,353.97,232.63,352.92z"/>
	<path class="st136" d="M263.54,350.76c4.53,2.11,1.38,6.24,2.45,9.26c-0.26,2.82,0.55,6.17-3.53,7.09
		c0.31,0.58,0.62,1.17,0.93,1.75c-2.04,0.05-4.08,0.21-6.11,0.15c-4.48-0.13-8.79-0.51-5.95-6.94c-0.64-2.39,0.43-4.43,1.34-6.51
		c0.31-0.41,0.7-0.74,1.17-0.97c2.05-0.83,4.55-0.16,6.32-1.91c0.71-0.67,1.3-1.48,2.06-2.1
		C262.7,350.34,263.14,350.4,263.54,350.76z"/>
	<path class="st137" d="M243.12,364.26c-1.52-1.6-0.92-4.55-3.5-5.48c-0.55-1.09-1.44-2.08-0.98-3.46c1.64-1.53,3.65-0.82,5.34-0.51
		c2.27,0.42,2.07-1.46,2.92-2.38c1.6-0.77,3.24-0.77,4.92-0.38c0.87,0.28,1.56,0.78,1.96,1.63c0.15,0.6,0.08,1.16-0.23,1.7
		l-0.35,0.19c-2.61,1.54-1.52,4.89-3.36,6.81C248.01,364.48,245.45,363.97,243.12,364.26z"/>
	<path class="st138" d="M249.84,362.38c0.89-2.38-2.42-6.84,3.36-6.81c0.57,2.51-1.11,4.37-1.87,6.49
		C250.83,362.17,250.34,362.27,249.84,362.38z"/>
	<path class="st139" d="M304.71,192.21c-2.8-0.84-5.22,1.17-7.92,1.07c-2.35,1.56-5.33,0.79-7.74,2.13
		c-2.05-0.02-4.06-0.32-6.02-0.95c-3.42-2.51-7.59-1.26-11.39-2.21c-11.22-2.82-19.64-8.85-25.05-19.03
		c-0.24-0.45-0.1-1.11-0.13-1.68c-3.2-6.3-1.04-13.06-1.62-19.59c-0.16-1.84,0.6-3.77-0.52-5.53c-0.27-3.5-3.51-6.3-2.36-10.13
		c2.24-8.36,9.95-9.46,16.37-12.21c2.62-1.12,5.57-0.95,8.35-1.46c1.89-0.34,3.88-0.14,4.35,2.39c-0.06,0.82-0.48,1.84,1.05,1.78
		c2.74-0.1,5.49,0.06,8.22-0.28c1.86-0.36,3.75-0.95,5.34,0.7c0.62,0.67,1.2,1.35,2.14,1.68c5.85,2.08,5.96,2.55,1.89,7.62
		c-3.42,0.97-6.95,1.4-10.32,2.7c-3.98,1.53-6.51-0.48-7.46-5.45c-3.09,4.64-2.45,10.12-6.65,13c-2.87,2.38-7.4-1.06-9.84,2.82
		c-2.49,3.46-2.04,7.24-1.2,11.06c0.92,2.43,2.26,4.5,4.76,5.59c1.48,1.06,3.26,1.22,4.96,1.61c3.19,2.22,7.04-0.83,10.24,1.27
		c0.99,1.3-0.92,3.57,1.21,4.21c-1.8-3.16-0.34-4.52,3.07-4.79c3.63,0.98,7.15,3.25,10.97,0.16c0.96-0.78,2.53-0.2,3.16,1.3
		c-1.74,6.67-4.99,8.95-13.32,9.31c8.24,1.23,11.74-5.62,16.88-9.6c0.77-1.14,1.82-1.91,3.09-2.41c8.39-2.1,11.59-8.64,9.21-15.82
		c-1.14-2.52-1.82-5.44-5.3-5.82c-3.85-1.02-7.46,0.38-11.15,1.08c-0.48-0.28-1.04-0.61-1.18-1.12c-0.93-3.4,0.71-6.8,0.07-10.22
		c4.91-1.28,9.8-1.18,14.68,0.18c1.97,0.82,3.8,1.88,5.47,3.21c5.63,4.22,9.25,10.41,14.61,14.91c1.39,1.17,2.05,2.86,1.17,4.61
		c-3.89,7.66-4.83,16.87-11.97,22.82c-2.52,1.55-3.7,4.25-5.47,6.44C308.58,189.9,305.37,189.79,304.71,192.21z"/>
	<path class="st140" d="M270.37,125.82c0.11-1.46-0.71-2.15-2.03-1.97c-10.08,1.41-20.01,3.18-26.39,12.43
		c-0.93-0.51-1.21-1.37-1.25-2.35c3.15-5.34,8.74-7.45,13.76-10.29c5.18-2.45,11.12-5.3,16.25-3.35c6.89,2.62,14.25,1.4,20.9,4.3
		c3.24,1.41,6.45,0.03,9.21-1.56c4.09-2.36,8.74-3.65,12.49-6.69c1.31-1.06,2.99-1.73,4.75-0.65c3.52,4.62,1.54,9.94,1.91,14.96
		c-0.06,0.94-0.19,1.86-0.42,2.77c-0.57,1.71-0.74,3.52-1.37,5.22c-0.25,0.55-0.65,0.95-1.21,1.19c-4.66-4.83-3.33-10.59-2.89-16.64
		c-4.86,2.51-9.83,5.35-15.54,6.11c-4-1.54,0.01,3.04-2.2,2.88c-1.18,0.49-2.29,0.39-3.32-0.38c-0.84-2.52-2.98-1.75-4.78-1.96
		c-1.28-0.15-3.34,0.79-3.2-1.86c-1.42-1.54-3.02-0.12-4.52-0.26C277.13,127.21,273.39,128.43,270.37,125.82z"/>
	<path class="st141" d="M244.31,146.42c2.48,1.36,2.11,3.74,2.12,5.97c0.02,6.38,0.02,12.77,0.03,19.15
		c-0.77-0.01-1.53-0.01-2.3-0.02c-0.72-1.02-2.41-1.71-1.16-3.4c0.56-2.39,2.99-5.06-1.02-6.75c-0.17-2.81,0.21-5.91-3.47-6.98
		c-0.21-2.34,1.52-3.27,3.21-3.83C243.89,149.84,244.33,148.35,244.31,146.42z"/>
	<path class="st142" d="M283.03,194.47c2.23-0.05,4.46-0.1,6.69-0.15c3.32,0.98,1.82,2.23,0.2,3.49c-0.41,0.01-0.83,0.01-1.24,0.02
		C286.79,196.7,284.91,195.59,283.03,194.47z"/>
	<path class="st143" d="M345.85,145.32c3.6,5.53,2.37,13.28-2.65,17.33c-1.14,0.92-2.04,2.12-3.05,3.19
		c-1.51,0.38-3.02,0.77-4.53,1.15c-1.23-1.41-0.4-2.55,0.47-3.69c3.16-1.69,3.61-4.56,3.37-7.74c0.19-2.93-0.01-5.91,1.64-8.58
		C342.26,145.1,343.43,143.49,345.85,145.32z"/>
	<path class="st144" d="M336.83,163.34c-0.41,1.22-0.81,2.44-1.22,3.65c-0.75,0.37-1.49,0.73-2.24,1.1
		c-2.7-4.27,0.51-8.71-0.39-13.04c0.26-2.46,0.93-4.83,1.43-7.25c1.17-2.51,2.17-5.23,5.8-4.74c1.97,0.09,3.92,0.06,5.56-1.3
		c0.03,1.18,0.06,2.37,0.09,3.55c-4.72,0.62-4.99,4.32-4.62,7.68c0.16,1.38,0.11,1.92-0.85,2.59
		C336.65,157,339.29,161.34,336.83,163.34z"/>
	<path class="st145" d="M330.93,170.41c-1.12,1.54-2.25,3.07-3.37,4.61c-2.69-0.04-2.69-0.04-2.68-4.83
		c0.01-3.99,0.35-7.97,1.93-11.64c0.94-2.17,0.27-4.05-0.1-6.04c-0.34-1.81-1.29-3.69,0.77-5.14c4.67,0.48,5.49,3.88,5.81,7.66
		C333.43,160.29,333.02,165.48,330.93,170.41z"/>
	<path class="st146" d="M326.45,170.42c0.97,1.39-2.18,3.76,1.11,4.59c-3.71,7.61-10.04,11.43-18.23,12.56
		c-0.21-3.44,1.39-5.67,4.56-6.87c3.67-2.29,7.58-4.26,9.36-8.67C323.7,170.89,324.82,169.83,326.45,170.42z"/>
	<path class="st147" d="M330.93,170.41c-0.15-5.41,1.92-10.64,1.31-16.08c0.7-0.57,1.4-0.58,2.11-0.02
		c0.75,4.67-0.81,9.18-0.98,13.78C333.28,169.63,332.52,170.46,330.93,170.41z"/>
	<path class="st148" d="M307.05,305.2c6.91,0.27,14.04-1.43,20.58,2.27c2.57,5.87-2.24,14.49-8.61,14.67
		c-10.97,0.31-21.96,1.17-32.94,0.2c-3.82-0.34-7-1.76-7.52-6.23c1.3-5.12,5.18-7.51,9.75-9.16c0.52-0.31,1.08-0.53,1.67-0.69
		C295.61,304.98,301.45,307.09,307.05,305.2z"/>
	<path class="st149" d="M279.57,315.42c-0.04,4.31,3.38,5.76,6.4,5.84c11.07,0.27,22.17,0.13,33.24-0.28
		c4.46-0.16,8.85-7.78,8.41-13.5c7.46,1.19,7.97,1.83,7.98,10.05c-0.56,1.33-2.62,1.71-2.28,3.61c-3.54-1.64-6.3,1.38-9.49,1.61
		c-5.98,0.42-11.97,0.59-17.96,0.87c-3.04,0.64-6.08,0.7-9.11-0.09c-2.66-0.02-5.32-0.03-7.98-0.05c-5.24,0.46-9.7-1.3-13.8-4.5
		c-1.83-1.43-2.42-2.7-0.93-4.61c0.36-0.38,0.81-0.58,1.34-0.59C276.83,314.2,278.28,314.61,279.57,315.42z"/>
	<path class="st150" d="M275.21,314.4c-0.39-0.01-0.77-0.02-1.16-0.03c-4.95-0.51-3.23,3.27-3.64,5.67
		c-0.75,0.35-1.5,0.71-2.24,1.06c-2.3-2.66-1.05-5.33-0.04-8c3.59-3.81,7.26-7.53,12.39-9.31c9.11-3.66,19.18-1.14,28.39-4.43
		c2.41-0.86,5.29-0.89,7.48,1.29c-0.38,0.41-0.75,0.82-1.13,1.23c-3.55,1.06-7.1,2.13-10.66,3.19c-2.49,2.86-5.86,1.42-8.85,1.78
		c-2.34,0.28-4.78-0.62-7.05,0.58l-0.03-0.03C283.57,308.55,279.6,311.89,275.21,314.4z"/>
	<path class="st151" d="M288.7,307.41c2.86-2.32,6.2-1.02,9.3-1.06c2.34-0.03,4.42-0.81,6.6-1.3c0.81,0.05,1.63,0.1,2.45,0.15
		c-0.46,2.71-2.6,2.19-4.38,2.21C298.01,307.45,293.35,307.42,288.7,307.41z"/>
	<path class="st152" d="M318.53,131.61c-0.72-5.31,1.18-10.83-1.24-16.01c-1.36-1.94-0.3-3.37,0.99-4.75
		c4.25-1.62,6.28,1.17,6.88,4.39c0.7,3.72,2.86,6.49,4.43,9.66c0.84,1.7,1.62,3.76,4.1,2.71c1.99-0.84,2.49-2.69,2.21-4.74
		c-0.2-1.5-1.01-2.87-1.17-4.36c-0.26-2.45-0.63-5.1,3.13-5.17c2.45,0.59,3.9,2.18,4.54,4.56c-1.24,4.95,0.76,9.9-0.01,14.84
		c-1.26,1.4-2.41,2.91-3.86,4.15c-4.19,3.6-7.4,3.31-10.25-1.34c-1.71-2.79-2.97-5.45-6.84-2.74
		C320.46,133.51,319.35,132.42,318.53,131.61z"/>
	<path class="st153" d="M318.53,131.61c0.37,0.05,0.77,0.19,1.12,0.12c6-1.17,6.28-0.98,10.25,4.23c2.04,2.68,4.4,3.33,7.1,0.57
		c1.53-1.57,2.78-3.71,5.4-3.78c0.35,3.67,0.21,7.24-2.2,10.32c-1.52,1.52-3.04,3.03-4.57,4.55c-1.07,1.01-2.72,1.55-3.62,0.69
		c-3.96-3.76-9.52-5.84-11.99-11.18c-0.46-1.15-1.19-2.2-1.52-3.42C318.52,133.01,318.53,132.31,318.53,131.61z"/>
	<path class="st154" d="M321.91,106.5c0.62-1.61,2.42-2.64,2.26-4.63c2.69,2.37,4.24-2.7,6.82-1.03c0.02,0.72,0.04,1.44,0.06,2.15
		c1.01,4.28,4.33,7.86,3.49,12.76c-0.46,2.65-0.87,5.06-4.04,5.14c-2.85,0.08-4.49-1.81-5.03-4.48
		C324.76,112.93,324.49,109.31,321.91,106.5z"/>
	<path class="st155" d="M96.67,188.71c-0.4-3.09,0.81-4.7,4.08-4.57c2.08,0.08,4.17,0.02,6.26,0.02c1.11,0.36,2.22,0.73,3.33,1.09
		c0.86,1.49,3.42,2.4,1.99,4.67c-1.3,2.08-3.52,1.27-5.15,0.67C103.75,189.36,99.92,190.67,96.67,188.71z"/>
	<path class="st156" d="M276.16,238.89c-0.75-0.39-1.49-0.79-2.24-1.18c-1.49-0.82-4.45,0.26-3.96-3.08
		c12.18-7.1,22.74-15.87,29.39-28.63c1.26-2.42,2.98-4.35,5.32-5.74c1.63,1.02,2.13,2.64,2.36,4.4
		c-3.02,8.08-8.71,14.32-14.35,20.56c-3.05,3.36-6.45,6.09-11.14,7.37C278.99,233.28,275.62,234.82,276.16,238.89z"/>
	<path class="st157" d="M304.67,200.26c-4.92,9.59-11.51,18.16-19.35,25.27c-4.05,3.67-8.29,8.72-14.88,8.86
		c-1.03,0.23-1.58,0.02-1.1-1.17c13.96-8.08,25.69-18.16,30.78-34.19C301.64,199.44,303.16,199.85,304.67,200.26z"/>
	<path class="st158" d="M289.91,197.81c0.29-1.18,1.78-2.43-0.19-3.49c2.04-2.5,4.66-1.05,7.07-1.04c0.14,1.26,3.64,3.14-0.81,3.56
		C293.97,197.03,292.04,198.08,289.91,197.81z"/>
	<path class="st159" d="M269.34,233.22c0.37,0.39,0.74,0.78,1.1,1.17c-0.17,2.5,2.65,1.87,3.48,3.32c0.01,0.75,0.01,1.5,0.02,2.25
		c-1.9-1.17-3.81-2.34-5.71-3.51c-0.05-0.68-0.09-1.36-0.14-2.04c0.04-0.45,0.07-0.9,0.11-1.36
		C268.58,233.1,268.96,233.16,269.34,233.22z"/>
	<path class="st160" d="M237.07,264.11c0.96,3.64,3.8,3.39,6.69,3.41c2.23,0.01,5.33-0.86,5.16,3.21
		c-8.52,3.22-17.23,1.63-25.91,1.01c-0.66-0.19-1.25-0.51-1.77-0.96c-0.98-2.08-3.61-3.17-3.56-5.87c0.81-0.32,1.63-0.64,2.44-0.96
		c1.85,0.07,3.7,0.15,5.55,0.22c0.53,1.29,0.34,3.29,2.42,3.19c2.75-0.12,1.41-3.66,3.46-4.48
		C233.26,263.95,235.09,264.34,237.07,264.11z"/>
	<path class="st161" d="M207.63,268.77c3.8,0.51,7.92-0.71,11.29,2.11c-2.31,1.96-11.44,3.16-12.97,1.43
		C204.15,270.29,206.33,269.62,207.63,268.77z"/>
	<path class="st162" d="M207.63,268.77c0.04,1.1-3.44,2.74-0.28,3.04c3.76,0.35,7.91,1.49,11.58-0.93c0.77-0.03,1.55-0.06,2.32-0.09
		c0.39,0.03,0.78,0.07,1.17,0.11c0.15,0.21,0.3,0.43,0.45,0.64c-0.13,0.23-0.26,0.45-0.39,0.68c-3.4,0.84-6.86,1.13-10.35,0.98
		c-1.49,1.3-2.99,1.32-4.51,0.06c-1.92-0.4-3.84-0.81-5.76-1.21c0.33-1.11,0.66-2.22,0.99-3.33
		C204.43,268.73,206.03,268.75,207.63,268.77z"/>
	<path class="st163" d="M296.76,323.52c3.04,0.03,6.07,0.06,9.11,0.09c0,0.28,0,0.55,0,0.83
		C302.82,324.29,299.53,326.45,296.76,323.52z"/>
	<path class="st164" d="M321.91,106.5c1.98,0.24,5.1-0.97,3.7,3.3c-0.35,1.07,0.59,2.5,0.68,3.78c0.17,2.52,0.4,4.94,3.06,6.17
		c1.15,0.53,2.36,0.36,3.02-0.68c1.63-2.58,1.73-5.87,0.36-8.06c-1.69-2.69-1.65-5.24-1.68-8.02c3.32,2.76,4.13,7.17,6.82,10.34
		c-3.61,2.05-2.11,4.72-0.89,7.35c1.69,3.63,1.26,6.63-2.57,8.61c-1.94,1-4.85,0.49-5-0.89c-0.53-4.72-5.7-7.08-5.41-12.2
		c0.18-3.11-2.09-5.09-5.51-5.11c-0.16-0.16-0.33-0.32-0.49-0.48c-0.24-0.71-0.17-1.33,0.47-1.82
		C320.12,108.78,321.76,108.76,321.91,106.5z"/>
	<path class="st74" d="M106.02,197.91c1.06,0.73,2.12,1.46,3.19,2.19c1.16,1.1,2.32,2.21,3.47,3.31c0.32,1.98,0.65,3.97,0.97,5.95
		c-1.84,0.24-2.73-1.05-3.4-2.35c-1.01-1.94-2.53-2.58-4.58-2.28c-4.59-3.85-10.29-5.15-15.79-6.89
		C95.27,194.95,100.64,197.64,106.02,197.91z"/>
	<path class="st165" d="M105.66,204.74c1.95-2.13,3.64-2.47,5.08,0.57c0.71,1.5,1.36,3.12,2.9,4.06c0.39,2.24,0.78,4.48,1.17,6.72
		c-1.01,0.66-2.03,1.32-3.04,1.97c-0.46-4.2-2.03-7.92-4.77-11.15C106.56,206.19,106.11,205.47,105.66,204.74z"/>
	<path class="st166" d="M114.05,204.73c4.11,1.83,3.61,5.89,4.49,9.29c-0.37,2.14-1.64,2.44-1.88,0.29
		C116.29,210.92,114.75,207.96,114.05,204.73z"/>
	<path class="st167" d="M241.97,161.37c0.66-1.03,1.33-2.07,2.26-3.53c1.92,3.41,0.91,6.69,0.92,9.8c0,1.38-1.35,0.62-2.16,0.48
		c-0.77-1.14-1.54-2.29-2.31-3.43C241.11,163.59,241.54,162.48,241.97,161.37z"/>
	<path class="st168" d="M309.22,280.02c2.35,0.03,4.69,0.06,7.04,0.09c3.85,4.6,3.39,10.67-1.29,14.34
		c-4.81,3.77-9.85,6.83-16.4,6.98c-5.36,0.12-10.89-0.24-16.01,2.08c-2.31-5.89-0.3-9.9,5.38-10.54c1.52-0.17,3.03-0.23,4.44-0.87
		c1.2-0.52,2.47-0.91,3.53-1.73c3.89-3.62,6.46-8.82,12.18-10.27C308.46,280.07,308.84,280.04,309.22,280.02z"/>
	<path class="st169" d="M280.79,245.71c1.74,1.17,3.28,2.79,5.68,2.41c4.37,3.48,5.91,7.81,3.09,12.84
		c-2.39,4.26,0.7,8.28-0.09,12.67c-0.83,4.65-2.68,5.45-6.44,5.23c-0.26-0.03-0.53-0.06-0.8-0.09c-1.3-0.36-2.25-1.39-3.55-1.79
		c-2.68-0.82-3.11-1.93-2.17-5.01c1.51-4.92,4.66-10.33-0.22-15.63c-2.66,0.44-4.8,8.41-8.13,0.89l-0.03-0.02
		c-0.63-0.66-0.76-1.45-0.55-2.31C271.11,250.57,276.67,249.18,280.79,245.71z"/>
	<path class="st170" d="M308.08,280.09c-3.77,3.79-7.54,7.59-11.31,11.38c-2.29-0.88-4.23-2.38-5.86-4.08
		c-2.62-2.73-5.73-3.89-9.39-3.96c-3.05-0.75-6.1-1.03-9.15-0.02c-4.77,0.53-9.3,1.96-13.83,3.42c-1.53,0.49-3.7,2.03-4.25-1.26
		c1.18-1.1,2.36-2.19,3.55-3.29c5.37-3.17,11.97-2.61,17.36-5.73c2.83-0.11,5.33,0.92,7.75,2.24c0,0,0.08,0.07,0.08,0.07
		c6.43,2.32,13.05,0.83,19.57,0.76C304.5,279.61,306.28,279.56,308.08,280.09z"/>
	<path class="st171" d="M281.87,302.83c6.81-3.16,14.26-2.37,21.41-3.38c10.04-1.42,15.86-9.83,12.96-19.34
		c5.41-2.83,6.25-4.73,8.82,2.06c1.5,9.29-1.15,14.91-8.68,18.46c-10.35,1.64-20.98,1.22-31.16,4.23c-1.74,0.52-3.73,0.2-5.61,0.27
		C279.24,303.27,280.05,302.55,281.87,302.83z"/>
	<path class="st172" d="M280.79,245.71c-2.81,5-8.36,6.24-12.66,9.21c-0.76,0.67-1.52,0.59-2.28,0c1.16-3.72,4.71-4.49,7.59-6
		c2.29-1.2,4.28-2.41,3.85-5.44C278.65,243.93,279.95,244.46,280.79,245.71z"/>
	<path class="st173" d="M257.88,271.18c2.48,1.92,1.11,4.29,0.78,6.55c-0.31-0.06-0.62-0.12-0.93-0.15
		c-7.45-1.77-14.96,0.07-22.43-0.43c-3.15-0.21-6.37,0.66-9.46-0.58c0.72-2.87-1.82-3.22-3.36-4.34c0,0-0.02-0.27-0.02-0.27
		c8.84-0.85,17.68-0.63,26.52-0.16C251.98,271.95,255,272.59,257.88,271.18z"/>
	<path class="st174" d="M225.83,276.56c8.56-0.23,17.15,0.49,25.69-0.91c2.19-0.36,4.41,0.41,6.21,1.92
		c-9.45,0.05-18.89,0.11-28.34,0.15C228.1,277.72,226.7,277.92,225.83,276.56z"/>
	<path class="st175" d="M207.61,273.25c1.5-0.02,3-0.04,4.51-0.06c0.88,1.67,1.61,3.37-1.37,3.35
		C208.7,276.53,206.07,276.8,207.61,273.25z"/>
	<path class="st174" d="M221.46,276.62c-2.06,1.2-4.18,1.38-6.8,0.32C217.11,274.73,219.26,275.58,221.46,276.62z"/>
	<path class="st176" d="M265.85,254.92c0.76,0,1.52,0,2.28,0c0,0.76,0.01,1.52,0.01,2.28c-3.03-0.48-6.06,2.96-9.09,0.01
		C261.65,257.44,263.85,256.45,265.85,254.92z"/>
	<path class="st177" d="M282.95,278.79c-2.91,0.74-5.42-1.14-8.2-1.22c-1.81-1.17-5.26,0.43-5.55-3.3c1.62-0.97,1.78-3.29,1.06-3.87
		c-4.83-3.87-1.19-8.85-2.08-13.17c1.39,0.63,2.09,3.72,4.4,0.98c3.75-4.42,5.43-4.1,7.49,1.17c0.91,2.32-1.51,13.41-3.55,15.4
		C279.03,275.66,281.87,275.95,282.95,278.79z"/>
	<path class="st178" d="M269.2,274.27c1.4,1.85,4.3,1.2,5.55,3.3c-5.09,3.55-10.98,4.22-16.92,4.71c1.94-3.39,5.13-5.53,8.01-7.99
		C266.96,273.61,268.07,273.54,269.2,274.27z"/>
	<path class="st179" d="M220.24,261.66c-0.03-2.25,1.95-2.53,3.34-3.39c0.86,0.2,2.01,0.14,2.48,0.68c0.48,0.54-0.38,1.24-1.08,1.44
		C223.42,260.86,221.82,261.25,220.24,261.66z"/>
	<path class="st180" d="M89.88,212.69c0.37-2.84,2.12-5.11,5.51-5.6c2.49-0.36,9.55,6.54,9.01,9c-0.68,3.13-2.97,5.22-6.26,5.58
		C94.21,222.1,90.12,217.76,89.88,212.69z"/>
	<path class="st181" d="M86.79,209.47c-1.52,6.58,0.82,11.41,7.04,15.04C86.15,223.73,83.34,217.56,86.79,209.47z"/>
	<path class="st182" d="M269.3,313.17c-0.7,2.59-1.5,5.17-1.14,7.92c-3.08,5.19-6.21,10.34-9.22,15.57
		c-3.38,5.86,0.6,8.89,4.7,11.83c-0.03,0.76-0.07,1.51-0.1,2.27c-0.45,0.04-0.9,0.07-1.35,0.11c-3.89-2.03-6.94-0.2-9.89,2.13
		c-1.94,0.02-3.89,0.05-5.83,0.07c-2.62-3.57-2.42-6.2,2.4-7.37c2.99-0.73,4.74-2.87,4.37-5.75c-0.63-5,1.75-8.73,4.37-12.41
		c1.36-1.91,2.17-3.93,2.5-6.2C262.27,317.6,264.18,313.58,269.3,313.17z"/>
	<path class="st164" d="M318.49,111.09c-0.4,1.5-0.8,3.01-1.2,4.51c-6.91,4.13-13.6,8.69-21.53,10.81
		c-2.48,0.66-4.42,0.93-6.57-1.39c-2.82-3.05-6.33,0.47-9.61,0.05c-1.39-0.18-1.79,0.21-3-1.4c-2.57-3.42-7.12-2.56-11.03-2.01
		c-3.72,0.53-7.39,1.31-11.09,1.98c1.13-1.15,2.26-2.29,3.39-3.44c9.77-2.86,19.53-5.51,29.91-3.56c2.2,0.41,4.44-0.72,6.68-1.02
		c0.38,0,0.76-0.01,1.14-0.01c0.54-0.24,1.22-0.39,1.61-0.04c5.82,5.07,10.64,2.14,15.46-1.76c1.66-1.35,3.12-3.38,5.78-2.77
		L318.49,111.09z"/>
	<path class="st183" d="M318.43,111.04c-2.29,1.89-4.53,3.87-6.89,5.67c-6.34,4.83-8.69,4.64-15.95-1.1
		c3.46-2.6,6.56-6.49,11.64-2.91c1.93,1.36,3.54-0.35,5.26-0.93c2.14-0.72,3.49-3,5.98-2.98
		C318.46,109.54,318.45,110.29,318.43,111.04z"/>
	<path class="st183" d="M294.44,115.62c-3.17,2.88-6.24,3.82-10.67,1.79c-5-2.29-10.45,0.19-15.44,1.3
		c-3.52,0.78-6.91,1.5-10.48,1.49c0.76-0.76,1.52-1.51,2.28-2.27c8.93-3.66,19.18-1.29,27.9-6.35
		C291.69,109.46,291.86,114.91,294.44,115.62z"/>
	<path class="st184" d="M214.38,333.67c-2.67,5.78-8.61,2.42-12.67,4.45c-1.2,0.6-2.94,0.12-4.43,0.13c-1.87-1.68-1.1-3.91-1.11-5.9
		c-0.06-14.98,0.08-29.97-0.1-44.95c-0.06-4.7,0.35-6.14,6.2-5.6c7.93,0.73,16.17,0.35,24.26-1.3c9.27-1.88,18.22-0.81,25.6,6.06
		c-0.19,2.55-2.37,3.18-4.1,4.23c-2.81,1.7-4.94,4.06-6.61,6.85c-2.96,5.07-5.35,10.42-7.8,15.74c-3.33,6.85-6.78,13.61-13.58,17.82
		C218.29,332.31,217.01,334.53,214.38,333.67z"/>
	<path class="st185" d="M240.51,297.07c2.23-5.32,7.36-7.44,11.62-10.52c0.72-0.33,1.44-0.66,2.15-0.99
		c3.32,1.77,5.67-1.28,8.51-1.88c3.31-0.7,6.52-1.64,9.95-1.36c1.02,2.25,1.19,2.46-0.52,3.85c-3.52,2.85-6.59,6.24-10.41,8.73
		c-6.49,4.23-12.32,9.28-18.16,14.34c-0.43,0.37-0.8,0.82-1.26,1.13c-1.83,1.25-3.84,3.38-6.01,1.58c-2.13-1.77-0.52-4.44,0.41-6.23
		C238.25,302.91,240.16,300.35,240.51,297.07z"/>
	<path class="st186" d="M257.88,271.18c-0.87,3.1-3.53,2.06-5.24,1.77c-10.04-1.66-20.14-0.36-30.19-1
		c-0.03-0.35-0.05-0.7-0.04-1.05c8.84-0.05,17.67-0.11,26.51-0.17C251.9,270.88,254.89,271.03,257.88,271.18z"/>
	<path class="st187" d="M261.29,321.12c0.86,4.76-2.93,7.53-4.92,11c-1.08,1.87-2.02,3.29-1.64,5.66c0.79,4.97-0.26,9.01-6.42,9.64
		c-4.58,0.47-0.62,3.95-1.83,5.66c2.41,2.23,0.77,3.07-1.32,3.1c-2.17,0.03-4.34-0.54-6.51-0.85c-1.55-1.79-2.94-3.79-5.37-4.54
		c-0.55-0.78-1.1-1.57-1.66-2.35c-3.9-4.81-10.56-4.99-14.99-8.92c-0.44-1.05,0.21-1.49,1.03-1.84c1.42-0.25,2.72,0.24,4.05,0.58
		c3.38,1.22,6.26-0.09,9.2-1.6c5.45-2.8,9.6-7.45,14.92-10.37c3.38-1.85,6.53-4.84,11.02-3.34
		C258.76,323.57,259.31,320.54,261.29,321.12z"/>
	<path class="st188" d="M217.88,338.16c-0.42,0.45-0.83,0.9-1.25,1.35c-3.17-1.02-2.17-3.64-2.25-5.84
		c1.54-1.14,3.07-2.28,4.61-3.42c1.21-0.88,2.5-0.55,3.73-0.14c0.87,0.29,1.86,0.7,1.98,1.75c0.16,1.31-0.75,2.21-1.84,2.43
		C220.5,334.78,218.69,335.78,217.88,338.16z"/>
	<path class="st189" d="M252.3,353c5.02-6.74,5.02-6.74,9.89-2.13c0.16,0.92,0.32,1.84-0.83,2.29c-2.52,1.96-5.28,1.7-8.1,0.85
		C252.94,353.67,252.62,353.34,252.3,353z"/>
	<path class="st190" d="M253.26,354.01c2.7-0.28,5.4-0.57,8.1-0.85c-1.8,3.57-5.06,1.99-7.81,2.22
		C253.46,354.92,253.36,354.47,253.26,354.01z"/>
	<path class="st191" d="M292.2,170.24c-0.68-0.75-1.9-1.35-2.42-0.68c-3.96,5.15-7.6,1.5-11.32-0.25c-0.91,0.07,0.84-2.93-1.55-1.29
		c-0.88,0.6-1.93,1.22-3.13,1.2c-3.4-0.35-7.23,3.34-10.21-1.06c3.76-4.18,4.93-9.03,3.73-14.47c-0.34-0.93-0.74-1.84-1.12-2.76
		c-0.5-1.63-1.56-3.11-1.43-4.93c2.79-3.31,3.43-7.46,4.43-11.45c0.4-1.61,0.69-3.04,2.78-2.77c1.79,0.23,1.9,1.62,1.9,2.99
		c0.01,4.79,3.13,4.32,5.79,2.91c3.35-1.78,6.62-2.47,10.25-1.59l0.04,0.07c1.83,1.53,7.48,1.71,1.87,5.83
		c-1.7,1.25-0.18,3.12,0.5,4.64c1.12,1.66,0.09,3.16-0.33,4.71c-1.36,5.71,0.19,10.32,5.09,13.74c1.02,0.71,2.39,1.31,1.99,3.01
		c-0.79,0.75-1.58,1.49-2.36,2.24C295.18,171.74,293.67,171.78,292.2,170.24z"/>
	<path class="st192" d="M326.45,170.42c-0.77,0.79-1.96,1.44-2.25,2.38c-1.57,5.16-5.19,7.47-10.32,7.9
		c6.55-6.26,7.51-15.41,11.84-22.82c1.07-1.84-0.27-2.9-1.47-3.76c-5.51-3.98-8.77-10.08-13.79-14.5c-1.26-1.88-2.83-3.51-4.37-5.16
		c-1.88-3.01-6.9-1.99-7.88-6.14c6.1-1.53,11.53-4.62,17.58-7.74c-0.52,6.58-1.52,12.87,1.52,18.73c1.54-0.37,2.53,0.55,3.32,1.6
		c1.07,1.43,1.48,2.9,4.22,2.19c2.01-0.52,3.36,1.89,2.81,4.37C330.15,155.27,326.29,162.74,326.45,170.42z"/>
	<path class="st193" d="M299.06,168.09c-4.76-2.39-8.18-5.88-8.98-11.34c-0.29-1.96-0.94-4.13,1.04-5.75
		c0.68-0.66,1.43-0.64,2.22-0.24c0.77,4.66,0.06,9.76,4.58,13.24c2.11,1.62,0.29-1.26,1.15-0.82c4.1-1.29,6.51-3.97,6.94-8.29
		c0.61-1.67-0.27-3.59,0.88-5.17c1.35-0.52,1.82,0.65,2.55,1.32C312.61,160.79,308.23,167.98,299.06,168.09z"/>
	<path class="st194" d="M298.21,128.32c2.81,2.06,6.82,2.21,8.82,5.55c0.02,1.21-0.02,2.39-1.17,3.17
		c-5.23-1.66-10.63-0.38-15.93-0.87c0,0-0.04-0.07-0.04-0.07c0.46-1.6,0.93-3.19,1.41-4.87c-1.69-1.34-3.6-0.33-5.31-0.66
		c-1.67-0.33-2.4-1.08-0.94-2.58c1.33,1.91,3.35,1.24,5.14,1.31c1.66,0.07,2.97,0.38,3.11,2.36c2.61,2.3,6.31-0.02,9.9,2.9
		c-2.43-2.39-5.12-1.06-6.47-3.03C297.06,130.38,293.25,127.33,298.21,128.32z"/>
	<path class="st195" d="M250.54,141.76c1.02-4.38,3.3-7.43,7.01-9.3c2.02-1.01,4.1-1.34,5.58,0.73c0.82,1.14,2.6,2.07,1.97,3.79
		c-0.62,1.69-2.33,0.67-3.52,0.82C257.65,138.29,254.2,140.04,250.54,141.76z"/>
	<path class="st196" d="M268.18,153.3c1.97,7.92,0.59,12.38-4.61,14.87c-1.9,1.1-3.56,1.22-4.57-1.17c0.14-0.15,0.29-0.31,0.42-0.46
		c1.47-1.27-1.73-2.05-0.36-3.31c4.72-1.09,6.36-4.39,6.35-8.87C266.12,153.46,266.89,152.71,268.18,153.3z"/>
	<path class="st197" d="M292.2,170.24c1.5,0.03,3,0.06,4.5,0.09c0.14,0.13,0.43,0.32,0.4,0.37c-2.38,5.19-14.31,11.12-19.32,9.57
		c-0.83-0.26-1.53-0.91-2.38-1.9C282.88,179.19,289.19,177.97,292.2,170.24z"/>
	<path class="st198" d="M273.78,169.23c1-2.35,3.89-1.8,5.12-3.8c1.25,1.75-0.11,2.73-0.44,3.89c-1.41,0.09-3.06,0.58-2.88,2.05
		c0.31,2.52,3.51,0.4,4.71,2.64c-1.74,1.49-3.51,1.28-5.4,0.22C272.64,172.97,273.66,171.01,273.78,169.23z"/>
	<path class="st199" d="M253.34,161.29c-1.96-4.36-1.94-8.6,0.81-12.66c1.16,0.13,2.76-1,3.22,1.14c-1.15,3.72-1.13,7.69-2.51,11.36
		C254.4,161.61,253.89,161.66,253.34,161.29z"/>
	<path class="st200" d="M293.14,150.84c-0.68,0.06-1.35,0.11-2.03,0.17c0.4-1.46,0.79-2.91,1.19-4.37c2.97-4.24,7.4-2.44,11.32-2.7
		c0.28,0.3,0.4,0.62,0.37,0.96c-0.03,0.35-0.09,0.53-0.16,0.53C300.1,146.88,296.45,148.51,293.14,150.84z"/>
	<path class="st201" d="M256.84,148.89c-0.92,0.15-1.97,1.52-2.69-0.27c2.58-4.73,7.14-1.41,10.59-2.62
		c1.4,1.37,2.71,2.78,2.25,4.98C263.51,150.78,260.47,148.44,256.84,148.89z"/>
	<path class="st202" d="M270.37,125.82c3.39,0.63,6.78,1.27,10.17,1.9c-3.46,1.21-7.05,0.66-10.59,0.7
		c-0.8,0.01-2.21,0.16-1.81-1.23C268.32,126.57,269.6,126.27,270.37,125.82z"/>
	<path class="st203" d="M303.51,145.59c0.04-0.55,0.08-1.1,0.12-1.65c4.05,0.65,4.94,3.87,5.82,7.11c-0.79-0.41-1.58-0.82-2.37-1.23
		C304.92,149.22,303.48,148.03,303.51,145.59z"/>
	<path class="st204" d="M305.87,137.04c0.03-1.19-0.18-2.46,1.17-3.17c1.96,1.43,3.36,3.19,3.43,5.74
		C308.93,138.76,307.4,137.9,305.87,137.04z"/>
	<path class="st205" d="M287.16,183.54c-1.57,1.81-2.96,2.87-4.97,2.25c-0.29-0.09-0.62-1.16-0.5-1.26
		C283.12,183.3,284.71,182.51,287.16,183.54z"/>
	<path class="st196" d="M253.34,161.29c0.41,0,0.83,0.01,1.24,0.01c3.07,0.66,3.77,3.16,4.43,5.69c0,0-0.02,0.02-0.02,0.02
		C255.07,167.11,254.25,164.16,253.34,161.29z"/>
	<path class="st206" d="M327.65,147.47c-1.48-0.83-1.24-6.45-4.85-1.67c-0.59,0.78-1.53-0.83-1.81-1.56
		c-0.76-2.03-2.3-3.41-3.68-4.93c0.02-0.32,0.04-0.64,0.06-0.95c0.84-1.17,1.68-2.36,3.38-2.21c4.47,4.47,7.95,10.21,14.89,11.47
		c0.34,2.38-0.86,4.46-1.29,6.69c-0.7,0.01-1.41,0.01-2.11,0.02C331.65,151.41,329.99,149.21,327.65,147.47z"/>
	<path class="st207" d="M296.73,131.52c2.63,0.03,5.22,0.2,6.95,2.9c-3.2-2.04-7.76,1.84-10.37-2.77
		C294.45,131.61,295.59,131.56,296.73,131.52z"/>
	<path class="st208" d="M320.75,136.15c-0.77,1.29-2.12,1.68-3.39,2.21c-0.12-1.67-0.5-3.4,1.14-4.64
		C319.93,133.91,320.75,134.64,320.75,136.15z"/>
	<path class="st209" d="M336.83,163.34c-0.02-1.88-0.26-3.8,0-5.64c0.27-1.86,0.8-4.07,3.55-2.11
		C341.05,159.02,342.31,162.72,336.83,163.34z"/>
	<path class="st210" d="M275.21,314.4c3.11-4.97,7.68-7.15,13.46-7.01c-2.94,2.78-7.04,4.25-9.1,8.03
		C277.7,316.84,276.39,315.9,275.21,314.4z"/>
	<path class="st188" d="M261.29,321.12c-1.42,2.22-1.93,4.34-6.15,3.08c-4.55-1.35-8.62,2.92-12.23,5.74
		c-4.04,3.17-8.13,6.23-12.59,8.7c-2.78,1.54-5.9,2.92-9.1,0.67c-2.58-1.94-0.82-3.52,0.76-4.38c9.52-5.16,17.02-13.18,26.62-18.26
		c4.12-2.18,7.18-6.21,10.35-9.47c5.12-5.27,11.86-8.09,16.92-13.2c2.55-2.57,5.86-4.31,9.31-5.33c3.59-1.06,7.24-1.18,8.13,3.89
		c-0.6,1.27-1.65,2.59-2.95,2.16c-6.36-2.08-7.39,1.78-7.79,6.58c-0.04,0.52-0.45,1.02-0.69,1.53c-0.75,0.77-1.5,1.53-2.25,2.3
		c-3.44,2.68-6.88,5.36-10.31,8.04C266.11,315.29,263.57,318.08,261.29,321.12z"/>
	<path class="st211" d="M293.31,292.56c-2.73-3.59-5.68-4.31-9.7-1.6c-7.7,5.19-15.4,10.17-22.35,16.54
		c-6.29,5.77-13.02,11.31-20.37,16c-5.79,3.7-10.92,8.42-17.21,11.48c-1.35,0.65-3.57,1.82-2.46,4.34
		c-1.11-0.38-2.23-0.77-3.34-1.15c-0.61-3.28-0.61-3.28,6.67-6.12c-2.22-0.72-3.89-1.25-5.56-1.79c6.4-4.28,10.41-10.42,13.51-17.27
		c3.12,0.19,2.26,2.29,1.86,4.03c-0.53,2.27-2.31,3.9-3.29,6.07c0.88-1.21,1.43-2.6,2.75-3.3c12.46-6.58,21.64-17.31,32.67-25.7
		c5.14-3.9,10.22-7.89,15.41-11.73c7.4-0.94,10.83,4.59,14.87,9.12C295.91,292.78,294.57,292.53,293.31,292.56z"/>
	<path class="st212" d="M281.9,282.35c-3.09,6.04-9.29,8.55-14.27,12.42c-9.22,7.17-16.96,16.11-26.93,22.37
		c-4.19,2.63-8.58,4.99-12.14,10.21c0.51-6.08,7.02-8.82,3.94-14.38c2.2-5.54,4.3-11.13,8.01-15.91c1.12-0.14,3.12-1.2,1.61,1.47
		c-2.28,4.01-4.97,7.83-5.61,12.64c2.19,0.83,3.59-0.4,4.68-1.5c9.04-9.06,20.09-15.61,29.69-23.96c0.92-0.8,2.93-1.38,1.87-3.41
		C275.8,280.21,278.85,280.94,281.9,282.35z"/>
	<path class="st213" d="M101.22,214.51c-0.05,3.2-2.17,4.62-4.44,4.46c-2.58-0.18-4.37-2.31-4.56-5.05
		c-0.21-2.93,2.11-4.33,4.37-4.18C99.18,209.91,100.68,212.16,101.22,214.51z"/>
	<path class="st214" d="M259.01,166.99c-1.48-1.9-2.95-3.79-4.43-5.69c-0.46-4.36-0.54-8.64,2.26-12.4
		c4.24-3.45,7.12-0.31,10.15,2.1c0.92,0.5,1.14,1.36,1.19,2.31c-0.74,0.37-1.49,0.74-2.23,1.11c-7.18-0.11-7.25-0.01-6.72,8.84
		c0.19,2,2.65,1.68,3.46,3.5C261.37,166.83,260.19,166.91,259.01,166.99z"/>
	<path class="st215" d="M303.51,145.59c1.19,1.41,2.37,2.81,3.56,4.22c-0.52,1.55,2.28,3.27-0.24,4.71
		c-2.56,0.23-3.3-3.91-6.29-2.58c-1.31,0.59-2.3,1.61-3.4,2.46c-1.73,1.45-1,2.85,0.09,4.24c0.91,1.52,1.94,3,1.82,4.9
		c0.34,0.43,0.92,0.84,0.97,1.3c0.22,1.94-1.13,0.76-1.58,0.58c-5.26-2.2-7.22-7.67-5.3-14.59
		C295.11,146.15,298.71,144.68,303.51,145.59z"/>
	<path class="st216" d="M299.05,163.55c-0.85-1.5-1.71-2.99-2.56-4.49c-0.82-1.24-1.03-2.56-0.52-3.97c1.47-1.3,5.3-0.31,4.11-4.21
		c3.91-1.84,5.27,1.01,6.75,3.65C306.97,161,305.09,163.19,299.05,163.55z"/>
	<path class="st217" d="M255.48,137.28c2.37-3,3.94-4.19,6.75-1.74C259.98,136.12,258.3,136.56,255.48,137.28z"/>
	<path class="st218" d="M259.23,163.25c-0.57-1.16-1.31-2.27-1.66-3.49c-0.8-2.74,0-5.23,2.18-6.96c2.57-2.03,4.41-0.03,6.2,1.61
		C267.01,161.88,265.44,163.94,259.23,163.25z"/>
	<path class="st219" d="M300.08,150.88c0.94,1.57,3.85,2.73,1.95,4.98c-2.08,2.46-3.41-0.47-4.99-1.35
		c-0.41-0.2-0.56-0.44-0.48-0.71c0.09-0.29,0.2-0.43,0.32-0.43C297.97,152.58,298.25,150.73,300.08,150.88z"/>
	<path class="st220" d="M296.87,153.37c0.05,0.38,0.11,0.76,0.16,1.14c-0.18,1.52-0.36,3.03-0.54,4.55
		C293.18,156.94,293.05,155.02,296.87,153.37z"/>
</g>
<g>
	<path d="M258.65,141.77c5.35-0.14,10.8,0.74,16.1,2.75c4.31,1.63,8.63,1.58,12.93,0c11.48-4.22,22.94-3.33,34.38,0.18
		c0.75,0.23,1.69,1.11,1.88,1.9c0.3,1.24-0.64,1.92-1.49,2.82c-1.24,1.31-2.06,3.36-2.58,5.26c-0.66,2.41-0.75,5.02-1.23,7.5
		c-1.17,5.93-3.96,8.73-9.74,9.48c-4.01,0.53-7.98,0.53-11.83-1.24c-4.14-1.9-7.03-5.29-9-9.77c-0.85-1.95-1.38-4.09-2.3-5.99
		c-0.69-1.42-1.64-2.76-2.7-3.83c-1.54-1.55-4.21-0.65-5.47,1.88c-1.06,2.14-1.89,4.44-2.77,6.7c-2.77,7.11-7.37,11.52-14.24,12.35
		c-3.8,0.46-7.6,0.35-11.28-1.26c-2.39-1.05-3.94-2.97-4.73-5.6c-0.68-2.25-1-4.65-1.54-6.96c-0.55-2.36-1.08-4.73-1.79-7.03
		c-0.22-0.7-1.09-1.1-1.52-1.75c-0.52-0.8-1.17-1.7-1.23-2.6c-0.03-0.55,0.87-1.5,1.49-1.72
		C246.01,142.77,252.15,141.72,258.65,141.77z"/>
</g>
</svg>
