<?xml version="1.0" encoding="utf-8"?>
<!-- Generator: Adobe Illustrator 24.0.2, SVG Export Plug-In . SVG Version: 6.00 Build 0)  -->
<svg version="1.1" id="Capa_1" xmlns="http://www.w3.org/2000/svg" xmlns:xlink="http://www.w3.org/1999/xlink" x="0px" y="0px"
	 viewBox="0 0 450 450" style="enable-background:new 0 0 450 450;" xml:space="preserve">
<style type="text/css">
	.st0{fill:none;stroke:#000000;stroke-miterlimit:10;}
	.st1{fill:#FDFDFD;}
	.st2{fill:#2A97E1;}
	.st3{fill:#B0C04A;}
</style>
<rect x="-0.31" y="1.31" class="st0" width="450" height="448"/>
<g>
	<g>
		<path class="st1" d="M226,378.95c-58.57,0-117.15-0.01-175.72,0.05c-1.9,0-2.28-0.37-2.28-2.28c0.06-114.81,0.06-229.63,0-344.44
			c0-1.9,0.37-2.28,2.28-2.28c117.15,0.06,234.3,0.06,351.45,0c1.9,0,2.28,0.37,2.28,2.28c-0.06,114.81-0.06,229.63,0,344.44
			c0,1.91-0.37,2.28-2.28,2.28C343.15,378.93,284.57,378.95,226,378.95z M170.92,300.52c0.1,0.47,0.44,0.57,0.85,0.56
			c2.91,1.98,6.13,3.27,9.35,4.65c20.91,8.96,42.59,11.38,64.94,7.59c18.88-3.21,35.72-11.14,50.88-22.75
			c5.44-4.16,10.19-9.06,14.42-14.44c4.91-6.24,10.47-12.01,13.88-19.34c2.24-4.81,5-9.39,6.2-14.64c1.08-0.23,1-1.25,1.23-1.97
			c7.64-22.92,7.73-45.94,0.52-68.93c-2.98-9.49-7.29-18.34-13.04-26.64c-9.59-13.84-21.06-25.46-35.68-33.89
			c-0.59-0.34-1.16-0.55-1.83-0.48c-12.92-8.79-27.54-12.63-42.78-14.67c-6.85-0.95-13.74-1.12-20.62-0.68
			c-4.62,0.3-9.26,0.74-13.73,2.13c-0.8-0.37-1.63-0.26-2.43-0.09c-7.04,1.55-13.93,3.57-20.45,6.71c-3.64,0.78-6.85,2.51-9.96,4.45
			l0.06-0.01c-0.22,0.16-0.44,0.33-0.66,0.49l0.05-0.01c-2.25,0.5-3.93,1.93-5.61,3.37l0.04-0.06c-0.22,0.17-0.43,0.34-0.65,0.51
			l0.01-0.02c-0.34,0.15-0.68,0.29-1.02,0.44c-2.24,1.15-4.49,2.29-5.73,4.67c-0.74-0.03-1.44-0.02-2.09,0.5
			c-2.3,1.82-4.75,3.47-6.94,5.41c-4.84,4.3-9.27,9.03-13.12,14.23c-2.61,3.52-5.67,6.79-7.07,11.09
			c-3.66,4.72-6.03,10.22-8.27,15.61c-6.89,16.53-8.93,33.89-7.31,51.69c-0.14,1.39-0.01,2.76,0.21,4.15
			c1.8,11.07,4.39,21.85,10.03,31.75c2.19,3.85,3.99,7.95,6.48,11.62c6.63,9.8,14.06,18.91,23.53,26.17
			c4.54,3.48,8.86,7.27,14.12,9.69l-0.04-0.02c0.21,0.51,0.6,0.68,1.12,0.61l-0.02-0.01C169.98,300.54,170.43,300.58,170.92,300.52
			L170.92,300.52z"/>
		<path class="st2" d="M331.44,242.14c-1.2,5.25-3.96,9.83-6.2,14.64c-3.41,7.33-8.97,13.11-13.88,19.34
			c-4.23,5.37-8.98,10.27-14.42,14.44c-15.16,11.61-32,19.55-50.88,22.75c-22.35,3.79-44.02,1.37-64.94-7.59
			c-3.22-1.38-6.45-2.67-9.35-4.65c-0.28-0.19-0.57-0.37-0.85-0.56c0,0,0.01,0.01,0.01,0.01c-0.23-0.47-0.61-0.65-1.12-0.57
			c0,0,0.02,0.01,0.02,0.01c-0.19-0.54-0.48-0.9-1.12-0.61c0,0,0.04,0.02,0.04,0.02c0.2-1.45-1.11-1.72-1.9-2.38
			c-0.92-0.77-2.06-1.32-2.82-2.21c-2.87-3.37-5.66-6.82-8.42-10.28c-1.33-1.68-3.74-3.21-1.13-5.73c0.18-0.17,0.14-0.78-0.02-1.06
			c-1.37-2.27-1.7-4.94-3.22-7.24c-1.82-2.76-3.74-5.92-2.55-9.53c1.04-3.17,0.25-6.07-1.48-8.42c-1.67-2.27-4.13-4.02-6.44-5.73
			c-1.38-1.02-3.46-0.58-4.75-2.37c-0.76-1.06-1.36-3.93-3.9-1.9c-0.37-2.23-3.09-3.11-3.13-5.56c-0.03-1.97-1.15-3.64-1.73-5.46
			c-0.49-1.55-1.51-2.95-3.15-3.23c-1.8-0.31-2.45-1.49-3.02-2.87c-1.51-3.66-3.35-7.06-6.71-9.4c-1.62-17.81,0.42-35.17,7.31-51.69
			c2.25-5.38,4.61-10.89,8.27-15.61c1.01-1.03,1.89-2.07,3.66-2c0.77,0.03,2.41-0.49,2.2-1.93c-0.35-2.34,1.28-3.67,2.35-5.31
			c0.38-0.59,1.15-0.9,1.09-1.8c-0.11-1.77,1.12-2.33,2.53-2.38c2.99-0.1,5.39-1.51,7.32-3.55c1.66-1.75,2.79-3.9,3.82-6.17
			c1.41-3.11,4.9-4.8,6.25-8.08c1.23-2.38,3.49-3.52,5.72-4.67c0.71,0.72,0.78-0.06,1.02-0.44c0,0-0.01,0.02-0.01,0.02
			c0.22-0.17,0.43-0.34,0.65-0.51c0,0-0.04,0.06-0.04,0.06c2.37-0.3,4.18-1.51,5.61-3.37c0,0-0.05,0.01-0.05,0.01
			c0.22-0.16,0.44-0.33,0.66-0.49c0,0-0.06,0.01-0.06,0.01c3.9-0.19,7.04-2.06,9.96-4.45c6.52-3.14,13.41-5.16,20.45-6.71
			c0.8-0.18,1.63-0.28,2.43,0.09c-3.12,1.09-6.29,2.07-9.35,3.31c-3.08,1.25-6.01,2.91-9.09,4.15c-5.92,2.38-11.08,5.75-15.26,10.63
			c-1.03,1.21-0.74,2.45-0.14,3.25c0.85,1.13,1.87-0.15,2.43-0.7c3.15-3.1,7.56-4.07,11.01-6.69c1.26-0.96,3.04-1.4,4.73-1.35
			c1.44,0.05,2.79-0.24,4.02-0.85c2.96-1.46,6.1-1.77,9.33-2.19c2.01-0.26,5.16,0.92,6.07-2.53c0.05-0.18,0.85-0.4,0.97-0.28
			c1.96,2,2.49-0.06,3.44-1.14c0.92-1.05,1.75-2.43,3.55-1.69c0.68,0.28,1.25-0.1,1.84-0.36c2.17-0.97,4.34-2.06,6.52-2.83
			c4.55-1.62,9.42-2.12,14.28-2.21c15.23,2.04,29.85,5.89,42.78,14.67c1.1,1.66,0.96,3.95,2.04,5.39c1.63,2.18,0.47,2.05-1.21,1.94
			c0.35,0.6,0.62,1.06,0.89,1.52l0.03-0.03c-1.31-0.64-2.77,0.89-3.83,0.02c-1.43-1.18-2.83-0.17-2.89,0.53
			c-0.21,2.45-3.12,2.13-3.34,2.09c-3.2-0.53-2.69,1.24-1.93,3.32c-1.11-0.54-1.92-1.01-2.77-1.34c-0.98-0.38-0.74,0.38-0.73,0.89
			c-0.11,0.1-0.22,0.2-0.33,0.3c-2.14-0.49-2.14-2.46-2.87-4c0.94-0.25,1.72-0.09,2.53,0.21c1.06,0.4,2.39,0.77,3-0.43
			c0.66-1.29-0.77-1.84-1.55-2.53c-3.66-3.23-8.77-3.61-12.64-6.73c-2.54-2.05-6.24-0.8-9.4,0.08c-0.95,0.27-1.72,0.96-2.79,0.99
			c-2.16,0.08,0.43,0.95-0.27,1.76c-3.63,4.18-7.83,7.33-13.27,8.72c-2.22,0.57-2.9,2.18-2.23,4.33c0.07,0.24,0.68,0.24,0.06,0.65
			c-1.45,0.94-0.4,2.18-0.01,3.03c0.49,1.06,1.7,1.25,2.86,0.75c0.85-0.36,1.72-0.67,2.56-1.06c1.54-0.73,2.36-0.35,2.71,1.4
			c0.38,1.9,1.11,3.72,1.49,5.62c0.29,1.45,0.62,1.25,1.98,0.93c2.77-0.65,4.23-1.93,4.3-4.81c0.02-0.87,1.06-0.92,1.61-1.37
			c1.07-0.88,1.42-1.78,0.39-3.04c-1.55-1.9-1.01-4.52,1.25-5.66c1.44-0.73,2.83-1.2,3.1-3.1c0.15-1.05,1.15-1.03,2.02-0.95
			c0.8,0.08,1.52,0.45,1.72,1.2c0.21,0.77-0.41,1.37-0.96,1.86c-0.41,0.36-0.88,0.71-1.39,0.91c-3.02,1.19-1.24,3.71-1.35,5.54
			c-0.09,1.51,1.82,2,3.11,2.18c1.52,0.21,3.14,0.05,4.66-0.25c0.61-0.12,1.01-0.73,1.44,0.19c0.22,0.48,1.02,0.91,0.67,1.38
			c-0.33,0.43-1.12,0.71-1.71,0.71c-1.09,0-2.19-0.38-3.28-0.37c-1.59,0.01-3.47,0.06-1.3,2.28c0.59,0.6,0.37,1.21,0.12,1.78
			c-0.23,0.51-0.72,0.41-1.19,0.22c-2.74-1.07-3.52-0.65-3.17,2.27c0.32,2.69-1.62,2.83-3.02,2.63c-3.9-0.56-7.84-0.32-11.74-0.83
			c-1.69-0.22-3.53-1.72-2.72-2.48c1.43-1.35,1.26-2.92,1.29-4.54c0.23-0.2,0.39-0.42,0.06-0.64c-0.03-0.02-0.24,0.22-0.37,0.33
			c-2.09,0.48-3.96,1.13-3.33,3.95c0.57,2.54,0.25,4.05-3.08,3.51c-2.85-0.47-4.64,2.27-6.96,3.14c-2.07,0.77-3.66,2.19-5.57,3.1
			c-1.65,0.79-4.38-1.47-5.02,1.76c0,0.01-0.7-0.04-1.02-0.18c-1.45-0.64-3.36-1.63-4.11,0.18c-0.68,1.64,1.7,1.73,2.73,2.48
			c1.81,1.32,2.62,2.92,1.69,5.13c-0.87,2.1-1.68,4.14-4.7,3.3c-2.48-0.69-5.02-1.22-7.56-1.68c-1.52-0.28-2.9-0.19-3.12,1.97
			c-0.16,1.53-0.42,3.11-1.43,4.42c-1.16,1.49-1.1,3.22-1.4,5.01c-0.54,3.3,1.62,2.52,3.12,3.02c0.3,0.1,0.61,0.47,0.73,0.78
			c0.55,1.39,1.56,1.23,2.73,1.02c0.99-0.18,2.03-0.2,3.04-0.13c3.09,0.2,5.23-1.54,6.53-3.89c1.39-2.5,3.16-4.17,5.81-4.96
			c1.2-0.36,2.28-0.69,2.63-2.1c0.35-1.43,1.63-1.81,2.6-1.21c2.52,1.57,4.87,0.59,7.14-0.28c1.87-0.73,3.05,0.04,3.64,1.42
			c1.58,3.71,4.58,5.9,7.72,8.08c1.39,0.96,2.54,2.3,1.03,4.18c-0.16,0.2,0.2,0.81,0.36,1.42c0.77-0.87,1.98-1.67,1.87-2.23
			c-0.53-2.9,1.13-2.19,3.29-1.37c-2.16-2.17-3.4-4.09-5.45-5.34c-2-1.22-2.9-3.52-4.21-5.39c-0.48-0.68-0.46-1.6,0.38-2.22
			c0.76-0.56,1.49-0.62,2.21,0.1c0.59,0.58,1.45,1.03,1.76,1.73c1.23,2.81,3.59,4.4,6.02,5.93c1.08,0.68,1.6,1.57,1.15,2.78
			c-0.55,1.5,0.2,2.61,0.76,3.9c0.7,1.62,3,2.54,2.03,4.95c-0.37,0.92,0.79,1.39,1.48,1.76c1.27,0.66,0.47-1.11,1.29-1.2
			c0.51-0.05,0.19-1.15,1.22-1.05c1.11,0.1,1.3-0.9,0.47-1.35c-1.73-0.93-1.18-2.71-1.98-4.15c1.68,1.36,2.55-0.97,3.8-0.6
			c3.52,1.05,5.93,1.64,6.07-3.8c0.06-2.29,2.84-5.15,5.39-6.93c0.74-0.52,3.99,0.76,4.1,1.62c0.45,3.68,0.59,3.76,4.19,2.4
			c-0.31-0.36-0.61-0.7-0.91-1.05c-0.44-0.53-0.81-1.02,0.01-1.58c1.24-0.84,2.66-0.92,4.01-0.66c0.81,0.15,0.3,1.46,0.16,1.59
			c-2.51,2.47-0.04,3.56,1.31,4.94c0.97,0.99,2.01,1.92,3.01,2.89c0.86,0.85,1.95,1.82,1.04,3.06c-0.83,1.14-2.15,1.18-3.52,0.62
			c-2.22-0.91-4.44-1.94-6.76-2.51c-3.6-0.88-7.17,0.35-10.72,0.86c-0.91,0.13-2.02,0.79-3.05,1.1c-0.86,0.26-1.08,0.61-1.13,1.53
			c-0.26,4.28,2.74,7.29,7.11,7.02c0.53-0.03,1.28-0.08,1.57,0.22c1.33,1.36,2.74,1.05,4.35,0.65c2.46-0.61,3.31,0.23,2.97,2.63
			c-0.46,3.23-2.47,5.75-3.84,8.57c-0.3,0.61-0.86,0.74-1.41,0.58c-5.18-1.53-11.04-0.56-15.6-4.38c-1.11-0.93-2.57-1.45-3.91-2.1
			c-1.45-0.7-4.96,0.47-5.25,1.93c-0.51,2.48-1.74,2.04-3.42,1.27c-4.44-2.05-7.82-5.96-12.7-7.22c-0.09-0.02-0.18-0.07-0.24-0.13
			c-1.09-1.05-2.66-1.81-0.47-3.57c1.86-1.5,1.08-4.8-1.21-5.26c-6.24-1.26-12.62-2.51-18.88-0.64c-3.31,0.99-6.21,1.38-9.2-0.47
			c-0.93-0.57-2.06-0.95-2.76,0.04c-1.44,2.04-3.71,2.87-5.56,4.29c-1.2,0.92-2.49,2-2.75,3.71c-0.4,2.66-2.11,4.5-4.4,5.28
			c-2.93,1-5.01,2.91-6.49,5.3c-2.23,3.58-6,6.62-5.21,11.5c0.45,2.78-0.24,5.31-0.86,7.91c-0.77,3.24-0.69,6.32,1.22,9.3
			c1.74,2.72,3.18,5.65,4.81,8.43c2.02,3.44,5.46,6.61,9.08,7.06c5.22,0.65,10.67,2.24,16.1,0.02c1.74-0.71,4.44-0.44,5.42,1.56
			c1.31,2.68,3.42,2.98,5.84,3.22c2.93,0.29,3.31,0.88,2.51,3.57c-0.26,0.89-0.44,1.82-0.85,2.64c-1.22,2.4-0.91,4.5,0.68,6.66
			c2.28,3.11,3.38,6.66,3.89,10.54c0.57,4.34-1.99,7.35-3.66,10.79c-0.46,0.94-1.51,1.86-0.93,2.98c1.92,3.68,2.03,7.56,1.76,11.57
			c-0.18,2.69,1.5,5.25,0.51,8.12c-0.29,0.85,1.17,1.28,2.31,1.36c4.42,0.31,8.19-1.24,12.06-3.24c2.62-1.36,3.79-4.66,7.08-4.86
			c1.92-0.12,3.21-1.26,3.6-2.97c0.91-4.01,4.25-5.29,7.37-5.75c4.79-0.7,7.28-5.26,8.21-10.21c0.81-4.33,2.54-8.49,6.13-10.7
			c3.11-1.92,6.06-4.28,9.42-5.69c6.01-2.52,9.95-7.27,13.95-11.98c1.18-1.39,2.28-3.01,2.44-5.14c-3.47,0.48-6.65,0.95-9.84,1.34
			c-0.9,0.11-2.98-2.63-2.44-2.93c2.01-1.11,0.32-2.17,0.14-3.24c-0.42-2.39-3.24-3.52-3.39-5.9c-0.26-3.94-2.71-7.53-1.75-11.65
			c0.12-0.51,0.04-1.16-0.19-1.64c-1.86-3.89-2.11-8.2-3.27-12.27c-0.54-1.88-2.03-3.54-1.56-5.84c1.24,1,1.4,2.43,1.53,3.58
			c0.23,1.96,1.94,0.22,2.63,1.45c2.01,3.59,2.4,7.78,4.5,11.34c1.39,2.35,0.26,5.25,1.72,7.94c1.47,2.72,2.33,5.98,1.39,9.56
			c-1.15,4.37-0.24,4.99,4.27,4.31c0.63-0.1,1.26-0.25,1.87-0.43c3.73-1.13,7.29-2.93,10.95-3.96c5.25-1.48,7.86-5.3,10.8-9.1
			c1.05-1.35,0.73-2.89-0.22-3.8c-1.72-1.64-2.3-3.6-2.4-6.3c-0.68,0.79-1.02,1.19-1.38,1.59c-0.37,0.42-0.7,0.88-1.13,1.22
			c-1.27,1-4.11,0.95-4.48-0.05c-0.38-1.04,1.14-2.94-1.37-3.03c0-2.96-1.89-5.3-2.64-8.01c-0.38-1.37,0.31-2.07,1.59-2.36
			c1.37-0.31,1.78,0.57,2.08,1.62c0.22,0.8,0.3,1.69,0.7,2.39c1.2,2.09,2.87,4.86,4.93,4.73c2.35-0.15,3.2-0.13,3.34,2.24
			c0.04,0.59,0.78,0.72,1.18,1.07c2.36,2.08,5.43,1.34,8.12,2.1c0.65,0.18,1.75-0.23,1.79,0.82c0.11,2.56,2.56,4.54,1.68,7.35
			c-0.24,0.75,0.02,1.74,0.81,2.23c0.9,0.56,1.19-0.74,2.31-0.99c-2.69,8.96-2.78,18.11-5.38,26.83c1.15-0.68,1.68-1.82,2.83-2.27
			c0.25,2.11-2.75,2.92-2.15,5.55c2.01-1.59,3.33-3.09,2.2-5.58c4.34-8.41,9.26-16.44,14.92-24.44
			C333.99,233.08,331.36,237.4,331.44,242.14z M276.3,113.83c0.43,0.49,1.13,1.23,1.53,0.64c0.41-0.61-0.62-0.8-1.13-1.05
			c-1.28-1.44-2.62-2.82-3.81-4.32c-1.01-1.29-1.81-2.74-2.78-4.07c-0.29-0.4-0.83-0.83-1.4-0.3c-0.39,0.37-0.42,0.87-0.02,1.21
			C271.5,108.3,272.25,112.66,276.3,113.83z M205.75,145.21c2.67,0.37,5.11-0.74,7.55,0.06c2.45,0.81,3.67-0.96,4.9-2.55
			c1.4-1.81-1.36-1.2-1.35-2.26c0.01-0.55-0.09-1.12-0.26-1.64c-0.47-1.46-0.73-3.11-1.61-4.29c-0.64-0.86-0.88-0.99,0.01-1.72
			c1.81-1.48,2.08-2.7-0.89-2.69c0.18-0.72,1.07-0.73,0.94-1.41c-2.25-1.29-3.12,1.51-4.91,1.61c0.93,1.16-2.46,2.92,0.53,3.79
			c-0.99,1.6-0.02,1.83,1.28,2.2c0.27,0.08,0.42,2.41-0.32,2.4c-2.54-0.05-2.56,2.77-5.05,3.2c1.54,0.6,2.45,0.96,3.79,1.49
			C208.45,143.59,206.93,143.52,205.75,145.21z M267.46,281.12c-3.85,1.39-6.86,4.22-10.9,4.48c-0.28,0.02-0.58,0.45-0.78,0.75
			c-1.99,2.89-4.45,5.35-6.86,7.86c-0.64,0.67-1.94,1.42-0.96,2.49c0.87,0.95,2.08,0.41,3.01-0.3c2.28-1.74,4.73-3.31,6.75-5.31
			C260.95,287.9,265.68,286.17,267.46,281.12z M202.81,116.4c1.6-0.38,3.75-0.87,5.88-1.42c1.16-0.3,1.68-1.22,1.47-2.31
			c-0.23-1.21-1.22-0.67-2.02-0.65c-1.54,0.04-3.13,0.13-4.62,0.05c-2.3-0.13-2.46-0.44-3.28,1.17
			C199.22,115.25,199.94,116.38,202.81,116.4z M201.28,141.47c1.35-1.16,4.1,0.38,4.91-2.35c0.33-1.13,0.49-2.31,2.03-2.58
			c0.73-0.13,0.62-0.82,0.09-1.24c-1.28-1-3-1.14-4.16-0.51c-1.05,0.56-3.07,0.8-2.89,2.55c0.12,1.19-0.36,1.67-1.07,2.23
			c-0.42,0.33-1.06,0.56-0.78,1.26C199.72,141.59,200.47,141.38,201.28,141.47z M144.18,136.01c-1.17,1.32-2.43,2.34-3.16,3.65
			c-1.11,1.98,2.21,1.37,1.99,3.1C143.46,140.6,146.48,139.22,144.18,136.01z M243.07,97.56c1.73,3.39,1.73,3.39,4.78,0.47
			C246.32,97.11,244.74,97.64,243.07,97.56z M231.64,177.15c1.21,0.98,2.15,1.86,3.21,2.55c1.64,1.07,0.94-1.31,1.97-1.47
			c0.47-0.07,0.32-1.14-0.37-1.12C234.97,177.15,233.5,176.06,231.64,177.15z M224.43,171.52c0.15,0.57-0.67,1.84,0.67,1.82
			c1.6-0.02,1.93-1.38,2.04-2.77c0.09-1.07-0.28-1.52-1.37-1.52C223.91,169.06,224.51,170.4,224.43,171.52z M236.8,137.5
			c-0.94-0.01-1.43,0.35-1.28,1.34c0.09,0.61-0.06,1.4,0.96,1.32c0.91-0.07,1.2-0.8,1.41-1.51
			C238.17,137.7,237.4,137.64,236.8,137.5z M226.44,167.99c0.95-0.77,1.36-1.63,1.04-2.91
			C225.65,165.51,225.26,166.38,226.44,167.99z"/>
		<path class="st3" d="M318.25,252.13c-1.14,0.45-1.68,1.59-2.83,2.27c2.6-8.72,2.69-17.87,5.38-26.83
			c-1.12,0.25-1.41,1.54-2.31,0.99c-0.79-0.49-1.05-1.48-0.81-2.23c0.88-2.81-1.56-4.79-1.68-7.35c-0.05-1.05-1.14-0.64-1.79-0.82
			c-2.69-0.76-5.76-0.02-8.12-2.1c-0.4-0.35-1.14-0.48-1.18-1.07c-0.14-2.36-0.99-2.38-3.34-2.24c-2.07,0.13-3.74-2.64-4.93-4.73
			c-0.4-0.7-0.48-1.59-0.7-2.39c-0.29-1.05-0.71-1.93-2.08-1.62c-1.28,0.29-1.97,0.99-1.59,2.36c0.75,2.71,2.64,5.05,2.64,8.01
			c2.51,0.08,0.99,1.98,1.37,3.03c0.37,1,3.21,1.05,4.48,0.05c0.43-0.34,0.76-0.81,1.13-1.22c0.35-0.4,0.7-0.81,1.38-1.59
			c0.1,2.7,0.68,4.66,2.4,6.3c0.95,0.91,1.27,2.45,0.22,3.8c-2.94,3.8-5.55,7.62-10.8,9.1c-3.66,1.03-7.22,2.83-10.95,3.96
			c-0.61,0.19-1.24,0.34-1.87,0.43c-4.51,0.68-5.42,0.06-4.27-4.31c0.94-3.58,0.08-6.84-1.39-9.56c-1.46-2.69-0.33-5.59-1.72-7.94
			c-2.1-3.56-2.49-7.75-4.5-11.34c-0.69-1.23-2.4,0.52-2.63-1.45c-0.14-1.16-0.29-2.59-1.53-3.58c-0.47,2.3,1.02,3.96,1.56,5.84
			c1.17,4.07,1.42,8.38,3.27,12.27c0.23,0.47,0.31,1.13,0.19,1.64c-0.96,4.12,1.49,7.71,1.75,11.65c0.16,2.38,2.98,3.51,3.39,5.9
			c0.19,1.07,1.87,2.13-0.14,3.24c-0.54,0.3,1.54,3.04,2.44,2.93c3.19-0.39,6.37-0.86,9.84-1.34c-0.15,2.13-1.26,3.76-2.44,5.14
			c-4,4.72-7.94,9.46-13.95,11.98c-3.36,1.41-6.31,3.78-9.42,5.69c-3.59,2.21-5.32,6.37-6.13,10.7c-0.93,4.96-3.42,9.52-8.21,10.21
			c-3.12,0.45-6.46,1.74-7.37,5.75c-0.39,1.71-1.68,2.85-3.6,2.97c-3.29,0.2-4.45,3.5-7.08,4.86c-3.87,2.01-7.63,3.55-12.06,3.24
			c-1.14-0.08-2.6-0.51-2.31-1.36c0.99-2.88-0.69-5.43-0.51-8.12c0.27-4.01,0.16-7.89-1.76-11.57c-0.58-1.12,0.47-2.04,0.93-2.98
			c1.67-3.44,4.23-6.45,3.66-10.79c-0.51-3.88-1.61-7.42-3.89-10.54c-1.59-2.17-1.9-4.27-0.68-6.66c0.41-0.81,0.59-1.75,0.85-2.64
			c0.8-2.69,0.42-3.28-2.51-3.57c-2.42-0.24-4.53-0.54-5.84-3.22c-0.98-2-3.68-2.27-5.42-1.56c-5.43,2.22-10.88,0.62-16.1-0.02
			c-3.62-0.45-7.05-3.62-9.08-7.06c-1.63-2.78-3.07-5.71-4.81-8.43c-1.91-2.98-1.99-6.05-1.22-9.3c0.62-2.6,1.3-5.13,0.86-7.91
			c-0.79-4.88,2.99-7.92,5.21-11.5c1.49-2.39,3.56-4.3,6.49-5.3c2.29-0.78,4-2.62,4.4-5.28c0.26-1.71,1.55-2.79,2.75-3.71
			c1.86-1.42,4.12-2.25,5.56-4.29c0.7-0.99,1.83-0.61,2.76-0.04c2.99,1.85,5.9,1.46,9.2,0.47c6.26-1.87,12.64-0.61,18.88,0.64
			c2.29,0.46,3.06,3.76,1.21,5.26c-2.18,1.76-0.62,2.52,0.47,3.57c0.06,0.06,0.16,0.11,0.24,0.13c4.88,1.26,8.26,5.17,12.7,7.22
			c1.68,0.77,2.91,1.21,3.42-1.27c0.3-1.45,3.81-2.63,5.25-1.93c1.33,0.65,2.8,1.17,3.91,2.1c4.57,3.83,10.43,2.85,15.6,4.38
			c0.55,0.16,1.11,0.03,1.41-0.58c1.37-2.82,3.38-5.34,3.84-8.57c0.34-2.4-0.51-3.24-2.97-2.63c-1.6,0.4-3.02,0.71-4.35-0.65
			c-0.29-0.3-1.04-0.25-1.57-0.22c-4.37,0.28-7.37-2.74-7.11-7.02c0.06-0.92,0.27-1.26,1.13-1.53c1.03-0.32,2.14-0.97,3.05-1.1
			c3.54-0.51,7.11-1.74,10.72-0.86c2.32,0.57,4.54,1.59,6.76,2.51c1.36,0.56,2.68,0.52,3.52-0.62c0.91-1.25-0.18-2.22-1.04-3.06
			c-0.99-0.97-2.03-1.9-3.01-2.89c-1.35-1.37-3.82-2.47-1.31-4.94c0.13-0.13,0.65-1.44-0.16-1.59c-1.35-0.25-2.76-0.18-4.01,0.66
			c-0.82,0.56-0.45,1.05-0.01,1.58c0.29,0.35,0.6,0.7,0.91,1.05c-3.6,1.37-3.74,1.28-4.19-2.4c-0.1-0.86-3.36-2.14-4.1-1.62
			c-2.54,1.78-5.33,4.64-5.39,6.93c-0.14,5.44-2.56,4.85-6.07,3.8c-1.25-0.37-2.12,1.96-3.8,0.6c0.8,1.44,0.25,3.22,1.98,4.15
			c0.84,0.45,0.65,1.45-0.47,1.35c-1.03-0.09-0.7,1-1.22,1.05c-0.82,0.08-0.02,1.86-1.29,1.2c-0.69-0.36-1.85-0.84-1.48-1.76
			c0.97-2.41-1.33-3.33-2.03-4.95c-0.56-1.29-1.31-2.4-0.76-3.9c0.45-1.22-0.07-2.1-1.15-2.78c-2.43-1.53-4.79-3.12-6.02-5.93
			c-0.31-0.7-1.17-1.15-1.76-1.73c-0.72-0.71-1.45-0.66-2.21-0.1c-0.84,0.62-0.85,1.54-0.38,2.22c1.31,1.87,2.2,4.17,4.21,5.39
			c2.05,1.25,3.3,3.17,5.45,5.34c-2.16-0.82-3.82-1.53-3.29,1.37c0.1,0.56-1.11,1.35-1.87,2.23c-0.17-0.61-0.52-1.22-0.36-1.42
			c1.51-1.89,0.35-3.22-1.03-4.18c-3.14-2.18-6.14-4.36-7.72-8.08c-0.59-1.38-1.77-2.15-3.64-1.42c-2.26,0.88-4.61,1.85-7.14,0.28
			c-0.97-0.6-2.25-0.21-2.6,1.21c-0.35,1.42-1.44,1.75-2.63,2.1c-2.65,0.79-4.43,2.46-5.81,4.96c-1.3,2.35-3.44,4.09-6.53,3.89
			c-1.01-0.07-2.05-0.05-3.04,0.13c-1.17,0.21-2.18,0.37-2.73-1.02c-0.13-0.32-0.43-0.68-0.73-0.78c-1.5-0.5-3.66,0.28-3.12-3.02
			c0.29-1.79,0.23-3.52,1.4-5.01c1.02-1.3,1.28-2.89,1.43-4.42c0.22-2.16,1.6-2.25,3.12-1.97c2.54,0.46,5.07,0.99,7.56,1.68
			c3.02,0.84,3.83-1.2,4.7-3.3c0.92-2.22,0.12-3.81-1.69-5.13c-1.03-0.75-3.41-0.84-2.73-2.48c0.75-1.81,2.66-0.83,4.11-0.18
			c0.32,0.14,1.02,0.19,1.02,0.18c0.64-3.24,3.38-0.97,5.02-1.76c1.9-0.91,3.49-2.33,5.57-3.1c2.33-0.87,4.11-3.61,6.96-3.14
			c3.33,0.54,3.65-0.98,3.08-3.51c-0.63-2.82,1.23-3.46,3.33-3.95c0.1,0.11,0.21,0.21,0.32,0.31c-0.03,1.62,0.14,3.19-1.29,4.54
			c-0.81,0.76,1.03,2.26,2.72,2.48c3.9,0.51,7.83,0.27,11.74,0.83c1.39,0.2,3.33,0.06,3.02-2.63c-0.34-2.91,0.43-3.34,3.17-2.27
			c0.47,0.19,0.96,0.29,1.19-0.22c0.26-0.57,0.47-1.18-0.12-1.78c-2.18-2.21-0.3-2.27,1.3-2.28c1.09,0,2.18,0.37,3.28,0.37
			c0.59,0,1.38-0.27,1.71-0.71c0.36-0.47-0.44-0.9-0.67-1.38c-0.42-0.91-0.83-0.31-1.44-0.19c-1.52,0.3-3.14,0.46-4.66,0.25
			c-1.28-0.18-3.2-0.67-3.11-2.18c0.11-1.83-1.67-4.35,1.35-5.54c0.51-0.2,0.98-0.54,1.39-0.91c0.55-0.48,1.17-1.08,0.96-1.86
			c-0.2-0.75-0.92-1.12-1.72-1.2c-0.86-0.08-1.87-0.1-2.02,0.95c-0.27,1.9-1.67,2.37-3.1,3.1c-2.26,1.14-2.8,3.76-1.25,5.66
			c1.03,1.26,0.67,2.16-0.39,3.04c-0.55,0.45-1.59,0.5-1.61,1.37c-0.07,2.88-1.52,4.16-4.3,4.81c-1.36,0.32-1.69,0.52-1.98-0.93
			c-0.38-1.9-1.11-3.72-1.49-5.62c-0.35-1.75-1.17-2.13-2.71-1.4c-0.83,0.39-1.71,0.7-2.56,1.06c-1.16,0.49-2.37,0.31-2.86-0.75
			c-0.39-0.85-1.44-2.09,0.01-3.03c0.62-0.4,0.01-0.41-0.06-0.65c-0.67-2.15,0.01-3.76,2.23-4.33c5.44-1.39,9.63-4.54,13.27-8.72
			c0.7-0.8-1.89-1.68,0.27-1.76c1.08-0.04,1.84-0.73,2.79-0.99c3.16-0.88,6.86-2.13,9.4-0.08c3.87,3.12,8.98,3.51,12.64,6.73
			c0.78,0.69,2.2,1.23,1.55,2.53c-0.61,1.2-1.94,0.82-3,0.43c-0.81-0.3-1.59-0.46-2.53-0.21c0.73,1.54,0.73,3.51,2.87,4
			c0.41,0.58,0.83,1.15,1.71,0.75c-0.24-0.66-0.84-0.81-1.37-1.06c-0.01-0.51-0.25-1.27,0.73-0.89c0.85,0.33,1.66,0.8,2.77,1.34
			c-0.76-2.08-1.27-3.85,1.93-3.32c0.22,0.04,3.14,0.36,3.34-2.09c0.06-0.7,1.46-1.7,2.89-0.53c1.06,0.87,2.52-0.66,3.83-0.02
			c0,0,0.09,0.14,0.09,0.14l-0.12-0.12c-0.27-0.46-0.54-0.92-0.89-1.52c1.67,0.1,2.84,0.24,1.21-1.94
			c-1.08-1.44-0.94-3.73-2.04-5.39c0.67-0.07,1.24,0.14,1.83,0.48c14.62,8.43,26.09,20.05,35.68,33.89
			c5.75,8.29,10.06,17.14,13.04,26.64c7.21,22.99,7.12,46.01-0.52,68.93c-0.24,0.71-0.16,1.74-1.23,1.97
			c-0.08-4.73,2.55-9.05,1.78-14.48c-5.66,8-10.58,16.03-14.92,24.44L318.25,252.13z M299.55,190.34c2.04,0.02,2.49-0.37,2.38-2.41
			c-0.07-1.34-0.06-2.71-1.02-3.92c-0.48-0.61-1.1-1.91,0.16-2.29c2.7-0.82,0.82-1.9,0.1-2.44c-2.08-1.58-3.07-3.9-4.35-6.01
			c-0.55-0.91,0.15-1.97,1.01-2.23c1.54-0.46,1.98-1.36,1.39-2.66c-0.68-1.5-2.19-1.72-3.55-1.36c-4.38,1.15-5.25,2.85-3.88,7.12
			c0.23,0.71,0.82,1.19,1.19,1.77c1.62,2.53,3.48,4.98,2,8.41C294.14,186.3,297.41,190.32,299.55,190.34z M309.23,173.26
			c-0.15-1.05-0.48-2.41-1.77-2.66c-1.1-0.21-1.01,1.08-1.09,1.85c-0.14,1.48,1.28,1.87,2.14,2.47
			C308.86,175.18,309.3,174.14,309.23,173.26z"/>
		<path class="st3" d="M114.37,216c3.36,2.33,5.2,5.74,6.71,9.4c0.57,1.38,1.22,2.56,3.02,2.87c1.64,0.28,2.66,1.68,3.15,3.23
			c0.58,1.82,1.7,3.49,1.73,5.46c0.04,2.45,2.76,3.33,3.13,5.56c2.54-2.03,3.14,0.85,3.9,1.9c1.29,1.79,3.37,1.35,4.75,2.37
			c2.31,1.71,4.77,3.46,6.44,5.73c1.73,2.34,2.52,5.25,1.48,8.42c-1.19,3.61,0.73,6.77,2.55,9.53c1.52,2.3,1.85,4.97,3.22,7.24
			c0.16,0.27,0.2,0.89,0.02,1.06c-2.62,2.52-0.21,4.06,1.13,5.73c2.76,3.47,5.54,6.91,8.42,10.28c0.76,0.89,1.91,1.44,2.82,2.21
			c0.78,0.66,2.1,0.93,1.9,2.38c-5.26-2.42-9.58-6.21-14.12-9.69c-9.47-7.26-16.91-16.36-23.53-26.17
			c-2.48-3.67-4.29-7.77-6.48-11.62c-5.64-9.9-8.23-20.68-10.03-31.75C114.36,218.77,114.23,217.4,114.37,216z"/>
		<path class="st3" d="M239.87,95.56c-4.86,0.09-9.73,0.58-14.28,2.21c-2.18,0.78-4.35,1.87-6.52,2.83
			c-0.59,0.26-1.16,0.64-1.84,0.36c-1.81-0.74-2.63,0.64-3.55,1.69c-0.94,1.07-1.47,3.13-3.44,1.14c-0.12-0.12-0.92,0.1-0.97,0.28
			c-0.91,3.44-4.05,2.27-6.07,2.53c-3.23,0.42-6.37,0.73-9.33,2.19c-1.24,0.61-2.59,0.9-4.02,0.85c-1.69-0.05-3.47,0.39-4.73,1.35
			c-3.44,2.62-7.86,3.59-11.01,6.69c-0.56,0.55-1.58,1.83-2.43,0.7c-0.61-0.81-0.9-2.05,0.14-3.25c4.18-4.88,9.35-8.25,15.26-10.63
			c3.09-1.24,6.01-2.9,9.09-4.15c3.06-1.24,6.23-2.22,9.35-3.31c4.47-1.39,9.11-1.83,13.73-2.13
			C226.13,94.44,233.02,94.61,239.87,95.56z"/>
		<path class="st3" d="M159.17,117.48c-1.35,3.29-4.84,4.97-6.25,8.08c-1.03,2.27-2.16,4.42-3.82,6.17
			c-1.93,2.04-4.33,3.45-7.32,3.55c-1.41,0.05-2.64,0.61-2.53,2.38c0.06,0.9-0.71,1.21-1.09,1.8c-1.06,1.63-2.69,2.96-2.35,5.31
			c0.21,1.44-1.43,1.96-2.2,1.93c-1.78-0.07-2.65,0.98-3.66,2c1.4-4.31,4.46-7.57,7.07-11.09c3.85-5.2,8.28-9.93,13.12-14.23
			c2.19-1.94,4.64-3.59,6.94-5.41C157.74,117.46,158.43,117.45,159.17,117.48z"/>
		<path class="st3" d="M182.64,103.63c-2.91,2.39-6.06,4.26-9.96,4.45C175.79,106.14,179,104.41,182.64,103.63z"/>
		<path class="st3" d="M172.12,108.55c-1.43,1.86-3.24,3.08-5.61,3.37C168.2,110.49,169.88,109.05,172.12,108.55z"/>
		<path class="st3" d="M165.92,112.37c-0.24,0.39-0.31,1.17-1.02,0.44C165.24,112.66,165.58,112.51,165.92,112.37z"/>
		<path class="st3" d="M168.71,299.36c0.64-0.3,0.93,0.07,1.12,0.61C169.31,300.03,168.92,299.86,168.71,299.36z"/>
		<path class="st3" d="M169.81,299.95c0.51-0.08,0.89,0.1,1.12,0.57C170.43,300.58,169.98,300.54,169.81,299.95z"/>
		<path class="st3" d="M172.74,108.07c-0.22,0.16-0.44,0.33-0.66,0.49C172.3,108.4,172.52,108.24,172.74,108.07z"/>
		<path class="st3" d="M166.56,111.87c-0.22,0.17-0.43,0.34-0.65,0.51C166.12,112.21,166.34,112.04,166.56,111.87z"/>
		<path class="st3" d="M170.92,300.52c0.28,0.19,0.57,0.37,0.85,0.56C171.36,301.08,171.02,300.99,170.92,300.52z"/>
		<path class="st3" d="M205.75,145.21c1.18-1.69,2.7-1.62,4.6-1.82c-1.34-0.52-2.25-0.88-3.79-1.49c2.49-0.43,2.52-3.25,5.05-3.2
			c0.74,0.01,0.59-2.32,0.32-2.4c-1.3-0.37-2.27-0.6-1.28-2.2c-2.98-0.87,0.4-2.63-0.53-3.79c1.78-0.1,2.66-2.9,4.91-1.61
			c0.13,0.68-0.76,0.69-0.94,1.41c2.97,0,2.7,1.21,0.89,2.69c-0.89,0.73-0.66,0.87-0.01,1.72c0.88,1.17,1.14,2.82,1.61,4.29
			c0.17,0.52,0.27,1.09,0.26,1.64c-0.01,1.06,2.75,0.45,1.35,2.26c-1.23,1.59-2.46,3.35-4.9,2.55
			C210.86,144.47,208.42,145.58,205.75,145.21z"/>
		<path class="st3" d="M267.46,281.12c-1.78,5.04-6.51,6.77-9.73,9.97c-2.02,2-4.47,3.57-6.75,5.31c-0.93,0.71-2.14,1.25-3.01,0.3
			c-0.98-1.07,0.32-1.82,0.96-2.49c2.41-2.52,4.87-4.98,6.86-7.86c0.2-0.3,0.5-0.73,0.78-0.75
			C260.6,285.35,263.61,282.52,267.46,281.12z"/>
		<path class="st3" d="M202.81,116.4c-2.88-0.02-3.59-1.15-2.56-3.16c0.82-1.61,0.98-1.29,3.28-1.17c1.48,0.08,3.07-0.01,4.62-0.05
			c0.79-0.02,1.79-0.57,2.02,0.65c0.21,1.09-0.31,2.01-1.47,2.31C206.56,115.53,204.41,116.01,202.81,116.4z"/>
		<path class="st3" d="M201.28,141.47c-0.81-0.09-1.56,0.12-1.87-0.65c-0.28-0.7,0.35-0.93,0.78-1.26c0.71-0.56,1.2-1.04,1.07-2.23
			c-0.18-1.75,1.84-1.99,2.89-2.55c1.16-0.62,2.88-0.49,4.16,0.51c0.53,0.42,0.64,1.11-0.09,1.24c-1.54,0.27-1.7,1.46-2.03,2.58
			C205.38,141.85,202.63,140.31,201.28,141.47z"/>
		<path class="st3" d="M276.3,113.83c-4.05-1.17-4.8-5.53-7.61-7.9c-0.4-0.34-0.38-0.84,0.02-1.21c0.57-0.53,1.11-0.1,1.4,0.3
			c0.97,1.32,1.77,2.78,2.78,4.07c1.19,1.51,2.53,2.89,3.81,4.32C276.57,113.55,276.43,113.69,276.3,113.83z"/>
		<path class="st3" d="M144.18,136.01c2.31,3.21-0.71,4.59-1.17,6.74c0.22-1.72-3.1-1.12-1.99-3.1
			C141.75,138.35,143,137.34,144.18,136.01z"/>
		<path class="st3" d="M243.07,97.56c1.67,0.08,3.24-0.45,4.78,0.47C244.8,100.95,244.8,100.95,243.07,97.56z"/>
		<path class="st3" d="M231.64,177.15c1.85-1.09,3.32,0,4.81-0.04c0.69-0.02,0.83,1.05,0.37,1.12c-1.03,0.16-0.33,2.54-1.97,1.47
			C233.79,179.01,232.85,178.12,231.64,177.15z"/>
		<path class="st3" d="M224.43,171.52c0.07-1.12-0.52-2.47,1.35-2.47c1.09,0,1.45,0.44,1.37,1.52c-0.11,1.39-0.44,2.75-2.04,2.77
			C223.76,173.36,224.59,172.09,224.43,171.52z"/>
		<path class="st3" d="M318.3,252.1c1.13,2.49-0.2,3.99-2.2,5.58c-0.6-2.63,2.4-3.44,2.15-5.55
			C318.25,252.13,318.3,252.1,318.3,252.1z"/>
		<path class="st3" d="M236.8,137.5c0.6,0.14,1.37,0.2,1.09,1.15c-0.21,0.71-0.5,1.44-1.41,1.51c-1.01,0.08-0.86-0.71-0.96-1.32
			C235.37,137.85,235.86,137.49,236.8,137.5z"/>
		<path class="st3" d="M226.44,167.99c-1.18-1.6-0.79-2.47,1.04-2.91C227.79,166.35,227.38,167.21,226.44,167.99z"/>
		<path class="st3" d="M276.7,113.41c0.52,0.24,1.55,0.44,1.13,1.05c-0.4,0.6-1.11-0.14-1.54-0.63
			C276.43,113.69,276.57,113.55,276.7,113.41z"/>
		<path class="st3" d="M234.25,134.01c0.13-0.12,0.34-0.36,0.37-0.33c0.34,0.22,0.18,0.45-0.06,0.64
			C234.45,134.22,234.35,134.12,234.25,134.01z"/>
		<path class="st2" d="M299.55,190.34c-2.14-0.02-5.41-4.04-4.55-6.02c1.48-3.43-0.38-5.88-2-8.41c-0.37-0.58-0.97-1.06-1.19-1.77
			c-1.36-4.27-0.49-5.97,3.88-7.12c1.36-0.36,2.87-0.14,3.55,1.36c0.59,1.3,0.15,2.2-1.39,2.66c-0.86,0.26-1.56,1.33-1.01,2.23
			c1.28,2.11,2.26,4.43,4.35,6.01c0.72,0.55,2.6,1.62-0.1,2.44c-1.26,0.38-0.64,1.69-0.16,2.29c0.96,1.21,0.95,2.58,1.02,3.92
			C302.04,189.97,301.58,190.36,299.55,190.34z"/>
		<path class="st2" d="M309.23,173.26c0.07,0.88-0.37,1.92-0.72,1.67c-0.86-0.61-2.27-0.99-2.14-2.47c0.07-0.77-0.01-2.06,1.09-1.85
			C308.75,170.85,309.08,172.21,309.23,173.26z"/>
		<path class="st2" d="M268.9,124.56c0.53,0.24,1.13,0.39,1.37,1.06c-0.87,0.39-1.29-0.17-1.71-0.75
			C268.68,124.77,268.79,124.67,268.9,124.56z"/>
		<polygon class="st2" points="284.37,119.09 284.49,119.2 284.4,119.06 		"/>
	</g>
</g>
<g>
	<path d="M167.38,177.09c14.14-0.34,28.53,1.81,42.54,6.72c11.37,3.98,22.81,3.86,34.17,0c30.32-10.31,60.6-8.14,90.81,0.44
		c1.97,0.56,4.45,2.71,4.96,4.64c0.8,3.03-1.7,4.7-3.95,6.9c-3.26,3.19-5.44,8.21-6.81,12.87c-1.74,5.89-1.97,12.26-3.26,18.33
		c-3.08,14.51-10.47,21.34-25.73,23.19c-10.6,1.29-21.09,1.3-31.25-3.02c-10.93-4.65-18.58-12.94-23.76-23.89
		c-2.25-4.76-3.64-10-6.07-14.65c-1.81-3.47-4.32-6.74-7.13-9.37c-4.06-3.79-11.12-1.58-14.44,4.59
		c-2.81,5.23-4.98,10.86-7.31,16.38c-7.33,17.38-19.48,28.18-37.61,30.19c-10.04,1.12-20.08,0.86-29.79-3.08
		c-6.3-2.56-10.4-7.26-12.49-13.7c-1.79-5.51-2.65-11.36-4.06-17.02c-1.44-5.77-2.85-11.57-4.73-17.18
		c-0.57-1.71-2.87-2.68-4.01-4.28c-1.38-1.95-3.1-4.16-3.24-6.36c-0.09-1.34,2.29-3.68,3.94-4.21
		C134,179.52,150.22,176.97,167.38,177.09z"/>
</g>
</svg>
