<?xml version="1.0" encoding="utf-8"?>
<!-- Generator: Adobe Illustrator 24.0.2, SVG Export Plug-In . SVG Version: 6.00 Build 0)  -->
<svg version="1.1" id="Capa_1" xmlns="http://www.w3.org/2000/svg" xmlns:xlink="http://www.w3.org/1999/xlink" x="0px" y="0px"
	 viewBox="0 0 450 450" style="enable-background:new 0 0 450 450;" xml:space="preserve">
<style type="text/css">
	.st0{fill:#010101;}
	.st1{fill:#323231;}
	.st2{fill:#DDECF2;}
	.st3{fill:#173E7B;}
	.st4{fill:#0F3877;}
	.st5{fill:none;stroke:#000000;stroke-miterlimit:10;}
</style>
<g>
	<path class="st0" d="M91.57,284.88c-0.25-0.44-0.15-0.92-0.15-1.38c0-54.22-0.01-108.43,0-162.65c0-4.32,0.37-8.6,2.54-12.53
		c1.88-3.39,4.5-5.57,8.93-5.56c25.49,0.06,50.99,0.01,76.48,0.01c47.86,0,95.72,0,143.59,0c1.45,0,2.91,0.12,4.34,0.01
		c5.21-0.42,8.14,2.5,9.92,6.46c1.38,3.06,1.93,6.3,1.93,9.59c0.02,54.94,0.01,109.88,0.01,164.83c0,0.42-0.08,0.84-0.12,1.26
		c-0.45,0-0.91,0-1.36,0c-81.59,0-163.17,0-244.76,0C92.47,284.89,92.02,284.88,91.57,284.88z M216.19,114.38
		c-37.27,0-74.53,0-111.8,0c-3.29,0-3.29,0-3.29,3.17c0.02,50.59,0.04,101.18,0.03,151.78c0,1.24,0.32,1.53,1.63,1.53
		c75.53-0.03,151.05-0.03,226.58,0c1.38,0,1.69-0.31,1.69-1.6c-0.04-51.1-0.04-102.21,0-153.31c0-1.29-0.32-1.6-1.7-1.6
		C291.63,114.39,253.91,114.38,216.19,114.38z"/>
	<path class="st1" d="M91.57,284.88c0.45,0.01,0.91,0.02,1.36,0.02c81.59,0,163.17,0,244.76,0c0.45,0,0.91,0,1.36,0
		c-0.05,4.25,0.51,8.52-0.47,12.73c-0.89,3.84-2.82,7.17-6.11,9.62c-2.05,1.53-4.52,2.44-7.21,2.44
		c-27.98,0.02-55.95,0.01-83.93,0.01c-0.45,0-0.91,0-1.36,0.01c-0.31,0.01-0.56,0.12-0.41,0.46c1.05,2.43,1.68,5.01,3.1,7.3
		c0.32,1.56,1.06,2.98,1.59,4.47c0.27,0.76,0.89,0.6,1.44,0.6c4.94,0.01,9.87,0.12,14.8-0.03c3.57-0.11,5.76,3.32,5.28,6.33
		c-0.07,0.42-0.31,0.59-0.72,0.59c-0.45,0-0.91,0.01-1.36,0.01c-34.96,0-69.91,0-104.87-0.02c-0.87,0-2.08,0.54-2.59-0.48
		c-0.58-1.16-0.08-2.42,0.63-3.38c1.42-1.94,3.37-3.05,6.03-3.02c5.21,0.07,10.41,0,15.62,0.04c1.03,0.01,1.55-0.24,1.77-1.26
		c0.29-1.32,1.08-2.51,1.26-3.88c0.97-2.29,1.51-4.72,2.34-7.05c0.2-0.56-0.09-0.68-0.59-0.67c-0.41,0.01-0.81,0-1.22,0
		c-25.4,0-50.8,0-76.2,0c-5.63,0-9.43-2.67-12-7.18c-1.8-3.16-2.36-6.59-2.4-10.11C91.45,289.9,91.53,287.39,91.57,284.88z
		 M215.72,296.22c0.09-0.63-0.2-1.37-0.55-2.04c-0.5-0.95-1.28-1.58-2.53-1.6c-1.28-0.02-2.15,0.53-2.72,1.54
		c-0.74,1.31-0.8,2.7-0.22,4.07c0.75,1.74,2.99,2.48,4.45,1.43C215.25,298.83,215.72,297.68,215.72,296.22z"/>
	<path class="st1" d="M329.42,336.34c-2.99,0-5.97-0.06-8.96,0.03c-1.32,0.04-1.54-0.51-1.4-1.52c0.56-4.31,2.88-7.6,7.15-9.09
		c3.02-1.05,6.21-0.73,9.04,1.32c2.86,2.08,4.17,4.76,4.54,8.04c0.11,0.95-0.22,1.23-1.14,1.23
		C335.57,336.33,332.5,336.34,329.42,336.34z"/>
	<path class="st2" d="M216.19,114.38c37.72,0,75.44,0.01,113.15-0.03c1.38,0,1.7,0.31,1.7,1.6c-0.04,51.1-0.04,102.21,0,153.31
		c0,1.29-0.31,1.6-1.69,1.6c-75.53-0.04-151.05-0.03-226.58,0c-1.31,0-1.63-0.3-1.63-1.53c0.02-50.59-0.01-101.18-0.03-151.78
		c0-3.17,0-3.17,3.29-3.17C141.66,114.38,178.93,114.38,216.19,114.38z"/>
	<path class="st2" d="M215.72,296.22c0,1.47-0.47,2.62-1.56,3.39c-1.47,1.05-3.71,0.31-4.45-1.43c-0.59-1.37-0.52-2.76,0.22-4.07
		c0.56-1,1.43-1.56,2.72-1.54c1.25,0.02,2.03,0.65,2.53,1.6C215.52,294.85,215.81,295.59,215.72,296.22z"/>
</g>
<g>
	<path class="st3" d="M249.38,214c-9.08-0.35-17.82-2.01-25.26-7.85c-2.23-1.75-3.69-1.32-5.76,0.13
		c-16.2,11.28-42.34,10.85-57.15-6.81c-3.06-3.64-5.95-7.25-8.26-11.4c-5.78-10.39-11.4-20.88-17.34-31.17
		c-1.27-2.2-1.34-3.61,0.9-4.17c2.2-0.55,4.06-5.47,6.77-1.02c2.49,4.08,4.87,8.27,6.97,12.58c4.28,8.79,9.9,16.71,15.14,24.84
		c13.18,20.45,42.24,20.56,56.03,0.43c3.56-5.19,7.36-10.26,9.62-16.3c2.28-6.09,1.11-11.33-3.23-14.61
		c-3.78-2.86-9.54-2.7-12.97,0.37c-4.46,3.99-5.05,9.13-2.2,15.26c1.11,2.38,4.42,4.42,2.3,7.57c-1.43,2.12-2.75,5.25-5.45,5.41
		c-2.85,0.18-3.23-3.32-4.39-5.35c-6.07-10.58-6.05-19.49-0.16-26.93c7.25-9.16,19.68-10.44,30.15-3.11
		c7.36,5.16,9.66,17.43,4.55,26.76c-2.81,5.13-6.31,9.88-9.73,14.63c-2.04,2.84-1.72,4.35,1.25,6.28
		c15.66,10.15,38.1,4.64,47.47-11.94c6.66-11.78,14.7-22.71,20.45-35.03c2.01-4.3,3.86-1.77,6.03-0.73c2.48,1.2,3.87,2.3,1.98,5.57
		c-6.44,11.11-12.4,22.52-18.83,33.63C279.8,205.7,265.51,213.96,249.38,214z"/>
</g>
<g>
	<g>
		<path class="st4" d="M172.59,247.13c-1.22,1.06-2.58,1.59-4.07,1.59c-1.73,0-3.14-0.86-4.21-2.59c-1.07-1.72-1.61-4-1.61-6.84
			c0-2.9,0.59-5.28,1.78-7.14c1.19-1.86,2.7-2.79,4.52-2.79c1.32,0,2.43,0.33,3.33,0.99v2.43c-0.98-0.96-2.15-1.44-3.49-1.44
			c-1.36,0-2.48,0.72-3.35,2.17c-0.87,1.45-1.31,3.32-1.31,5.62c0,2.37,0.4,4.23,1.21,5.58c0.81,1.35,1.91,2.03,3.29,2.03
			c0.95,0,1.77-0.29,2.47-0.88v-5.25h-2.66v-1.99h4.09V247.13z"/>
		<path class="st4" d="M182.24,248.41h-1.39v-2.12h-0.03c-0.58,1.62-1.47,2.43-2.68,2.43c-2.07,0-3.1-1.9-3.1-5.69v-7.99h1.38v7.65
			c0,2.82,0.7,4.23,2.1,4.23c0.68,0,1.24-0.39,1.67-1.16c0.44-0.77,0.66-1.78,0.66-3.02v-7.7h1.39V248.41z"/>
		<path class="st4" d="M192.03,242.26h-6.13c0.02,1.49,0.28,2.64,0.78,3.45s1.18,1.21,2.05,1.21c0.98,0,1.88-0.5,2.7-1.49v2.01
			c-0.76,0.85-1.77,1.28-3.03,1.28c-1.23,0-2.19-0.61-2.89-1.82c-0.7-1.21-1.05-2.92-1.05-5.13c0-2.08,0.38-3.78,1.15-5.09
			c0.77-1.31,1.72-1.96,2.85-1.96s2.01,0.57,2.64,1.7s0.93,2.7,0.93,4.71V242.26z M190.6,240.45c0-1.24-0.2-2.2-0.58-2.89
			c-0.38-0.69-0.91-1.03-1.59-1.03c-0.66,0-1.21,0.36-1.67,1.08s-0.74,1.67-0.85,2.83H190.6z"/>
		<path class="st4" d="M198.66,237.21c-0.24-0.29-0.59-0.43-1.05-0.43c-0.59,0-1.09,0.43-1.49,1.29s-0.6,2.04-0.6,3.53v6.82h-1.39
			v-13.37h1.39v2.75h0.03c0.2-0.94,0.5-1.67,0.91-2.2c0.41-0.53,0.86-0.79,1.37-0.79c0.36,0,0.64,0.06,0.83,0.18V237.21z"/>
		<path class="st4" d="M204.69,237.21c-0.24-0.29-0.59-0.43-1.05-0.43c-0.59,0-1.09,0.43-1.49,1.29s-0.6,2.04-0.6,3.53v6.82h-1.39
			v-13.37h1.39v2.75h0.03c0.2-0.94,0.5-1.67,0.91-2.2c0.41-0.53,0.86-0.79,1.37-0.79c0.36,0,0.64,0.06,0.83,0.18V237.21z"/>
		<path class="st4" d="M213.18,242.26h-6.13c0.02,1.49,0.28,2.64,0.78,3.45s1.18,1.21,2.05,1.21c0.98,0,1.88-0.5,2.7-1.49v2.01
			c-0.76,0.85-1.77,1.28-3.03,1.28c-1.23,0-2.19-0.61-2.89-1.82c-0.7-1.21-1.05-2.92-1.05-5.13c0-2.08,0.38-3.78,1.15-5.09
			c0.77-1.31,1.72-1.96,2.85-1.96s2.01,0.57,2.64,1.7s0.93,2.7,0.93,4.71V242.26z M211.75,240.45c0-1.24-0.2-2.2-0.58-2.89
			c-0.38-0.69-0.91-1.03-1.59-1.03c-0.66,0-1.21,0.36-1.67,1.08s-0.74,1.67-0.85,2.83H211.75z"/>
		<path class="st4" d="M219.81,237.21c-0.24-0.29-0.59-0.43-1.05-0.43c-0.59,0-1.09,0.43-1.49,1.29s-0.6,2.04-0.6,3.53v6.82h-1.39
			v-13.37h1.39v2.75h0.03c0.2-0.94,0.5-1.67,0.91-2.2c0.41-0.53,0.86-0.79,1.37-0.79c0.36,0,0.64,0.06,0.83,0.18V237.21z"/>
		<path class="st4" d="M224.95,248.73c-1.28,0-2.31-0.63-3.07-1.87c-0.77-1.25-1.15-2.91-1.15-4.97c0-2.25,0.4-4,1.2-5.26
			c0.8-1.26,1.87-1.89,3.23-1.89c1.29,0,2.3,0.61,3.03,1.84c0.73,1.23,1.09,2.93,1.09,5.11c0,2.13-0.39,3.84-1.17,5.13
			C227.31,248.08,226.26,248.73,224.95,248.73z M225.05,236.53c-0.89,0-1.6,0.47-2.12,1.4c-0.52,0.94-0.78,2.23-0.78,3.87
			c0,1.58,0.26,2.83,0.79,3.75c0.53,0.92,1.23,1.37,2.11,1.37c0.9,0,1.59-0.45,2.07-1.35c0.48-0.9,0.72-2.17,0.72-3.83
			c0-1.67-0.24-2.96-0.72-3.87C226.64,236.98,225.95,236.53,225.05,236.53z"/>
		<path class="st4" d="M245.84,248.41h-1.58l-1.29-5.25h-5.15l-1.21,5.25h-1.58l4.66-18.73h1.47L245.84,248.41z M242.51,241.19
			l-1.91-7.98c-0.06-0.26-0.12-0.68-0.19-1.25h-0.03c-0.06,0.53-0.12,0.95-0.2,1.25l-1.89,7.98H242.51z"/>
		<path class="st4" d="M246.92,247.93v-2.3c0.76,0.86,1.59,1.29,2.5,1.29c1.22,0,1.83-0.63,1.83-1.88c0-0.36-0.05-0.66-0.16-0.91
			c-0.1-0.25-0.25-0.47-0.42-0.66c-0.18-0.19-0.39-0.36-0.63-0.52s-0.5-0.31-0.78-0.48c-0.38-0.24-0.72-0.47-1.01-0.71
			s-0.53-0.51-0.73-0.81c-0.2-0.3-0.34-0.64-0.44-1.03c-0.1-0.38-0.15-0.83-0.15-1.34c0-0.63,0.09-1.18,0.28-1.67
			s0.43-0.89,0.75-1.21c0.31-0.33,0.67-0.57,1.06-0.74s0.81-0.25,1.23-0.25c0.75,0,1.42,0.2,2.02,0.6v2.17
			c-0.64-0.64-1.37-0.97-2.21-0.97c-0.26,0-0.49,0.05-0.7,0.14c-0.21,0.09-0.39,0.22-0.54,0.38c-0.15,0.17-0.27,0.36-0.35,0.59
			c-0.08,0.23-0.12,0.49-0.12,0.76c0,0.35,0.04,0.64,0.12,0.88c0.08,0.23,0.2,0.44,0.36,0.63c0.16,0.18,0.35,0.35,0.58,0.5
			c0.23,0.15,0.48,0.31,0.77,0.48c0.38,0.23,0.73,0.46,1.03,0.7s0.57,0.51,0.78,0.81s0.38,0.65,0.5,1.04
			c0.12,0.39,0.17,0.86,0.17,1.4c0,0.66-0.09,1.24-0.28,1.72s-0.44,0.89-0.76,1.21s-0.68,0.56-1.09,0.72
			c-0.41,0.16-0.84,0.24-1.3,0.24C248.35,248.73,247.58,248.46,246.92,247.93z"/>
		<path class="st4" d="M254.29,247.93v-2.3c0.76,0.86,1.59,1.29,2.5,1.29c1.22,0,1.83-0.63,1.83-1.88c0-0.36-0.05-0.66-0.16-0.91
			c-0.1-0.25-0.25-0.47-0.42-0.66c-0.18-0.19-0.39-0.36-0.63-0.52s-0.5-0.31-0.78-0.48c-0.38-0.24-0.72-0.47-1.01-0.71
			s-0.53-0.51-0.73-0.81c-0.2-0.3-0.34-0.64-0.44-1.03c-0.1-0.38-0.15-0.83-0.15-1.34c0-0.63,0.09-1.18,0.28-1.67
			s0.43-0.89,0.75-1.21c0.31-0.33,0.67-0.57,1.06-0.74s0.81-0.25,1.23-0.25c0.75,0,1.42,0.2,2.02,0.6v2.17
			c-0.64-0.64-1.37-0.97-2.21-0.97c-0.26,0-0.49,0.05-0.7,0.14c-0.21,0.09-0.39,0.22-0.54,0.38c-0.15,0.17-0.27,0.36-0.35,0.59
			c-0.08,0.23-0.12,0.49-0.12,0.76c0,0.35,0.04,0.64,0.12,0.88c0.08,0.23,0.2,0.44,0.36,0.63c0.16,0.18,0.35,0.35,0.58,0.5
			c0.23,0.15,0.48,0.31,0.77,0.48c0.38,0.23,0.73,0.46,1.03,0.7s0.57,0.51,0.78,0.81s0.38,0.65,0.5,1.04
			c0.12,0.39,0.17,0.86,0.17,1.4c0,0.66-0.09,1.24-0.28,1.72s-0.44,0.89-0.76,1.21s-0.68,0.56-1.09,0.72
			c-0.41,0.16-0.84,0.24-1.3,0.24C255.72,248.73,254.94,248.46,254.29,247.93z"/>
		<path class="st4" d="M262.89,231.65c-0.25,0-0.46-0.13-0.64-0.39c-0.17-0.26-0.26-0.59-0.26-0.99c0-0.4,0.09-0.73,0.26-1
			c0.18-0.27,0.39-0.4,0.64-0.4c0.25,0,0.47,0.13,0.65,0.4c0.18,0.27,0.27,0.6,0.27,1c0,0.38-0.09,0.71-0.27,0.98
			C263.36,231.51,263.15,231.65,262.89,231.65z M263.57,248.41h-1.39v-13.37h1.39V248.41z"/>
		<path class="st4" d="M265.86,247.93v-2.3c0.76,0.86,1.59,1.29,2.5,1.29c1.22,0,1.83-0.63,1.83-1.88c0-0.36-0.05-0.66-0.16-0.91
			c-0.1-0.25-0.25-0.47-0.42-0.66c-0.18-0.19-0.39-0.36-0.63-0.52s-0.5-0.31-0.78-0.48c-0.38-0.24-0.72-0.47-1.01-0.71
			s-0.53-0.51-0.73-0.81c-0.2-0.3-0.34-0.64-0.44-1.03c-0.1-0.38-0.15-0.83-0.15-1.34c0-0.63,0.09-1.18,0.28-1.67
			s0.43-0.89,0.75-1.21c0.31-0.33,0.67-0.57,1.06-0.74s0.81-0.25,1.23-0.25c0.75,0,1.42,0.2,2.02,0.6v2.17
			c-0.64-0.64-1.37-0.97-2.21-0.97c-0.26,0-0.49,0.05-0.7,0.14c-0.21,0.09-0.39,0.22-0.54,0.38c-0.15,0.17-0.27,0.36-0.35,0.59
			c-0.08,0.23-0.12,0.49-0.12,0.76c0,0.35,0.04,0.64,0.12,0.88c0.08,0.23,0.2,0.44,0.36,0.63c0.16,0.18,0.35,0.35,0.58,0.5
			c0.23,0.15,0.48,0.31,0.77,0.48c0.38,0.23,0.73,0.46,1.03,0.7s0.57,0.51,0.78,0.81s0.38,0.65,0.5,1.04
			c0.12,0.39,0.17,0.86,0.17,1.4c0,0.66-0.09,1.24-0.28,1.72s-0.44,0.89-0.76,1.21s-0.68,0.56-1.09,0.72
			c-0.41,0.16-0.84,0.24-1.3,0.24C267.29,248.73,266.52,248.46,265.86,247.93z"/>
		<path class="st4" d="M277.78,248.28c-0.33,0.28-0.76,0.42-1.3,0.42c-1.52,0-2.28-1.31-2.28-3.92v-7.91h-1.49v-1.83h1.49v-3.26
			l1.39-0.69v3.96h2.19v1.83h-2.19v7.54c0,0.9,0.1,1.54,0.3,1.92c0.2,0.38,0.53,0.58,0.98,0.58c0.35,0,0.65-0.15,0.91-0.44V248.28z"
			/>
	</g>
</g>
<rect x="1" y="1" class="st5" width="450" height="448"/>
</svg>
